**ABCDEFGHIJKLMNOPQRSTUVWXYZabcdefghijklmnopqrstuvwxyz**************************
**PARASOLID !"#$%&'()*+,-./:;<=>?@[\]^_`{|}~0123456789**************************
**PART1;
MC=KTH-12182;
MC_MODEL=unknown;
MC_ID=unknown;
OS=Windows NT;
OS_RELEASE=6.2;
FRU=Unigraphics Solutions;
APPL=SolidEdge;
SITE=Huntsville, AL;
USER=rimmie
FORMAT=text;
GUISE=transmit;
KEY=C:\Users\rimmie\OneDrive - KTH\PhD\Course work\MF2104- Mechatronics\mechatronic-project\CAD_files-frame\bird-wings-mechanism-1.snapshot.3\bird wings\Bird-Assembly\bird;
FILE=C:\Users\rimmie\OneDrive - KTH\PhD\Course work\MF2104- Mechatronics\mechatronic-project\CAD_files-frame\bird-wings-mechanism-1.snapshot.3\bird wings\Bird-Assembly\bird.x_t;
DATE=fre, dec 02 22;
**PART2;
SCH=SCH_3400153_34001;
USFLD_SIZE=0;
**PART3;
**END_OF_HEADER*****************************************************************
T51 : TRANSMIT FILE created by modeller version 340015323 SCH_3400153_34001_1300
6231 0 12 36 CCCI7 lattice222 0 CCCI4 mesh1006 0 I8 polyline1008 0 CCCCCCCDI5 ow
ner1040 0 CCCI16 boundary_lattice222 0 CCCI13 boundary_mesh1006 0 I17 boundary_p
olyline1008 0 CCCA16 index_map_offset0 0 1 dA9 index_map82 0 A17 node_id_index_m
ap82 0 A20 schema_embedding_map82 0 A5 child12 0 A14 lowest_node_id0 0 1 dA16 me
sh_offset_data206 0 Z1 1575 2 3 0 0 0 0 0 0 0 1e3 1e-8 0 0 0 1 0 1 1 4 0 5 6 7 0
 0 8 9 10 0 0 0 0 0 0 0 81 255 3 2 1541 11 1 12 0 12 0 13 14 15 70 11 CI9 list_t
ype0 0 1 uI10 notransmit0 0 1 lCCCDCCDI12 finger_index0 0 1 dI12 finger_block101
2 0 CZ3 0 4 T1 0 0 12 20 1 16 16 13 255 4 132 0 1 0 17 0 0 18 0 67 255 5 1071 0
 1 19 0 20 -21 0 0 -1 .1650950503066585 30 255 6 1306 0 9 22 0 0 +-.125593986615
4686 -.034898746593054 0 0 0 1 29 255 7 1089 0 10 23 0 .0510338707970074 .003504
01882901054 .001 19 9 CCCCCCI5 frame230 0 CA5 owner12 0 Z8 1 0 1 18 0 24 0 V0 16
 255 9 1304 0 ?25 0 26 6 0 0 1 18 255 10 1087 0 27 0 28 7 25e-8 1 17 255 27 0 29
 30 31 10 32 26 0 33 -18 28 1075 0 32 10 34 23 25e-8 1 17 32 0 35 36 33 28 27 26
 0 31 +18 34 103 0 37 28 38 39 ?1 29 23 1077 0 28 40 7 .0510338707970028 .003504
018829012995 0 29 40 899 0 41 42 23 -.1369522067055244 .017203347370093 .001 18
 41 6 0 43 44 45 40 ?1 29 42 898 0 44 46 40 -.1369522067055244 .017203347370093
 0 18 44 9 0 47 48 41 42 ?1 29 46 897 0 48 49 42 -.1284339866159598 -.0339705498
7343615 0 18 48 11 0 50 51 44 46 ?1 29 49 892 0 51 52 46 .03416499982192845 .002
756857020580135 .001 18 51 16 0 53 54 48 49 ?1 29 52 890 0 54 55 49 .03416499982
192845 .002756857020580135 0 18 54 20 0 36 56 51 52 ?1 29 55 878 0 38 39 52 -.09
34339866154683 -.0379587955680886 .001 18 38 97 0 57 34 58 55 ?1 29 39 877 0 34
 59 55 -.093433986616414 -.0379587955682269 0 29 59 876 0 58 60 39 .052633655492
8555 .00323781899942121 0 18 58 60 0 61 38 56 59 25e-8 1 29 60 874 0 56 62 59 .0
526336554928555 .00323781899942121 .001 18 56 39 0 30 58 54 60 25e-8 1 29 62 152
3 0 45 63 60 -.1284339866154686 -.01797054987365175 0 18 45 1424 0 64 41 65 62 ?
1 29 63 1524 0 65 66 62 -.1255939866154686 -.034898746593054 0 18 65 1419 0 67 4
5 68 63 ?1 29 66 1525 0 68 69 63 -.1255939866154686 -.01797054987365175 0 18 68
 1417 0 70 65 71 66 ?1 29 69 1526 0 71 72 66 -.1255939866154686 -.03489874659305
4 .001 18 71 1420 0 25 68 73 69 ?1 29 72 1527 0 73 74 69 -.1284339866154686 -.03
397054987365175 .001 18 73 1423 0 75 71 76 72 ?1 29 74 1530 0 76 77 72 -.1255939
866154686 -.01797054987365175 .001 18 76 1426 0 78 73 79 74 ?1 29 77 1531 0 79 0
 74 -.1284339866154686 -.01797054987365175 .001 18 79 1425 0 80 76 0 77 ?1 17 80
 0 81 75 64 79 82 83 0 84 +15 255 81 1465 0 64 85 0 17 75 0 81 50 80 73 86 87 0
 88 -17 64 0 81 80 50 45 89 90 0 82 +17 82 0 91 70 84 45 80 83 0 92 -16 83 1396
 0 ?80 93 94 95 0 0 1 17 84 0 91 82 78 79 96 97 0 86 -15 91 1471 0 70 98 0 17 78
 0 91 84 70 76 99 94 0 100 +17 96 0 101 102 86 76 84 97 0 0 +16 97 1397 103 ?96
 104 87 105 0 0 1 17 86 0 101 96 88 79 75 87 0 0 +15 101 1113 0 88 106 0 17 88 0
 101 86 43 73 107 108 0 109 +16 87 1391 110 ?86 97 0 111 0 0 1 81 1 110 1393 112
 87 0 0 113 103 114 30 111 1517 0 87 0 105 0 +-.1284339866154686 -.0339705498736
5175 .001 0 1 0 30 105 1516 0 97 111 115 0 +-.1284339866154686 -.017970549873651
75 .001 1 0 0 30 115 1515 0 104 105 116 0 +-.1255939866154686 -.0383134347064643
 .001 0 -1 0 16 104 1402 117 ?102 94 97 115 0 0 1 30 116 1511 0 94 115 95 0 +-.1
255939866154686 -.01797054987365175 -.242768501557914 0 0 1 16 94 1401 0 ?78 83
 104 116 0 0 1 30 95 1510 0 83 116 118 0 +-.1284339866154686 -.01797054987365175
 -.242768501557914 0 0 1 30 118 1507 0 90 95 119 0 +-.1284339866154686 -.0296061
5230908525 0 0 1 0 16 90 1375 0 ?64 120 93 118 0 0 1 30 119 1506 0 120 118 121 0
 +-.0605683697042736 -.01797054987365175 0 1 0 0 16 120 1371 0 ?70 122 90 119 0
 0 1 30 121 1505 0 93 119 123 0 +-.1255939866154686 -.02960615230908525 0 0 -1 0
 16 93 1383 0 ?67 90 83 121 0 0 1 31 255 123 1255 0 124 121 125 0 +-.10205905266
6504 .0419198690081017 0 0 0 -1 0 1 0 .080342969940501 16 124 1191 0 ?126 108 12
2 123 0 0 1 31 125 1251 0 122 123 127 0 +-.102059052666504 .0419198690081017 .00
1 0 0 -1 0 1 0 .080342969940501 16 122 1178 113 ?128 124 120 125 0 0 1 30 127 37
7 0 129 125 130 0 +-.1369522067055244 .017203347370093 .001 0 0 -1 16 129 8 0 ?1
31 132 108 127 0 0 1 134 255 130 383 0 133 127 134 0 +135 136 16 133 15 0 ?43 13
7 138 130 0 0 1 134 134 375 0 108 130 139 0 +140 141 136 255 135 3 10 3 8 1 FFF1
 142 143 144 135 255 136 2 0 45 255 30 142 .03416499982192845 .00275685702058013
5 .001 .0315179558242233 .00263725490334975 .001 .02618725694004305 .00239460344
161334 .001 .012601726279497 .00185348596507857 .001 -.01848264697467 .006981469
61339649 .001 -.0556445108253664 .01498887950647766 .001 -.0835555581837725 .020
9959775651875 .001 -.1114469705017246 .0165288345421634 .001 -.130875427344868 .
0169015751766242 .001 -.1369522067055244 .017203347370093 .001 127 255 8 143 4 1
 1 1 1 1 1 4 128 255 8 144 .842978830658884 .857215919087379 .871308045764146 .9
24768036430711 .93465528907007 .963498073324417 .982501087689906 1 16 108 5 0 ?8
8 129 124 134 0 0 1 134 139 379 0 132 134 145 0 +146 147 136 140 3 22 3 20 1 FFF
1 148 149 150 135 141 2 0 45 66 148 -.1369522067055244 .017203347370093 .001 -.1
4951996106596 .01782746066683045 .001 -.1473796265293204 .0197535875471692 .001
 -.1605988862442075 .02139094829757605 .001 -.1688504398979905 .018687189794201
 .001 -.175225010347602 .01371342694991782 .001 -.1785237504128375 .005977256747
86848 .001 -.1836484225172635 .000804295070186747 .001 -.181711291600792 -.00592
146735536461 .001 -.179533545926684 -.00824670312923464 .001 -.1760568052557425
 -.00979241497458257 .001 -.1788254015124505 -.0067531060384285 .001 -.179412456
349725 -.003710312879217995 .001 -.176094825683287 -.001887636190433955 .001 -.1
719234556521275 -.001407142564172494 .001 -.1667497239856185 -.00286462531443538
 .001 -.1614608189247835 -.00667442984480137 .001 -.155869607193824 -.0125090116
880842 .001 -.149680550101386 -.0195496655093176 .001 -.1402091231221654 -.02739
03679018871 .001 -.13300399328051 -.0319649219646719 .001 -.1284339866154686 -.0
3397054987365175 .001 127 20 149 4 1 1 1 1 1 1 1 1 1 1 1 1 1 1 1 1 1 1 4 128 20
 150 0 .0361905572731374 .06058537875605 .0761351333582694 .102091515636734 .115
4536857505538 .138523582511439 .1490798801336304 .1621879889616915 .164492976841
8605 .1706517281553795 .1782461893027245 .188022623797033 .1928672267791085 .209
725135174157 .225331146845069 .2405491569079025 .2689649094186705 .2940885449393
33 .3307851040075075 16 132 10 0 ?151 138 129 139 0 0 1 134 145 388 0 137 139 15
2 0 +153 154 136 146 3 22 3 20 1 FFF1 155 156 157 135 147 2 0 45 66 155 -.136952
2067055244 .017203347370093 0 -.14951996106596 .01782746066683045 0 -.1473796265
293204 .0197535875471692 0 -.1605988862442075 .02139094829757605 0 -.16885043989
79905 .018687189794201 0 -.175225010347602 .01371342694991782 0 -.17852375041283
75 .00597725674786848 0 -.1836484225172635 .000804295070186747 0 -.1817112916007
92 -.00592146735536461 0 -.179533545926684 -.00824670312923464 0 -.1760568052557
425 -.00979241497458257 0 -.1788254015124505 -.0067531060384285 0 -.179412456349
725 -.003710312879217995 0 -.176094825683287 -.001887636190433955 0 -.1719234556
521275 -.001407142564172494 0 -.1667497239856185 -.00286462531443538 0 -.1614608
189247835 -.00667442984480137 0 -.155869607193824 -.0125090116880842 0 -.1496805
50101386 -.0195496655093176 0 -.1402091231223034 -.02739036790177285 0 -.1330039
932808164 -.03196492196447735 0 -.1284339866159598 -.03397054987343615 0 127 20
 156 4 1 1 1 1 1 1 1 1 1 1 1 1 1 1 1 1 1 1 4 128 20 157 0 .0361905572731374 .060
5853787560501 .0761351333582694 .102091515636734 .1154536857505538 .138523582511
439 .1490798801336304 .1621879889616915 .1644929768418605 .1706517281553795 .178
2461893027245 .188022623797033 .1928672267791085 .209725135174157 .2253311468450
69 .2405491569079025 .2689649094186705 .294088544939333 .3307851040061925 16 137
 21 0 ?47 158 133 145 0 0 1 30 152 380 0 138 145 159 0 +-.1284339866154684 -.033
97054987365185 .001 0 0 -1 136 153 3 10 3 8 1 FFF1 160 161 162 135 154 2 0 45 30
 160 .03416499982192845 .002756857020580135 0 .0315179558242233 .002637254903349
75 0 .02618725694004305 .00239460344161334 0 .012601726279497 .00185348596507857
 0 -.01848264697467 .00698146961339649 0 -.0556445108253664 .01498887950647766 0
 -.0835555581837725 .0209959775651875 0 -.1114469705017246 .0165288345421634 0 -
.130875427344868 .0169015751766242 0 -.1369522067055244 .017203347370093 0 127 8
 161 4 1 1 1 1 1 1 4 128 8 162 .842978830658884 .857215919087379 .87130804576414
6 .924768036430711 .93465528907007 .963498073324417 .982501087689906 1 16 138 12
 0 ?50 133 132 152 0 0 1 30 159 460 0 163 152 164 0 +-.0934339866154683 -.037958
7955681248 .001 0 0 1 16 163 102 0 ?165 166 158 159 0 0 1 134 164 882 0 1 159 16
7 168 +169 170 133 255 167 885 0 158 164 171 0 +171 -.0934339866154683 -.0379587
955680886 .001 .0526336554928555 .00323781899942121 .001 .4176940805357275 .7936
43849505471 141 255 168 172 173 173 164 136 169 3 17 3 11 6 FFF1 174 175 176 135
 170 2 0 45 51 174 .0489987680817926 .00381260858449522 5e-4 .0501184886543971 .
00364282143069315 5e-4 .0512382092270015 .00347303427689108 5e-4 .05235792979960
6 .003303247123089015 5e-4 .0524130088337019 .00329489529615816 5e-4 .0526349020
185601 .00326124885504872 5e-4 .0531605760931529 .00281114295874678 5e-4 .027303
03444220935 -.0002269545598686675 5e-4 .00892347932043565 -.00226278385318526 5e
-4 -.01728593480618625 -.00842638032248224 5e-4 -.0483281830620312 -.02573104978
706175 5e-4 -.0799722125075544 -.03739921744246175 5e-4 -.1004384309743248 -.038
5301116227117 5e-4 -.1039475707545924 -.03872401484726835 5e-4 -.105595687752091
6 -.0388150842318676 5e-4 -.1072438047495906 -.0389061536164669 5e-4 -.108891921
7470898 -.03899722300106615 5e-4 127 11 175 4 3 1 1 1 1 1 1 1 3 4 128 11 176 .37
98735337748005 .41592091073272 .4176940805333915 .4230643601563325 .483186713733
061 .530876484777733 .584111731710896 .671545455432515 .795899548119304 .8216336
91455776 .833720094877895 67 172 881 0 177 178 179 0 +164 -511889974729234e-29 -
552723917709741e-30 1 .000117421883692493 141 173 19 168 168 164 67 19 1073 0 1
 180 5 181 -164 -511889974729234e-29 -552723917709741e-30 1 .000117421883692493
 50 255 180 1072 0 1 182 19 183 --.0605683697042736 -.02960615230908525 0 0 0 1
 1 0 0 141 181 184 185 185 19 38 12 CCCCCCCCCCCA17 intersection_data204 0 Z184 1
083 0 1 186 187 188 -180 19 189 190 191 192 141 185 193 181 181 19 38 193 1096 0
 1 194 195 196 -19 197 198 199 200 201 133 194 1095 0 202 203 193 0 +193 .052633
6554928554 .00323781899942123 .001 .0510338707970074 .00350401882901054 .001 .02
827558052341115 .02665188078640425 133 195 1097 0 204 193 205 0 +205 .0341649998
2192845 .002756857020580135 .001 .0510338707970072 .00350401882901319 .001 .0426
4319553059725 .0257577862381571 141 196 194 196 196 193 50 197 449 0 106 206 178
 207 +-.0605683697042736 -.02960615230908525 .001 0 0 1 1 0 0 40 255 4 198 .0258
1437893940745 1 4 .01278184304595416 .3560498573309685 ??.0502058342568804 .0036
29576910939195 .001 .0522142231823018 .003325037861003065 .001 .0525626086190972
 .0032656147108993 .001 .0526336554928554 .00323781899942123 .001 41 3 CI8 term_
use0 0 1 cCZ1 199 L?.0502058342568804 .003629576910939195 .001 41 1 200 L?.05263
36554928554 .00323781899942123 .001 204 2 17 INTERSECTION_DATA17 Intersection da
ta7 uv_type0 0 1 u6 values0 1 1 fT16 201 4 .392826637281489 5e-4 .11077420396115
4 .03323572922002445 .414378785928832 5e-4 .1127825928865754 .0329311901700883 .
4184161760650175 5e-4 .1131309783233708 .03287176701998455 .419949779147229 5e-4
 .113202025197129 .03284397130850645 14 255 106 1321 208 ?209 17 101 4 197 +0 0
 209 17 24 51 255 206 1239 0 209 210 197 0 --.102059052666504 .0419198690081017
 0 0 0 1 .080342969940501 1 0 0 50 178 462 0 17 197 172 0 +-.0605683697042736 -.
02960615230908525 0 0 0 1 1 0 0 141 207 205 211 211 197 38 205 1098 0 1 195 212
 213 -197 5 214 215 216 217 141 211 193 207 207 197 133 212 1107 0 26 205 22 0 +
22 .0510338707969938 .0035040188290126 .001 .0510338707969938 .0035040188290126
 0 0 .001 141 213 195 213 213 205 40 2 214 0 1 2 .01524911363514385 .25536880353
4693 ??.0767668103179883 .00463511885497815 .001 .03416499982192845 .00275685702
0580135 .001 41 1 215 L?.0767668103179883 .00463511885497815 .001 41 1 216 L?.03
416499982192845 .002756857020580135 .001 204 8 217 4 .137335180022262 .034241271
1640634 .763958660002748 -5e-4 .0947333695262021 .03236300932966535 .84297883065
8884 -5e-4 16 26 1099 0 ?32 9 204 212 0 0 1 30 22 1108 0 1 212 6 218 +.051033870
7969938 .0035040188290126 .001 0 0 -1 141 218 212 218 218 22 16 204 1090 0 ?33 2
6 202 195 0 0 1 17 33 0 35 32 219 10 53 204 0 220 +16 202 1088 0 ?220 204 221 19
4 0 0 1 17 220 0 101 53 222 10 30 202 0 0 +16 221 1078 0 ?31 202 223 186 0 0 1 1
7 31 0 29 27 224 28 61 221 0 225 +16 223 1076 0 ?225 221 166 187 0 0 1 133 186 1
082 0 221 226 184 0 +184 .0526336554928554 .00323781899942123 0 .051033870797002
6 .00350401882901127 0 .02827558052341115 .02665188078639935 134 226 901 0 1 21
 186 227 +228 229 134 21 895 0 1 230 226 231 +232 233 141 227 182 227 227 226 13
6 228 3 27 3 23 6 FFF1 234 235 236 135 229 2 0 45 81 234 -.1158399729641212 -.03
88232142379074 .000500000000000579 -.1184602713917064 -.0378333413012692 .000500
000000000579 -.1210805698192916 -.036843468364631 .000500000000000579 -.12370086
8246877 -.0358535954279928 .000500000000000579 -.1252898844915482 -.035253311063
46405 .000500000000000579 -.131548620219824 -.03288894178026745 .000500000000000
579 -.1402091231221654 -.0273903679018871 .000500000000000579 -.149680550101386
 -.0195496655093176 .000500000000000579 -.155869607193824 -.0125090116880842 .00
0500000000000579 -.1614608189247835 -.00667442984480137 .000500000000000579 -.16
6749723985618 -.00286462531443538 .000500000000000579 -.1719234556521275 -.00140
7142564172494 .000500000000000579 -.176094825683287 -.001887636190433955 .000500
000000000579 -.179412456349725 -.003710312879217995 .000500000000000579 -.178825
4015124505 -.0067531060384285 .000500000000000579 -.1760568052557425 -.009792414
97458257 .000500000000000579 -.179533545926684 -.00824670312923464 .000500000000
000579 -.181711291600792 -.0059214673553646 .000500000000000579 -.18364842251726
35 .000804295070186747 .000500000000000579 -.1785237504128375 .00597725674786847
 .000500000000000579 -.175225010347602 .01371342694991782 .000500000000000579 -.
1688504398979905 .018687189794201 .000500000000000579 -.1605988862442075 .021390
94829757605 .000500000000000579 -.1473796265293204 .0197535875471692 .0005000000
00000579 -.150688544636534 .0167758305647724 .000500000000000579 -.1024107502420
968 .01650226382111915 .000500000000000579 -.0756315787216645 .01651324630928205
 .000500000000000579 127 25 235 4 3 1 1 1 1 1 1 1 1 1 1 1 1 1 1 1 1 1 1 1 1 4 0
 0 128 25 236 -.03307851040075075 -.01248713732968432 0 .0366965590681743 .06182
01945888367 .0902359470996047 .1054539571624384 .1210599688333502 .1379178772283
986 .142762480210474 .1525389147047825 .160133375852128 .1662921271656465 .16859
7115045816 .181705223873877 .192261521496068 .2153314182569535 .2286935883707735
 .254649970649238 .270199725251457 .29459454673437 .3307851040075075 .3638636144
08258 ??67 182 900 0 237 179 180 0 +226 -267423801730589e-28 1328023652734394e-3
0 1 .002880583892541055 14 237 3 238 ?85 239 240 4 182 -0 0 85 239 24 67 179 894
 0 239 172 182 0 +21 0 0 -1 .1650950503066585 14 239 13 241 ?237 177 35 4 179 -0
 0 237 177 24 81 2 241 1563 242 239 243 0 244 238 245 246 14 177 100 244 ?239 20
9 29 4 172 -0 0 239 209 24 15 35 1114 0 36 239 0 13 24 2 0 0 0 0 0 0 8 17 14 17
 1334 247 ?106 0 248 4 178 -0 0 106 0 24 81 2 247 1551 242 17 249 0 0 208 250 25
1 15 248 1333 0 89 17 0 17 89 0 248 252 92 48 64 90 0 151 -17 252 0 248 253 89 4
4 151 132 0 131 -17 92 0 248 89 254 45 70 120 0 0 -17 151 0 240 109 131 48 252 1
32 0 0 +15 240 4 0 107 237 0 17 109 0 240 107 151 73 50 138 0 0 -17 131 0 240 15
1 107 44 255 129 0 0 +17 107 0 240 131 109 41 88 108 0 0 -17 255 0 35 219 47 41
 131 129 0 107 -17 219 0 35 33 255 51 43 133 0 0 -17 47 0 35 255 36 44 253 137 0
 252 +17 36 0 35 47 32 54 225 223 0 253 -17 253 0 248 225 252 54 47 137 0 0 -17
 225 0 248 61 253 28 36 223 0 0 +17 61 0 248 37 225 58 31 221 0 224 -17 37 0 248
 126 61 34 224 166 0 256 -17 224 0 29 31 256 58 37 166 0 0 +15 29 1120 0 30 177
 0 17 256 0 29 224 57 34 165 163 0 257 -16 166 104 0 ?224 223 163 258 0 0 1 133
 258 887 0 166 171 230 0 +230 -.093433986616414 -.0379587955682269 0 .0526336554
928555 .00323781899942121 0 .4176940805333975 .793643849505471 134 171 886 0 1 1
67 258 259 +260 261 134 230 888 0 1 258 21 262 +263 264 141 262 258 262 262 230
 136 263 3 9 3 7 1 FFF1 265 266 267 135 264 2 0 45 27 265 -.093433986616414 -.03
79587955682269 0 -.0765437632375598 -.0361350383356511 0 -.0483281830620305 -.02
57310497870614 0 -.01728593480618625 -.00842638032248224 0 .00892347932043565 -.
00226278385318526 0 .02730303444220935 -.0002269545598686675 0 .0526452413885354
 .002750594391969265 0 .0526656588332777 .00321763042544416 0 .0526336554928555
 .00323781899942121 0 127 7 266 4 1 1 1 1 1 4 128 7 267 .4176940805333975 .54204
817322018 .629481896941799 .682717143874962 .730406914919634 .790529268496363 .7
93643849505471 141 259 167 259 259 171 136 260 3 9 3 7 1 FFF1 268 269 270 135 26
1 2 0 45 27 268 -.0934339866154683 -.0379587955680886 .001 -.0765437632369389 -.
03613503833542215 .001 -.0483281830617576 -.0257310497869092 .001 -.017285934806
18625 -.00842638032248224 .001 .00892347932043565 -.00226278385318526 .001 .0273
0303444220935 -.0002269545598686675 .001 .0526452413885354 .002750594391969265 .
001 .0526656588332777 .00321763042544416 .001 .0526336554928555 .003237818999421
21 .001 127 7 269 4 1 1 1 1 1 4 128 7 270 .4176940805357275 .54204817322018 .629
481896941799 .682717143874962 .730406914919634 .790529268496363 .793643849505471
 17 57 0 29 256 30 38 222 158 0 271 -17 165 0 272 128 257 38 256 163 0 0 +17 257
 0 272 165 273 34 126 124 0 0 -15 272 1305 0 273 209 0 17 273 0 272 257 128 65 2
5 9 0 126 -17 126 0 248 254 37 65 257 124 0 0 +17 254 0 248 92 126 68 67 93 0 0
 -17 67 0 274 25 99 65 254 93 0 273 +15 274 1479 0 67 275 0 17 25 0 274 100 67 7
1 273 9 0 102 +17 99 0 274 67 100 68 78 94 0 254 -17 100 0 274 99 25 76 102 104
 0 96 -17 102 0 101 271 96 71 100 104 0 128 +17 271 0 101 222 102 38 128 122 0 1
65 -17 128 0 272 273 165 71 271 122 0 0 +17 222 0 101 220 271 56 57 158 0 0 +16
 158 98 0 ?222 163 137 167 0 0 1 14 275 1472 276 ?0 98 274 4 277 +0 0 0 98 24 81
 2 276 1575 242 275 278 0 279 0 280 281 14 98 1466 279 ?275 85 91 4 282 +0 0 275
 85 24 50 277 1500 0 275 0 282 0 +-.1255939866154686 -.0383134347064643 -.242768
501557914 -1 0 0 0 0 1 50 282 1499 0 98 277 210 0 +-.1284339866154686 -.01797054
987365175 -.242768501557914 0 -1 0 0 0 -1 50 210 1498 0 85 282 206 0 +-.12843398
66154686 -.03397054987365175 -.242768501557914 1 0 0 0 0 -1 14 85 1458 283 ?98 2
37 81 4 210 +0 0 98 237 24 81 2 283 1569 242 85 284 0 238 279 285 286 80 7 CCCCC
DI12 legal_owners0 16 1 lCZ2 242 287 288 8014 0 0 0 0 3 5 0 0 0 FFFFTFFFFFFFFFFF
2 1 81 1 284 1568 289 85 290 283 291 292 293 81 2 238 1566 242 237 291 0 241 283
 294 295 81 2 279 1572 242 98 292 0 283 276 296 297 83 255 1 285 0 82 255 1 286
 0 81 1 292 1571 289 98 298 279 284 278 299 83 1 296 0 82 1 297 0 80 1 289 242 3
00 8015 0 0 0 0 3 5 0 0 0 FFFFTFFFFFFFFFFF2 81 1 298 1570 301 98 302 292 290 303
 304 81 1 278 1574 289 275 303 276 292 0 305 83 1 299 0 81 1 303 1573 301 275 30
6 278 298 0 307 83 1 305 0 80 1 301 0 308 8001 0 0 0 0 3 5 0 0 0 FFFFTFTFFFFFFFF
F2 81 1 306 1548 309 275 310 303 302 0 0 83 3 307 .505882382392883 .529411792755
127 .549019634723663 80 1 309 112 311 9000 1 1 1 1 1 1 1 1 0 FFFFTFTTFFFFFFFF1 8
1 3 310 1473 312 275 313 306 314 315 316 317 0 81 1 302 1547 309 98 318 298 319
 306 0 81 1 318 1467 320 98 314 302 321 313 322 81 1 319 1546 309 85 323 290 324
 302 0 81 3 323 1459 312 85 321 319 325 326 327 328 0 81 1 290 1567 301 85 319 2
84 329 298 330 81 1 324 1545 309 237 331 329 332 319 0 81 1 331 1162 320 237 333
 324 334 335 336 81 1 329 1564 301 237 324 291 337 290 338 81 1 332 1544 309 209
 339 340 341 324 0 14 209 1307 342 ?177 106 272 4 206 -0 0 177 106 24 81 3 339 1
309 312 209 335 332 333 343 344 345 0 81 1 340 1555 301 209 332 346 347 348 349
 81 1 341 1543 309 106 350 347 351 332 0 81 3 350 1325 312 106 352 341 343 353 3
54 355 0 81 1 347 1552 301 106 341 356 357 340 358 81 1 351 1542 309 17 325 357
 359 341 0 81 3 325 1338 312 17 360 351 353 323 361 362 0 81 1 357 1549 301 17 3
51 249 0 347 363 81 1 359 1293 309 177 364 348 365 351 0 81 1 364 1159 320 177 3
66 359 0 334 367 81 1 348 1558 301 177 359 368 340 337 369 81 1 365 1169 309 239
 334 337 0 359 0 81 1 334 1161 320 239 370 365 364 331 371 81 1 337 1561 301 239
 365 243 348 329 372 81 1 243 1562 289 239 337 241 368 291 373 83 3 372 .5058823
82392883 .529411792755127 .549019634723663 81 1 368 1559 289 177 348 244 346 243
 374 81 1 291 1565 289 237 329 238 243 284 375 83 1 373 0 83 1 375 0 81 2 244 15
60 242 177 368 0 342 241 376 377 81 1 346 1556 289 209 340 342 356 368 378 83 1
 374 0 81 2 342 1557 242 209 346 0 208 244 379 380 81 1 356 1553 289 106 347 208
 249 346 381 83 1 378 0 81 2 208 1554 242 106 356 0 247 342 382 383 81 1 249 155
0 289 17 357 247 0 356 384 83 1 381 0 83 1 384 0 83 1 382 0 82 1 383 0 83 1 379
 0 82 1 380 0 83 1 376 0 82 1 377 0 80 1 320 385 386 9000 0 0 0 0 3 6 0 0 0 FFFF
TFFFFFFFFFFF1 81 3 370 1012 312 239 0 334 366 333 387 388 0 82 1 371 328 80 3 31
2 389 390 9000 0 0 0 0 3 6 0 0 0 FFFFTFTTFFFFFFFF1 1 3 81 3 366 992 312 177 0 36
4 0 370 391 392 0 81 3 333 1014 312 237 0 331 370 339 393 394 0 82 1 387 0 82 1
 388 18 82 1 393 0 82 1 394 19 82 1 391 0 82 1 392 8 79 255 27 390 MONIKER/MONIK
ER_DATA_ATTRIB79 23 386 SolidEdge/MNKR_ATTR_CID83 3 369 .505882382392883 .529411
792755127 .549019634723663 82 1 367 328 83 3 363 .505882382392883 .5294117927551
27 .549019634723663 81 1 360 1337 320 17 395 325 395 321 396 81 3 353 1335 312 1
7 0 395 350 325 397 398 0 82 1 361 0 82 1 362 7 81 1 395 1336 320 17 353 360 352
 360 399 82 1 397 2 82 1 398 0 81 1 352 1324 320 106 400 350 400 395 401 82 1 39
9 1063 81 1 400 1323 320 106 343 352 335 352 402 82 1 401 328 81 3 343 1322 312
 106 0 400 339 350 403 404 0 81 1 335 1308 320 209 0 339 331 400 405 82 1 402 10
63 82 1 405 1063 82 1 403 2 82 1 404 1 81 1 321 1461 320 85 326 323 360 318 406
 82 1 396 328 81 3 326 1464 312 85 0 321 323 314 407 408 0 82 1 406 1367 81 3 31
4 1470 312 98 0 318 326 310 409 410 0 82 1 407 3 82 1 408 10 82 1 409 3 82 1 410
 9 83 3 358 .505882382392883 .529411792755127 .549019634723663 82 1 354 0 82 1 3
55 9 83 3 349 .505882382392883 .529411792755127 .549019634723663 82 1 344 3 82 1
 345 2 83 3 338 .505882382392883 .529411792755127 .549019634723663 82 1 336 328
 83 3 330 .505882382392883 .529411792755127 .549019634723663 82 1 327 3 82 1 328
 11 81 1 313 1475 320 275 315 310 318 0 411 82 1 322 1367 81 3 315 1478 312 275
 0 313 310 0 412 413 0 82 1 411 1367 82 1 412 3 82 1 413 7 82 1 316 3 82 1 317 8
 79 17 311 SolidEdge/Display79 15 308 SDL/TYSA_COLOUR83 3 304 .505882382392883 .
529411792755127 .549019634723663 79 21 300 SDL/TYSA_TRANSLUCENCY83 1 294 0 82 1
 295 0 83 1 293 0 79 21 288 SDL/TYSA_REFLECTIVITY83 1 280 0 82 1 281 0 17 30 0 2
9 57 27 56 220 202 0 222 -17 43 0 101 88 53 41 219 133 0 255 +17 53 0 101 43 220
 51 33 204 0 219 -17 50 0 81 64 75 48 109 138 0 89 +17 70 0 91 78 82 68 92 120 0
 99 +83 1 250 0 82 1 251 0 83 1 245 0 82 1 246 0 141 231 179 414 414 21 136 232
 3 18 3 12 6 FFF1 415 416 417 135 233 1 0 45 54 415 .0510338707970072 .003504018
82901319 5e-4 .0484642943147836 .00339107222905743 5e-4 .04589471783256 .0032781
25629101665 5e-4 .04332514135033635 .0031651790291459 5e-4 .0404979036662844 .00
304090684425879 5e-4 .0348571882795909 .00278978158708753 5e-4 .0263437481951157
5 .00240083655500144 5e-4 .012601726279497 .00185348596507857 5e-4 -.01848264697
467 .00698146961339649 5e-4 -.0556445108253664 .01498887950647766 5e-4 -.0835555
581837725 .0209959775651875 5e-4 -.1114469705017246 .0165288345421634 5e-4 -.137
4370385921764 .0170274616100735 5e-4 -.1439076688003662 .01768962708138485 5e-4
 -.1465820800003632 .01796331027695445 5e-4 -.1473345290394564 .0180403113968729
 5e-4 -.1480869780785496 .01811731251679135 5e-4 -.1488394271176426 .01819431363
670985 5e-4 127 12 416 4 3 1 1 1 1 1 1 1 1 3 4 128 12 417 .811883647876046 .8262
40374007121 .842036703642837 .857215919087379 .871308045764146 .924768036430711
 .93465528907007 .963498073324417 .982501087689906 1 1.012327868062638 1.0157963
29635716 141 414 5 231 231 21 133 187 1085 0 223 184 203 0 +203 .034164999821928
45 .002756857020580135 0 .0510338707970028 .003504018829012995 0 .04264319553059
725 .0257577862381615 38 203 1086 0 1 187 194 418 -5 180 419 420 421 422 141 418
 187 418 418 203 40 2 419 0 1 2 .01524911363514385 .255368803534693 ??.076766810
3179883 .00463511885497815 0 .03416499982192845 .002756857020580135 0 41 1 420 L
?.0767668103179883 .00463511885497815 0 41 1 421 L?.03416499982192845 .002756857
020580135 0 204 8 422 4 .763958660002748 5e-4 .137335180022262 .0342412711640634
 .842978830658884 5e-4 .0947333695262021 .03236300932966535 141 188 186 188 188
 184 40 4 189 .02581437893940745 1 4 .01278184304595418 .3560498573309685 ??.050
2058342568804 .003629576910939195 0 .0522142231823015 .003325037861003115 0 .052
5626086190972 .003265614710899295 0 .0526336554928554 .00323781899942123 0 41 1
 190 L?.0502058342568804 .003629576910939195 0 41 1 191 L?.0526336554928554 .003
23781899942123 0 204 16 192 4 .110774203961154 .03323572922002445 .3928266372814
895 -5e-4 .112782592886575 .03293119017008835 .4143787859288285 -5e-4 .113130978
3233708 .03287176701998455 .4184161760650175 -5e-4 .113202025197129 .03284397130
850645 .419949779147229 -5e-4 141 183 184 423 423 180 141 423 203 183 183 180 81
 1 113 1180 112 122 0 0 0 110 424 80 1 112 425 426 9000 0 0 0 0 3 6 0 0 0 FFFFTF
TTFFFFFFFF1 82 1 424 17 79 27 426 SolidEdge/MNKR_ATTR_TYPE_EX81 1 117 1406 112 1
04 0 0 103 0 427 81 1 103 1400 112 97 0 0 110 117 428 82 1 427 17 82 1 428 17 82
 1 114 17 19 18 131 0 1 0 8 4 0 S0 141 20 203 429 429 5 141 429 205 20 20 5 74 4
 CI16 index_map_offset0 0 1 dCCZ20 16 12 0 0 430 431 432 315 313 433 306 117 2 3
03 278 276 0 0 0 0 0 0 0 0 81 1 430 588 434 1 0 431 0 0 435 81 1 431 589 436 1 4
30 432 0 0 437 81 4 432 590 438 1 431 433 0 0 439 440 441 442 81 2 433 1036 443
 1 432 444 0 0 445 446 80 2 443 11 447 9000 2 2 2 2 3 6 0 0 0 FFTFFFFFFFFFFFFF2
 3 81 3 444 1539 11 1 433 12 0 12 448 449 450 83 2 445 1 6 84 255 21 446 SE 221.
0.0.114 Type8680 3 11 451 452 9000 0 0 0 0 3 6 0 0 0 FFTFFFFFFFFFFFFF3 3 1 81 3
 12 1540 11 1 444 2 444 2 453 454 455 84 38 448 {5054020f-8e58-4d71-9fc9-a8afaa4
3123d}84 2 449 SE82 1 450 0 84 38 453 {a48358e1-0c19-4a8b-b99d-d356fabf7371}84 2
 454 SE82 1 455 2 79 25 452 MONIKER/GUID_TABLE_ATTRIB79 22 447 MONIKER/BODY_ID_A
TTRIB80 4 438 456 457 8042 0 0 0 0 3 6 0 0 0 TTTTTTTTTTTTTTFF10 10 10 1 98 255 2
 439 45 49 98 2 440 45 49 98 2 441 45 49 82 1 442 0 79 14 457 SDL/TYSA_LAYER80 1
 436 434 458 8038 0 0 0 0 0 0 0 0 0 TTTTTTTTTTTTTFTF10 98 12 437 67 117 116 45 6
9 120 116 114 117 100 101 49 79 14 458 SDL/TYSA_UNAME80 1 434 438 459 8017 0 0 0
 0 0 0 0 0 0 TTTTTTTTTTTTTFTF3 84 12 435 Cut-Extrude179 13 459 SDL/TYSA_NAME84 3
8 13 {93559b78-1ed3-421f-b3de-b5fc303d1a6f}84 2 14 SE82 1 15 3 1 0 
