**ABCDEFGHIJKLMNOPQRSTUVWXYZabcdefghijklmnopqrstuvwxyz**************************
**PARASOLID !"#$%&'()*+,-./:;<=>?@[\]^_`{|}~0123456789**************************
**PART1;
MC=KTH-12182;
MC_MODEL=unknown;
MC_ID=unknown;
OS=Windows NT;
OS_RELEASE=6.2;
FRU=Unigraphics Solutions;
APPL=SolidEdge;
SITE=Huntsville, AL;
USER=rimmie
FORMAT=text;
GUISE=transmit;
KEY=C:\Users\rimmie\OneDrive - KTH\PhD\Course work\MF2104- Mechatronics\mechatronic-project\CAD_files-frame\bird-wings-mechanism-1.snapshot.3\bird wings\Bird-Assembly\link-right;
FILE=C:\Users\rimmie\OneDrive - KTH\PhD\Course work\MF2104- Mechatronics\mechatronic-project\CAD_files-frame\bird-wings-mechanism-1.snapshot.3\bird wings\Bird-Assembly\link-right.x_t;
DATE=fre, dec 02 22;
**PART2;
SCH=SCH_3400153_34001;
USFLD_SIZE=0;
**PART3;
**END_OF_HEADER*****************************************************************
T51 : TRANSMIT FILE created by modeller version 340015323 SCH_3400153_34001_1300
6231 0 12 36 CCCI7 lattice222 0 CCCI4 mesh1006 0 I8 polyline1008 0 CCCCCCCDI5 ow
ner1040 0 CCCI16 boundary_lattice222 0 CCCI13 boundary_mesh1006 0 I17 boundary_p
olyline1008 0 CCCA16 index_map_offset0 0 1 dA9 index_map82 0 A17 node_id_index_m
ap82 0 A20 schema_embedding_map82 0 A5 child12 0 A14 lowest_node_id0 0 1 dA16 me
sh_offset_data206 0 Z1 250 2 3 0 0 0 0 0 0 0 1e3 1e-8 0 4 0 1 0 1 1 5 0 6 7 8 0
 0 9 10 11 0 0 0 0 0 0 0 81 255 3 2 223 12 1 13 0 0 0 14 15 16 70 11 CI9 list_ty
pe0 0 1 uI10 notransmit0 0 1 lCCCDCCDI12 finger_index0 0 1 dI12 finger_block1012
 0 CZ3 0 4 T1 0 0 11 20 1 17 17 13 255 5 4 0 1 0 18 0 0 19 0 51 255 6 80 0 20 21
 0 0 +0 .0508 0 0 0 -1 .00508 1 0 0 31 255 7 120 0 22 23 0 0 +0 .050800000000050
8 .0030480000000508 0 0 1 -1 0 0 .0038100000000508 29 255 8 96 0 24 25 0 -.00507
321508009357 .0505375333333331 .003048 19 9 CCCCCCI5 frame230 0 CA5 owner12 0 Z9
 2 0 1 19 0 26 0 V0 16 255 10 22 0 ?27 0 28 29 0 0 1 18 255 11 8 0 30 0 31 32 ?1
 17 255 30 0 33 34 35 11 36 37 0 38 +18 31 11 0 39 11 40 41 ?1 29 32 85 0 11 42
 43 .0019304 0 0 29 42 83 0 44 0 32 .00507321508009357 .0505375333333331 .003048
 29 43 87 0 45 32 46 .00507321508009357 .0505375333333331 0 18 45 9 0 47 40 44 4
3 ?1 29 46 88 0 40 43 41 -.00507321508009357 .0505375333333331 0 18 40 13 0 48 3
1 45 46 ?1 29 41 90 0 31 46 49 -.0019304 78801939369135e-33 0 29 49 91 0 50 41 2
5 -.0019304 78801939369135e-33 .003048 18 50 30 0 51 52 24 49 ?1 29 25 95 0 52 4
9 8 .0019304 0 .003048 18 52 25 0 53 44 50 25 ?1 17 53 0 54 55 27 52 56 57 0 34
 -18 44 23 0 56 45 52 42 ?1 17 56 0 58 59 60 44 53 57 0 27 +15 255 58 56 0 61 62
 63 17 59 0 58 61 56 24 64 65 0 0 +17 60 0 58 56 61 52 51 66 0 0 +16 57 24 0 ?56
 66 65 67 0 0 1 17 27 0 54 53 68 44 69 10 0 64 +15 54 21 0 27 70 0 17 68 0 54 27
 55 45 38 28 0 69 +17 69 0 71 48 64 45 27 10 0 0 -17 64 0 71 69 72 44 59 65 0 0
 -15 71 38 0 72 20 0 17 72 0 71 64 48 24 73 74 0 59 +16 65 39 0 ?59 57 75 76 0 0
 1 16 75 44 0 ?77 65 22 78 0 0 1 31 76 98 0 65 79 78 0 +0 .0508000000000508 .003
0480000000508 0 0 1 .998664385844701 -.0516666666761694 0 .00508000000005336 30
 255 79 97 0 28 0 76 0 +.0019304000000508 0 0 .0620678397885859 .998071932910639
 0 31 78 99 0 75 76 67 0 +0 0 .0030480000000508 0 0 -1 -1 0 0 .0012700000000508
 30 67 100 0 57 78 80 0 +.0019304000000508 0 .0030480000000508 .0620678397885859
 .998071932910639 0 31 80 101 0 37 67 81 0 +0 0 0 0 0 1 -1 0 0 .0019304000000508
 16 37 10 0 ?30 82 83 80 0 0 1 31 81 102 0 66 80 84 0 +0 0 .0030480000000508 0 0
 1 -1 0 0 .0019304000000508 16 66 29 0 ?60 85 57 81 0 0 1 30 84 104 0 83 81 86 0
 +-.0019304000000508 508002364058181e-28 0 0 0 1 16 83 31 0 ?87 37 88 84 0 0 1 3
1 86 105 0 89 84 29 0 +0 .0508000000000508 0 0 0 1 .998664385844701 -.0516666666
761694 0 .00508000000005336 16 89 14 0 ?48 74 90 86 0 0 1 30 29 106 0 10 86 91 0
 +.00507321508014437 .0505375333333839 0 0 0 1 31 91 110 0 90 29 92 0 +0 0 0 0 0
 -1 -1 0 0 .0012700000000508 16 90 16 0 ?93 89 85 91 0 0 1 30 92 111 0 74 91 94
 0 +-.00507321508014437 .0505375333333839 0 0 0 1 16 74 36 0 ?72 88 89 92 0 0 1
 30 94 112 0 85 92 95 0 +-.00507321508014437 .0505375333333839 .0030480000000508
 .0620678397885859 -.998071932910639 0 16 85 34 0 ?61 90 66 94 0 0 1 30 95 113 0
 82 94 96 0 +.0019304000000508 0 0 0 0 1 16 82 26 0 ?34 28 37 95 0 0 1 31 96 116
 0 97 95 23 0 +0 .0508000000000508 .0132080000000508 0 0 1 -1 0 0 .0038100000000
508 16 97 62 0 ?98 22 0 96 0 0 1 30 23 118 0 88 96 7 0 +-.00507321508014437 .050
5375333333839 0 .0620678397885859 -.998071932910639 0 16 88 12 0 ?39 83 74 23 0
 0 1 17 39 0 99 87 73 31 100 88 0 36 +15 99 33 0 87 101 0 17 87 0 99 102 39 50 3
5 83 0 61 +17 73 0 99 39 102 40 72 74 0 0 -17 100 0 103 47 36 40 39 88 0 73 -17
 36 0 103 100 38 31 30 37 0 35 -15 103 6 0 38 18 104 17 38 0 103 36 47 11 68 28
 0 55 -17 35 0 33 30 51 31 87 83 0 0 -15 33 28 0 34 105 0 17 51 0 33 35 34 50 60
 66 0 87 -17 34 0 33 51 30 52 55 82 0 60 +17 55 0 54 68 53 11 34 82 0 0 -14 255
 105 27 106 ?101 70 33 5 107 +0 0 101 70 26 81 2 106 232 108 105 109 0 110 111 1
12 113 14 101 32 111 ?20 105 99 5 114 +0 0 20 105 26 14 70 20 110 ?105 18 54 5 1
15 +0 0 105 18 26 51 107 76 0 105 116 117 0 +0 0 0 0 0 -1 .0019304 1 0 0 13 26 3
 0 0 0 0 0 0 9 18 14 18 5 118 ?70 0 103 5 117 -0 0 70 0 26 81 2 118 226 108 18 1
19 0 0 110 120 121 50 255 117 77 0 18 107 21 0 +0 0 0 0 0 1 1 0 0 51 21 78 0 122
 117 6 0 +0 0 0 0 0 -1 .00127 1 0 0 14 122 40 123 ?62 20 124 5 21 -0 0 62 20 26
 81 2 123 241 108 122 125 0 126 127 128 129 14 62 50 127 ?130 122 131 5 132 +0 0
 130 122 26 14 20 37 126 ?122 101 71 5 6 +0 0 122 101 26 15 124 135 0 133 122 13
4 17 133 0 124 133 133 0 77 75 0 0 -15 134 41 0 93 122 0 17 93 0 134 93 93 0 135
 90 0 0 +17 135 0 104 135 135 0 93 90 0 0 -15 104 15 0 135 18 0 17 77 0 63 77 77
 0 133 75 0 0 +15 63 57 0 77 62 0 81 2 126 238 108 20 136 0 111 123 137 138 80 7
 CCCCCDI12 legal_owners0 16 1 lCZ2 108 139 140 8014 0 0 0 0 3 5 0 0 0 FFFFTFFFFF
FFFFFF2 1 81 1 136 237 141 20 142 126 143 125 144 81 2 111 235 108 101 143 0 106
 126 145 146 83 255 1 137 0 82 255 1 138 0 81 1 143 234 141 101 147 111 109 136
 148 83 1 145 0 82 1 146 0 80 1 141 108 149 8015 0 0 0 0 3 5 0 0 0 FFFFTFFFFFFFF
FFF2 81 1 147 233 150 101 151 143 152 142 153 81 1 109 231 141 105 152 106 154 1
43 155 83 1 148 0 81 1 152 230 150 105 156 109 157 147 158 81 1 154 228 141 70 1
57 110 119 109 159 83 1 155 0 81 1 157 227 150 70 160 154 161 152 162 81 2 110 2
29 108 70 154 0 118 106 163 164 81 1 119 225 141 18 161 118 0 154 165 83 1 159 0
 81 1 161 224 150 18 166 119 0 157 167 83 1 165 0 80 1 150 0 168 8001 0 0 0 0 3
 5 0 0 0 FFFFTFTFFFFFFFFF2 81 1 166 217 169 18 170 161 160 171 172 83 3 167 .505
882382392883 .529411792755127 .549019634723663 80 1 169 173 174 9000 0 0 0 0 3 6
 0 0 0 FFFFTFFFFFFFFFFF1 81 1 170 205 175 18 176 166 0 177 0 81 1 160 216 169 70
 177 157 151 166 178 81 1 171 218 169 122 179 180 166 181 182 82 1 172 346 81 1
 179 210 175 122 183 171 184 185 0 81 1 180 239 150 122 171 125 142 186 187 81 1
 181 219 169 62 185 186 171 188 189 82 1 182 346 81 1 185 211 175 62 190 181 179
 191 0 81 1 186 242 150 62 181 192 180 193 194 81 1 188 220 169 20 184 142 181 1
95 196 82 1 189 346 81 1 184 209 175 20 197 188 198 179 0 81 1 142 236 150 20 18
8 136 147 180 199 81 1 195 221 169 130 191 193 188 200 201 82 1 196 346 14 130 5
8 202 ?203 62 204 5 205 +0 0 203 62 26 81 1 191 212 175 130 206 195 185 207 0 81
 1 193 245 150 130 195 208 186 209 210 81 1 200 222 169 203 207 209 195 0 211 82
 1 201 346 14 203 68 212 ?0 130 213 5 116 +0 0 0 130 26 81 1 207 213 175 203 214
 200 191 0 0 81 1 209 248 150 203 200 215 193 0 216 82 1 211 346 81 1 215 249 14
1 203 209 212 208 0 217 83 3 216 .505882382392883 .529411792755127 .549019634723
663 81 2 212 250 108 203 215 0 202 0 218 219 81 1 208 246 141 130 193 202 192 21
5 220 83 1 217 0 81 2 202 247 108 130 208 0 127 212 221 222 81 1 192 243 141 62
 186 127 125 208 223 83 1 220 0 81 2 127 244 108 62 192 0 123 202 224 225 81 1 1
25 240 141 122 180 123 136 192 226 83 1 223 0 83 1 226 0 83 1 224 0 82 1 225 0 8
3 1 221 0 82 1 222 0 83 1 218 0 82 1 219 0 80 1 175 227 228 9000 1 1 1 1 1 1 1 1
 0 FFFFTFTTFFFFFFFF1 81 3 214 154 229 203 0 207 206 0 230 231 0 80 3 229 232 233
 9000 0 0 0 0 3 6 0 0 0 FFFFTFTTFFFFFFFF1 1 3 81 3 206 152 229 130 0 191 190 214
 234 235 0 82 1 230 0 82 1 231 8 81 3 190 150 229 62 0 185 183 206 236 237 0 82
 1 234 0 82 1 235 7 81 3 183 148 229 122 0 179 197 190 238 239 0 82 1 236 0 82 1
 237 6 81 3 197 146 229 20 0 184 240 183 241 242 0 82 1 238 0 82 1 239 5 81 3 24
0 144 229 101 0 198 243 197 244 245 0 82 1 241 0 82 1 242 4 81 1 198 208 175 101
 240 151 246 184 0 81 3 243 142 229 105 0 246 247 240 248 249 0 82 1 244 0 82 1
 245 3 81 1 246 207 175 105 243 156 177 198 0 81 3 247 140 229 70 0 177 176 243
 250 251 0 82 1 248 0 82 1 249 2 81 1 177 206 175 70 247 160 170 246 0 81 3 176
 137 229 18 0 170 0 247 252 253 0 82 1 250 0 82 1 251 1 82 1 252 0 82 1 253 0 81
 1 156 214 169 105 246 152 0 151 254 81 1 151 215 169 101 198 147 156 160 255 82
 1 254 346 82 1 255 346 79 255 27 233 MONIKER/MONIKER_DATA_ATTRIB79 17 228 Solid
Edge/Display15 213 69 0 98 203 0 50 116 75 0 203 114 107 0 +0 0 .013208 0 0 1 1
 0 0 50 114 73 0 101 205 116 0 +-.00507321508009357 .0505375333333331 0 -.998071
93291122 -.0620678397792439 0 .0620678397792439 -.99807193291122 0 51 205 72 0 1
30 132 114 0 +0 .0508 .003048 0 0 -1 .00381 1 0 0 50 132 71 0 62 115 205 0 +0 0
 .003048 0 0 1 1 0 0 50 115 70 0 70 0 132 0 +.0019304 0 0 .99807193291122 -.0620
678397792439 0 .0620678397792439 .99807193291122 0 17 98 0 213 98 98 0 256 97 0
 0 +17 256 0 204 256 256 0 98 97 0 0 -15 204 136 0 256 130 257 15 257 59 0 258 1
30 0 17 258 0 257 258 258 0 259 22 0 0 +17 259 0 131 259 259 0 258 22 0 0 -16 22
 52 0 ?258 75 97 7 0 0 1 15 131 51 0 259 62 58 83 3 210 .505882382392883 .529411
792755127 .549019634723663 83 3 199 .505882382392883 .529411792755127 .549019634
723663 83 3 194 .505882382392883 .529411792755127 .549019634723663 83 3 187 .505
882382392883 .529411792755127 .549019634723663 82 1 178 346 79 23 174 SolidEdge/
MNKR_ATTR_CID79 15 168 SDL/TYSA_COLOUR83 1 163 0 82 1 164 0 83 3 162 .5058823823
92883 .529411792755127 .549019634723663 83 3 158 .505882382392883 .5294117927551
27 .549019634723663 83 3 153 .505882382392883 .529411792755127 .549019634723663
 79 21 149 SDL/TYSA_TRANSLUCENCY83 1 144 0 79 21 140 SDL/TYSA_REFLECTIVITY83 1 1
28 0 82 1 129 0 83 1 120 0 82 1 121 0 83 1 112 0 82 1 113 0 17 47 0 103 38 100 4
5 48 89 0 68 -16 28 7 0 ?68 10 82 79 0 0 1 17 48 0 71 72 69 40 47 89 0 100 +17 1
02 0 99 73 87 24 61 85 0 72 -18 24 35 0 102 50 0 8 ?1 17 61 0 58 60 59 50 102 85
 0 0 +19 19 1 0 1 0 9 5 0 S0 74 4 CI16 index_map_offset0 0 1 dCCZ20 17 11 0 0 26
0 261 262 214 13 207 200 2 209 215 212 0 0 0 0 0 0 0 0 0 81 1 260 132 263 1 0 26
1 0 0 264 81 1 261 133 265 1 260 262 0 0 266 81 1 262 134 267 1 261 13 0 0 0 81
 2 13 165 268 1 262 2 0 0 269 270 80 2 268 12 271 9000 2 2 2 2 3 6 0 0 0 FFTFFFF
FFFFFFFFF2 3 83 2 269 1 3 84 255 19 270 SE 222.0.2.3 Type8679 22 271 MONIKER/BOD
Y_ID_ATTRIB80 1 267 272 273 9000 0 0 0 0 3 5 0 0 0 TFTFFFFFFFFFFFFF5 79 21 273 A
TTRIB_XPARASOLID_WCS80 1 265 263 274 8038 0 0 0 0 0 0 0 0 0 TTTTTTTTTTTTTFTF10 9
8 255 5 266 76 73 78 75 50 79 14 274 SDL/TYSA_UNAME80 1 263 275 276 8017 0 0 0 0
 0 0 0 0 0 TTTTTTTTTTTTTFTF3 84 5 264 LINK279 13 276 SDL/TYSA_NAME80 3 12 277 27
8 9000 0 0 0 0 3 6 0 0 0 FFTFFFFFFFFFFFFF3 3 1 84 38 14 {76ab34ff-ee75-467d-9ab4
-b470fe9b8b8c}84 2 15 SE82 1 16 0 79 25 278 MONIKER/GUID_TABLE_ATTRIB1 0 
