**ABCDEFGHIJKLMNOPQRSTUVWXYZabcdefghijklmnopqrstuvwxyz**************************
**PARASOLID !"#$%&'()*+,-./:;<=>?@[\]^_`{|}~0123456789**************************
**PART1;
MC=KTH-12182;
MC_MODEL=unknown;
MC_ID=unknown;
OS=Windows NT;
OS_RELEASE=6.2;
FRU=Unigraphics Solutions;
APPL=SolidEdge;
SITE=Huntsville, AL;
USER=rimmie
FORMAT=text;
GUISE=transmit;
KEY=C:\Users\rimmie\OneDrive - KTH\PhD\Course work\MF2104- Mechatronics\mechatronic-project\CAD_files-frame\bird-wings-mechanism-1.snapshot.3\bird wings\Bird-Assembly_Rimmie\servo-attach;
FILE=C:\Users\rimmie\OneDrive - KTH\PhD\Course work\MF2104- Mechatronics\mechatronic-project\CAD_files-frame\bird-wings-mechanism-1.snapshot.3\bird wings\Bird-Assembly_Rimmie\servo-attach.x_t;
DATE=fre, dec 02 22;
**PART2;
SCH=SCH_3400153_34001;
USFLD_SIZE=0;
**PART3;
**END_OF_HEADER*****************************************************************
T51 : TRANSMIT FILE created by modeller version 340015323 SCH_3400153_34001_1300
6231 0 12 36 CCCI7 lattice222 0 CCCI4 mesh1006 0 I8 polyline1008 0 CCCCCCCDI5 ow
ner1040 0 CCCI16 boundary_lattice222 0 CCCI13 boundary_mesh1006 0 I17 boundary_p
olyline1008 0 CCCA16 index_map_offset0 0 1 dA9 index_map82 0 A17 node_id_index_m
ap82 0 A20 schema_embedding_map82 0 A5 child12 0 A14 lowest_node_id0 0 1 dA16 me
sh_offset_data206 0 Z1 178 2 3 0 0 0 0 0 0 0 1e3 1e-8 0 0 0 1 0 1 1 4 0 5 6 7 0
 0 8 9 10 0 0 0 0 0 0 0 81 255 3 2 148 11 1 12 0 12 0 13 14 15 70 11 CI9 list_ty
pe0 0 1 uI10 notransmit0 0 1 lCCCDCCDI12 finger_index0 0 1 dI12 finger_block1012
 0 CZ3 0 4 T1 0 0 9 20 1 16 16 13 255 4 29 0 1 0 17 0 0 18 0 51 255 5 28 0 17 19
 0 0 -0 .015 0 0 -1 0 .01 0 0 -1 31 255 6 23 0 20 21 0 0 +0 0 0 0 1 0 1 0 0 .01
 29 255 7 138 0 22 23 0 -.0125 0 .0125 19 9 CCCCCCI5 frame230 0 CA5 owner12 0 Z8
 1 0 1 18 0 24 0 V0 16 255 9 5 0 ?25 0 20 21 0 0 1 18 255 10 76 0 26 0 27 28 ?1
 17 255 26 0 29 30 31 10 32 33 0 34 +18 27 75 0 31 10 35 36 ?1 29 28 142 0 10 36
 37 -.0125 -.004 .0125 29 36 143 0 27 38 28 .0125 -.004 .0125 29 37 141 0 39 28
 40 -.0125 0 -.0125 18 39 77 0 41 42 0 37 ?1 29 40 140 0 42 37 23 .0125 0 -.0125
 18 42 70 0 43 44 39 40 ?1 29 23 139 0 44 40 7 .0125 0 .0125 18 44 72 0 45 22 42
 23 ?1 17 45 0 46 47 48 44 49 50 0 51 +18 22 73 0 52 53 44 7 ?1 17 52 0 54 34 51
 22 55 56 0 57 +18 53 71 0 58 35 22 59 ?1 17 58 0 60 61 62 53 63 64 0 30 -18 35
 74 0 63 27 53 38 ?1 29 59 145 0 53 0 38 -.0125 -.004 -.0125 29 38 144 0 35 59 3
6 .0125 -.004 -.0125 17 63 0 29 31 30 35 58 64 0 62 +15 255 29 111 0 30 65 0 17
 31 0 29 26 63 27 66 67 0 47 +17 30 0 29 63 26 53 68 69 0 70 +16 64 67 0 ?63 67
 69 71 0 0 1 17 62 0 60 58 43 35 48 72 0 66 -15 60 94 0 43 73 0 17 43 0 60 62 61
 42 41 74 0 48 +17 48 0 46 45 66 42 62 72 0 49 +16 72 61 0 ?48 75 76 77 0 0 1 17
 66 0 46 48 47 35 31 67 0 0 -15 46 100 0 45 78 0 17 47 0 46 66 45 27 51 76 0 32
 -16 67 68 0 ?31 33 64 79 0 0 1 16 33 69 0 ?26 80 67 81 0 0 1 30 255 79 136 0 67
 71 81 0 +.0125 -.004 -.0125 0 0 1 30 71 137 0 64 0 79 0 +-.0125 -.004 -.0125 1
 0 693889390390723e-31 30 81 135 0 33 79 82 0 +.0125 -.004 .0125 -1 0 6938893903
90723e-31 30 82 134 0 69 81 83 0 +-.0125 -.004 .0125 1387778780781446e-31 0 -1 1
6 69 66 0 ?30 64 56 82 0 0 1 30 83 133 0 74 82 84 0 +-.0125 0 -.0125 1 0 6938893
90390723e-31 16 74 54 85 ?43 50 86 83 0 0 1 30 84 132 0 50 83 87 0 +.0125 0 -.01
25 0 0 1 16 50 58 88 ?45 56 74 84 0 0 1 30 87 131 0 56 84 89 0 +.0125 0 .0125 -1
 0 693889390390723e-31 16 56 62 90 ?52 69 50 87 0 0 1 30 89 130 0 86 87 91 0 +-.
0125 0 .0125 1387778780781446e-31 0 -1 16 86 50 92 ?93 74 0 89 0 0 1 30 91 129 0
 80 89 94 0 +-.0125 -.004 .0125 0 1 0 16 80 53 0 ?57 76 33 91 0 0 1 30 94 128 0
 76 91 77 0 +.0125 -.004 .0125 0 1 0 16 76 65 0 ?51 72 80 94 0 0 1 30 77 127 0 7
2 94 95 0 +.0125 -.004 -.0125 0 1 0 30 95 126 0 75 77 21 0 +-.0125 -.004 -.0125
 0 1 0 16 75 57 0 ?61 20 72 95 0 0 1 31 21 6 0 9 95 6 0 +0 .015 0 0 1 0 1 0 0 .0
1 17 61 0 60 43 58 39 70 75 0 93 +16 20 49 96 ?97 9 75 6 0 0 1 81 1 96 146 98 20
 0 0 90 0 99 17 97 0 100 97 97 0 101 20 0 0 +15 100 26 0 97 17 0 17 101 0 102 10
1 101 0 97 20 0 0 -15 102 116 0 101 103 104 14 255 103 112 105 ?0 65 102 4 106 -
0 0 0 65 24 15 104 117 0 107 103 0 17 107 0 104 55 41 22 93 86 0 0 -17 55 0 104
 49 107 44 52 56 0 0 -17 41 0 104 107 49 39 43 74 0 61 -17 93 0 108 70 57 39 107
 86 0 0 +15 108 88 0 93 109 0 17 70 0 108 68 93 53 61 75 0 0 -17 57 0 108 93 68
 22 34 80 0 107 +17 68 0 108 57 70 10 30 69 0 0 -17 34 0 54 32 52 10 57 80 0 68
 -15 54 106 0 52 110 0 17 32 0 54 51 34 27 26 33 0 0 -17 51 0 54 52 32 44 47 76
 0 55 +14 110 101 111 ?65 78 54 4 112 -0 0 65 78 24 81 2 111 172 113 110 114 0 1
15 116 117 118 14 65 107 116 ?103 110 29 4 119 +0 0 103 110 24 14 78 95 115 ?110
 73 46 4 120 -0 0 110 73 24 50 255 112 123 0 110 106 120 0 +.0125 -.004 .0125 -6
93889390390723e-31 0 -1 -1 0 693889390390723e-31 13 24 3 0 0 0 0 0 0 8 17 14 17
 25 121 ?122 0 123 4 5 -0 0 122 0 24 81 2 121 157 113 17 124 0 0 125 126 127 14
 122 8 125 ?109 17 128 4 19 +0 0 109 17 24 15 123 24 0 129 17 100 17 129 0 123 1
29 129 0 25 9 0 0 -17 25 0 128 25 25 0 129 9 0 0 +15 128 7 0 25 122 0 81 2 125 1
60 113 122 130 0 121 131 132 133 14 109 83 131 ?73 122 108 4 134 -0 0 73 122 24
 50 19 11 0 122 134 5 0 +0 .015 0 0 1 0 0 0 1 50 134 120 0 109 135 19 0 +-.0125
 -.004 .0125 1 0 1387778780781446e-31 1387778780781446e-31 0 -1 50 135 121 0 73
 120 134 0 +-.0125 -.004 -.0125 -693889390390723e-31 0 1 1 0 693889390390723e-31
 14 73 89 136 ?78 109 60 4 135 -0 0 78 109 24 50 120 122 0 78 112 135 0 +.0125 -
.004 -.0125 -1 0 0 0 0 1 81 2 136 166 113 73 137 0 131 115 138 139 80 7 CCCCCDI1
2 legal_owners0 16 1 lCZ2 113 140 141 8014 0 0 0 0 3 5 0 0 0 FFFFTFFFFFFFFFFF2 1
 81 1 137 165 142 73 143 136 144 145 146 81 2 131 163 113 109 144 0 125 136 147
 148 81 2 115 169 113 78 145 0 136 111 149 150 83 255 1 138 0 82 255 1 139 0 81
 1 145 168 142 78 151 115 137 114 152 83 1 149 0 82 1 150 0 80 1 142 113 153 801
5 0 0 0 0 3 5 0 0 0 FFFFTFFFFFFFFFFF2 81 1 151 167 154 78 155 145 143 156 157 81
 1 114 171 142 110 156 111 145 158 159 83 1 152 0 81 1 156 170 154 110 160 114 1
51 161 162 81 1 158 174 142 65 161 116 114 163 164 83 1 159 0 81 1 161 173 154 6
5 165 158 156 166 167 81 2 116 175 113 65 158 0 111 105 168 169 81 1 163 177 142
 103 166 105 158 0 170 83 1 164 0 81 1 166 176 154 103 171 163 161 0 172 81 2 10
5 178 113 103 163 0 116 0 173 174 83 1 170 0 83 1 173 0 82 1 174 0 80 1 154 0 17
5 8001 0 0 0 0 3 5 0 0 0 FFFFTFTFFFFFFFFF2 81 1 171 154 176 103 177 166 165 0 0
 83 3 172 .505882382392883 .529411792755127 .549019634723663 80 1 176 98 178 900
0 1 1 1 1 1 1 1 1 0 FFFFTFTTFFFFFFFF1 81 1 177 113 179 103 180 171 181 0 182 81
 1 165 153 176 65 181 161 160 171 0 81 1 181 108 179 65 183 165 184 177 185 81 1
 160 152 176 110 184 156 155 165 0 81 1 184 102 179 110 186 160 187 181 188 81 1
 155 151 176 78 187 151 189 160 0 81 1 187 96 179 78 190 155 191 184 192 81 1 18
9 150 176 73 191 143 193 155 0 81 1 191 90 179 73 194 189 195 187 196 81 1 143 1
64 154 73 189 137 197 151 198 81 1 193 149 176 109 195 197 199 189 0 81 1 195 84
 179 109 200 193 201 191 202 81 1 197 161 154 109 193 144 203 143 204 81 1 199 4
4 176 122 205 203 206 193 0 81 1 205 34 179 122 207 199 0 201 208 81 1 203 158 1
54 122 199 130 209 197 210 81 1 206 43 176 17 201 209 0 199 0 81 1 201 41 179 17
 211 206 205 195 212 81 1 209 155 154 17 206 124 0 203 213 81 1 124 156 142 17 2
09 121 0 130 214 83 3 213 .505882382392883 .529411792755127 .549019634723663 81
 1 130 159 142 122 203 125 124 144 215 83 1 214 0 81 1 144 162 142 109 197 131 1
30 137 216 83 1 215 0 83 1 216 0 80 1 179 217 218 9000 0 0 0 0 3 6 0 0 0 FFFFTFF
FFFFFFFFF1 81 3 211 38 219 17 0 201 207 200 220 221 0 82 1 212 470 80 3 219 222
 223 9000 0 0 0 0 3 6 0 0 0 FFFFTFTTFFFFFFFF1 1 3 81 3 207 31 219 122 0 205 0 21
1 224 225 0 81 3 200 87 219 109 0 195 211 194 226 227 0 82 1 220 0 82 1 221 2 81
 3 194 93 219 73 0 191 200 190 228 229 0 82 1 226 1 82 1 227 5 81 3 190 99 219 7
8 0 187 194 186 230 231 0 82 1 228 1 82 1 229 4 81 3 186 105 219 110 0 184 190 1
83 232 233 0 82 1 230 1 82 1 231 3 81 3 183 110 219 65 0 181 186 180 234 235 0 8
2 1 232 1 82 1 233 2 81 3 180 115 219 103 0 177 183 0 236 237 0 82 1 234 1 82 1
 235 0 82 1 236 1 82 1 237 1 82 1 224 0 82 1 225 0 79 255 27 223 MONIKER/MONIKER
_DATA_ATTRIB79 23 218 SolidEdge/MNKR_ATTR_CID83 3 210 .505882382392883 .52941179
2755127 .549019634723663 82 1 208 470 83 3 204 .505882382392883 .529411792755127
 .549019634723663 82 1 202 532 83 3 198 .505882382392883 .529411792755127 .54901
9634723663 82 1 196 532 82 1 192 532 82 1 188 532 82 1 185 532 82 1 182 532 79 1
7 178 SolidEdge/Display79 15 175 SDL/TYSA_COLOUR83 1 168 0 82 1 169 0 83 3 167 .
505882382392883 .529411792755127 .549019634723663 83 3 162 .505882382392883 .529
411792755127 .549019634723663 83 3 157 .505882382392883 .529411792755127 .549019
634723663 79 21 153 SDL/TYSA_TRANSLUCENCY83 1 147 0 82 1 148 0 83 1 146 0 79 21
 141 SDL/TYSA_REFLECTIVITY83 1 132 0 82 1 133 0 83 1 126 0 82 1 127 0 50 106 124
 0 103 119 112 0 +0 0 0 0 -1 0 0 0 -1 50 119 125 0 65 0 106 0 +0 -.004 0 0 -1 0
 0 0 -1 83 1 117 0 82 1 118 0 17 49 0 104 41 55 42 45 50 0 0 -80 1 98 238 239 90
00 0 0 0 0 3 6 0 0 0 FFFFTFTTFFFFFFFF1 81 1 90 64 98 56 0 0 88 96 240 82 1 99 17
 81 1 88 60 98 50 0 0 85 90 241 82 1 240 17 81 1 85 56 98 74 0 0 92 88 242 82 1
 241 17 81 1 92 52 98 86 0 0 0 85 243 82 1 242 17 82 1 243 17 79 27 239 SolidEdg
e/MNKR_ATTR_TYPE_EX19 18 30 0 1 0 8 4 0 S0 74 4 CI16 index_map_offset0 0 1 dCCZ2
0 16 9 0 0 96 180 177 171 244 2 166 163 105 0 0 0 0 0 0 0 0 0 0 0 81 2 244 46 24
5 1 0 12 0 0 246 247 80 2 245 11 248 9000 2 2 2 2 3 6 0 0 0 FFTFFFFFFFFFFFFF2 3
 81 3 12 147 11 1 244 2 0 2 249 250 251 83 2 246 1 9 84 255 19 247 SE 222.0.2.3
 Type8680 3 11 252 253 9000 0 0 0 0 3 6 0 0 0 FFTFFFFFFFFFFFFF3 3 1 84 38 249 {9
7adb654-3317-4040-958e-02d599791c64}84 2 250 SE82 1 251 0 79 25 253 MONIKER/GUID
_TABLE_ATTRIB79 22 248 MONIKER/BODY_ID_ATTRIB84 38 13 {deb30dc5-9ef0-4ad1-9ba5-2
330e1bc4df8}84 2 14 SE82 1 15 1 1 0 
