**ABCDEFGHIJKLMNOPQRSTUVWXYZabcdefghijklmnopqrstuvwxyz**************************
**PARASOLID !"#$%&'()*+,-./:;<=>?@[\]^_`{|}~0123456789**************************
**PART1;
MC=KTH-12182;
MC_MODEL=unknown;
MC_ID=unknown;
OS=Windows NT;
OS_RELEASE=6.2;
FRU=Unigraphics Solutions;
APPL=SolidEdge;
SITE=Huntsville, AL;
USER=rimmie
FORMAT=text;
GUISE=transmit;
KEY=C:\Users\rimmie\OneDrive - KTH\PhD\Course work\MF2104- Mechatronics\mechatronic-project\CAD_files-frame\bird-wings-mechanism-1.snapshot.3\bird wings\Bird-Assembly_Rimmie\structure;
FILE=C:\Users\rimmie\OneDrive - KTH\PhD\Course work\MF2104- Mechatronics\mechatronic-project\CAD_files-frame\bird-wings-mechanism-1.snapshot.3\bird wings\Bird-Assembly_Rimmie\structure.x_t;
DATE=fre, dec 02 22;
**PART2;
SCH=SCH_3400153_34001;
USFLD_SIZE=0;
**PART3;
**END_OF_HEADER*****************************************************************
T51 : TRANSMIT FILE created by modeller version 340015323 SCH_3400153_34001_1300
6231 0 12 36 CCCI7 lattice222 0 CCCI4 mesh1006 0 I8 polyline1008 0 CCCCCCCDI5 ow
ner1040 0 CCCI16 boundary_lattice222 0 CCCI13 boundary_mesh1006 0 I17 boundary_p
olyline1008 0 CCCA16 index_map_offset0 0 1 dA9 index_map82 0 A17 node_id_index_m
ap82 0 A20 schema_embedding_map82 0 A5 child12 0 A14 lowest_node_id0 0 1 dA16 me
sh_offset_data206 0 Z1 1972 2 3 0 0 0 0 0 0 0 1e3 1e-8 0 0 0 1 0 1 1 4 0 5 6 7 0
 0 8 9 10 0 0 0 0 0 0 0 81 255 3 2 1871 11 1 12 0 12 0 13 14 15 70 11 CI9 list_t
ype0 0 1 uI10 notransmit0 0 1 lCCCDCCDI12 finger_index0 0 1 dI12 finger_block101
2 0 CZ3 0 4 T1 0 0 12 20 1 16 16 13 255 4 4 0 1 0 17 0 0 18 0 50 255 5 1533 0 19
 20 0 0 +.0549392460840804 -.03248 .02322368657914855 0 0 -1 -1 0 0 30 255 6 158
0 0 9 21 0 0 +0 0 .02322368657914855 1 0 0 29 255 7 1574 0 10 22 0 .054939246084
0804 0 .02322368657914855 19 9 CCCCCCI5 frame230 0 CA5 owner12 0 Z8 1620 0 1 18
 0 23 0 V0 16 255 9 1578 0 ?24 0 25 6 0 0 1 18 255 10 1572 0 26 0 27 7 ?1 17 255
 26 0 28 29 30 10 31 32 0 33 +18 27 1262 0 34 10 35 36 ?1 17 34 0 37 38 39 27 40
 41 0 42 +18 35 8 0 43 27 44 45 ?1 29 36 1265 0 27 45 46 .0549392460840804 .0024
8 .02322368657914855 29 45 1083 0 35 47 36 -.0549392460840804 0 .002584422510563
425 29 46 1555 0 48 36 49 -.0548393565457434 -.03248 .02822368657914855 18 48 15
25 0 50 51 52 46 ?1 29 49 1554 0 51 46 53 .0549392460840804 -.03248 .02822368657
91485 18 51 1524 0 54 55 48 49 ?1 29 53 1553 0 55 49 22 .0549392460840804 -.0324
8 .02322368657914855 18 55 1523 0 31 56 51 53 ?1 29 22 1552 0 56 53 7 -.05483935
65457434 -.03248 .02322368657914855 18 56 1522 0 57 58 55 22 ?1 17 57 0 59 60 61
 56 62 63 0 64 -18 58 1302 0 65 66 56 67 ?1 17 65 0 59 68 69 58 70 71 0 38 +18 6
6 1301 0 72 73 58 74 ?1 29 67 1363 0 58 75 76 -.0548393565457434 .00248 .0232236
8657914855 29 75 1365 0 77 78 67 .0549392460840804 .03248 .0282236865791485 29 7
6 1241 0 79 67 80 -.0548393565457434 0 .00267972356054411 18 79 1159 0 81 82 83
 76 ?1 29 80 1240 0 82 76 84 .0549392460840804 0 .002584422510563425 18 82 1163
 0 29 85 79 80 ?1 29 84 1236 0 83 80 86 .0549392460840804 .00248 .00258442251056
3425 18 83 1167 0 87 79 77 84 ?1 29 86 276 0 88 84 89 -.0102652077040618 .002805
11455055019 -.0487760655543885 18 88 84 0 90 91 92 86 860690615069448e-20 1 29 8
9 277 0 44 86 93 -.00267972356054411 0 -.0224361123277682 18 44 18 0 94 35 95 89
 ?1 29 93 281 0 96 89 97 .002436112327768185 .00248 -.0224361123277682 18 96 103
 0 98 99 100 93 ?1 29 97 283 0 101 93 102 .0430253004802156 0 -.0024361123277681
85 18 101 33 0 103 104 105 97 ?1 29 102 285 0 95 97 106 -.00267972356054411 0 -.
0497724636888445 18 95 20 0 107 44 108 102 ?1 29 106 287 0 105 102 109 .04891318
8691275 0 -.0095905699554303 18 105 35 0 110 101 111 106 ?1 29 109 288 0 112 106
 113 .048913188691275 .00248 -.0095905699554303 18 112 118 0 114 115 116 109 ?1
 29 113 290 0 117 109 118 -.00267972356054411 .00248 -.0224361123277682 18 117 7
0 0 119 120 121 113 ?1 29 118 293 0 122 113 123 -.0226797235605441 0 -.002436112
327768185 18 122 17 0 124 125 126 118 ?1 29 123 297 0 99 118 127 .00243611232776
818 .00248 -.0497849818393537 18 99 101 0 128 129 96 123 ?1 29 127 298 0 85 123
 130 .00830260582808526 .00248 -.0491482381004293 18 85 125 0 131 116 82 127 164
604423140849e-19 1 29 130 301 0 121 127 132 -.0226797235605441 .00248 -.00243611
2327768185 18 121 71 0 133 117 134 130 ?1 29 132 302 0 134 130 135 -.00267972356
054411 .00248 -.0497724636888445 18 134 77 0 136 121 91 132 ?1 29 135 303 0 129
 132 137 -.0430253004802156 .00248 -.002436112327768185 18 129 93 0 138 139 99 1
35 ?1 29 137 304 0 91 135 140 -.00830261798899631 .00248 -.0491482234050212 18 9
1 82 0 141 134 88 137 860690615069448e-20 1 29 140 305 0 139 137 142 -.048913188
691275 .00248 -.00959056995543032 18 139 88 0 143 92 129 140 ?1 29 142 306 0 125
 140 144 -.0430253004802156 0 -.002436112327768185 18 125 24 0 145 108 122 142 ?
1 29 144 307 0 126 142 146 .002436112327768185 0 -.0224361123277682 18 126 28 0
 147 122 104 144 ?1 29 146 310 0 111 144 148 .00243611232776818 0 -.049784981839
3537 18 111 29 0 149 105 150 146 ?1 29 148 312 0 108 146 151 -.048913188691275 0
 -.00959056995543032 18 108 22 0 152 95 125 148 ?1 29 151 314 0 104 148 153 .022
4361123277682 0 -.002436112327768185 18 104 31 0 154 126 101 151 ?1 29 153 315 0
 92 151 155 -.01221283787986458 .00248 -.0483248300715665 18 92 86 0 156 88 139
 153 418645994921217e-20 1 29 155 323 0 115 153 157 .0430253004802156 .00248 -.0
02436112327768185 18 115 113 0 158 100 112 155 ?1 29 157 329 0 100 155 159 .0224
361123277682 .00248 -.002436112327768185 18 100 108 0 160 96 115 157 ?1 29 159 3
33 0 116 157 161 .01221281989655924 .00248 -.0483248210592018 18 116 123 0 162 1
12 85 159 164604423140849e-19 1 29 161 1046 0 163 159 164 .01308824838771028 .00
2480000000002 -.0534200126744799 18 163 49 0 165 166 167 161 ?1 29 164 1047 0 16
6 161 168 .01132788486165614 .00262949961190072 -.0538208047557918 18 166 47 0 1
69 170 163 164 ?1 29 168 1048 0 170 164 171 .00955571875460014 .002480000000002
 -.0541635323726488 18 170 45 0 172 173 166 168 ?1 29 171 1049 0 173 168 174 -.0
0955571875460014 .002480000000002 -.0541635323726488 18 173 43 0 175 150 170 171
 ?1 29 174 1050 0 150 171 176 -.01308824837213778 .002480000000002 -.05342001267
82954 18 150 40 0 177 111 173 174 ?1 29 176 1080 0 167 174 47 -.0549392460840805
 .002480000000002 .00258442251056343 18 167 41 0 178 163 120 176 ?1 29 47 1081 0
 120 176 45 -.0548393565457434 .002480000000002 .00267972356054611 18 120 62 0 6
8 167 117 47 ?1 17 68 0 59 179 65 120 180 181 0 182 +15 255 59 1802 0 72 183 0 1
7 179 0 59 61 68 79 182 184 0 185 -17 180 0 186 42 187 58 68 181 0 0 -16 181 113
7 188 ?68 189 71 190 0 0 1 17 182 0 191 192 185 120 179 184 0 187 +15 191 65 0 1
93 194 0 17 192 0 191 193 182 167 187 195 0 0 -17 185 0 191 182 193 79 43 196 0
 0 -16 184 63 0 ?182 197 198 199 0 0 1 17 187 0 186 180 178 120 192 195 0 0 +15
 186 1121 0 180 200 0 17 178 0 186 187 201 167 177 202 0 203 +16 195 66 0 ?187 2
02 204 205 0 0 1 16 202 39 0 ?178 206 195 207 0 0 1 16 204 85 0 418645994921217e
-20 208 195 209 0 0 0 1 31 255 205 1085 0 195 210 199 0 +-.0548393565457434 .002
48 .00257972356054411 0 1 0 0 0 1 1e-4 30 210 1084 0 197 211 205 0 +-.0549392460
840804 0 .002584422510563425 0 1 0 30 199 1086 0 184 205 212 0 --.05483935654574
34 -.042340928 .00267972356054411 0 -1 0 31 212 1087 0 196 199 213 0 --.05483935
65457434 0 .00257972356054411 0 1 0 0 0 1 1e-4 16 196 14 0 ?43 25 214 212 0 0 1
 30 213 1105 0 215 212 216 0 -.0549392460840804 .002480000000002 .00258442251056
3425 0 1 0 16 215 52 0 ?217 218 197 213 0 0 1 30 216 1547 0 219 213 220 0 +-.054
8393565457434 -.03248 .02822368657914855 1 0 -1264161455453272e-31 16 219 1508 0
 ?221 222 223 216 0 0 1 30 220 1546 0 222 216 224 0 +.0549392460840804 -.03248 .
0282236865791485 0 0 -1 16 222 1507 0 ?30 225 219 220 0 0 1 30 224 1545 0 225 22
0 226 0 +.0549392460840804 -.03248 .02322368657914855 -1 0 0 16 225 1506 0 ?64 6
3 222 224 0 0 1 30 226 1544 0 223 224 227 0 +-.0548393565457434 -.03248 .0232236
8657914855 0 0 1 16 223 1509 0 ?60 219 0 226 0 0 1 30 227 1539 0 63 226 21 0 +-.
0548393565457434 -.03248 .02322368657914855 0 1 0 16 63 1505 0 ?62 32 225 227 0
 0 1 30 21 1538 0 32 227 6 0 +.0549392460840804 -.03248 .02322368657914855 0 1 0
 16 32 1504 0 ?26 228 63 21 0 0 1 16 228 1293 229 ?42 230 32 231 0 0 1 81 1 229
 1295 232 228 0 0 188 0 233 17 42 0 186 234 180 27 38 228 0 235 +16 230 1279 0 ?
236 237 228 238 0 0 1 30 231 1355 0 228 238 239 0 +-.0548393565457434 .00248 .02
322368657914855 1 0 0 30 238 1357 0 230 240 231 0 +.0549392460840804 .03248 .028
2236865791485 -1 0 1264161455453272e-31 30 239 1351 0 41 231 241 0 +.05493924608
40804 .03248 .02322368657914855 0 -1 0 16 41 1284 0 ?34 71 242 239 0 0 1 30 241
 1350 0 71 239 243 0 +-.0548393565457434 .03248 .02322368657914855 0 -1 0 16 71
 1282 0 ?65 181 41 241 0 0 1 30 243 1230 0 244 241 245 0 +.0549392460840804 0 .0
02584422510563425 0 0 1 16 244 1153 0 ?33 246 247 243 0 0 1 30 245 1228 0 247 24
3 248 0 +-.0548393565457434 0 .02822368657914855 0 0 -1 16 247 1155 0 ?81 244 18
9 245 0 0 1 30 248 1226 0 189 245 190 0 +.0549392460840804 .00248 .0025844225105
63425 0 0 1 16 189 1145 249 ?235 247 181 248 0 0 1 30 190 1224 0 181 248 250 0 +
-.0548393565457434 .00248 .02822368657914855 0 0 -1 30 250 1223 0 246 190 251 0
 +-.0548393565457434 0 .02822368657914855 0 1 0 16 246 1140 0 ?72 252 244 250 0
 0 1 30 251 1222 0 252 250 253 0 +.0549392460840804 0 .0282236865791485 0 1 0 16
 252 1152 0 ?254 255 246 251 0 0 1 31 253 991 0 255 251 256 0 +.017292000000002
 .02348 2002117659245085e-30 0 -1 0 1 0 0 .001300000000002 16 255 964 0 ?257 258
 252 253 0 0 1 31 256 956 0 258 253 259 0 +-.017292000000002 .02348 0 0 -1 0 1 0
 0 .001300000000002 16 258 929 0 ?260 261 255 256 0 0 1 31 259 916 0 261 256 262
 0 +-.01077533664988542 .04548 -.0511946032225244 0 -1 0 1 0 0 .0022096741437346
4 16 261 889 0 ?263 264 258 259 0 0 1 31 262 881 0 264 259 265 0 +.0107753366498
8542 .04548 -.0511946032225244 0 -1 0 1 0 0 .00220967414373464 16 264 854 0 ?266
 267 261 262 0 0 1 31 265 339 0 268 262 269 0 +.017292000000002 .002480000000002
 2002117659245085e-30 0 1 0 1 0 -870485938801454e-27 .002300000000002 16 268 143
 0 ?270 271 272 265 0 0 1 30 269 340 0 273 265 274 0 +-.0430253004802176 0 -.002
436112327770185 0 1 0 16 273 94 0 ?275 276 277 269 0 0 1 30 274 342 0 278 269 27
9 0 +.0224361123277702 0 -.002436112327770185 0 1 0 16 278 109 0 ?280 281 282 27
4 0 0 1 31 279 350 0 283 274 284 0 +0 0 0 0 -1 0 .048874197461773 0 -.9988049423
29816 .0498445489498951 16 283 36 0 ?110 285 286 279 0 0 1 30 284 351 0 287 279
 288 0 +-.00267972356054611 0 -.0224361123277702 0 1 0 16 287 72 0 ?289 290 291
 284 0 0 1 31 288 352 0 291 284 292 0 +0 0 0 0 -1 0 -.981314701843234 0 -.192409
6046103845 .0498445489498953 16 291 21 0 ?107 287 293 288 0 0 1 30 292 355 0 286
 288 294 0 +.048913188691277 0 -.0095905699554323 0 1 0 16 286 119 0 ?295 283 29
6 292 0 0 1 31 294 356 0 271 292 297 0 +-.017292000000002 .002480000000002 0 0 1
 0 1 0 0 .002300000000002 16 271 138 0 ?298 299 268 294 0 0 1 31 297 364 0 300 2
94 301 0 +.0224361123277702 0 -.0224361123277702 0 1 -100024053623795e-27 -1 0 0
 .020000000000002 16 300 30 0 ?302 303 304 297 0 0 1 30 301 370 0 305 297 306 0
 +.002436112327770185 0 -.0224361123277702 0 1 0 16 305 104 0 ?307 308 281 301 0
 0 1 30 306 375 0 309 301 310 0 +.002436112327770185 .002480000000002 -.02243611
23277702 0 0 -1 16 309 102 0 ?128 311 312 306 0 0 1 30 310 376 0 282 306 313 0 +
.0430253004802176 0 -.002436112327770185 0 1 0 16 282 114 0 ?314 278 285 310 0 0
 1 30 313 378 0 290 310 315 0 +-.00267972356054611 0 -.0497724636888465 0 0 1 16
 290 19 0 ?94 198 287 313 0 0 1 31 315 381 0 214 313 316 0 +-.0226797235605461 0
 -.0224361123277702 0 1 0 0 0 1 .020000000000002 16 214 16 0 ?317 196 303 315 0
 0 1 30 316 383 0 318 315 319 0 +-.0226797235605461 .002480000000002 -.002436112
327770185 -1 0 0 16 318 97 0 ?320 321 322 316 0 0 1 31 319 384 0 304 316 323 0 +
.0430253004802176 0 -.00843611232777018 0 1 0 0 0 1 .006000000000002 16 304 34 0
 ?324 300 218 319 0 0 1 31 323 389 0 303 319 325 0 +-.0430253004802176 0 -.00843
611232777018 0 1 0 -.981314701843189 0 -.1924096046106125 .00600000000000235 16
 303 23 0 ?326 214 300 323 0 0 1 31 325 391 0 327 323 328 0 +-.017292000000002 .
003480000000002 0 0 1 0 1 0 0 .001300000000002 16 327 175 0 ?329 330 267 325 0 0
 1 30 328 397 0 331 325 332 0 +-.00267972356054611 .002480000000002 -.0497724636
888465 0 0 1 16 331 76 0 ?333 334 321 328 0 0 1 30 332 398 0 335 328 336 0 +-.04
8913188691277 0 -.00959056995543232 0 1 0 16 335 89 0 ?337 293 276 332 0 0 1 30
 336 401 0 198 332 338 0 +-.0226797235605461 0 -.002436112327770185 0 1 0 16 198
 73 0 ?339 184 290 336 0 0 1 30 338 403 0 281 336 340 0 +.0430253004802176 0 -.0
02436112327770185 -1 0 0 16 281 32 0 ?154 305 278 338 0 0 1 31 340 404 0 341 338
 342 0 +.0430253004802176 .002480000000002 -.00843611232777018 0 -1 0 .981314701
84319 0 -.192409604610611 .00600000000000235 16 341 117 0 ?343 344 345 340 0 0 1
 30 342 406 0 308 340 346 0 +.00243611232777018 0 -.0497849818393557 0 1 0 16 30
8 100 0 ?347 277 305 342 0 0 1 30 346 410 0 293 342 348 0 +-.00267972356054611 0
 -.0497724636888465 0 1 0 16 293 78 0 ?349 291 335 346 0 0 1 31 348 413 0 311 34
6 350 0 +.0224361123277702 .002480000000002 -.0224361123277702 0 -1 0 0 0 1 .020
000000000002 16 311 107 0 ?351 345 309 348 0 0 1 30 350 414 0 345 348 352 0 +.04
30253004802176 .002480000000002 -.002436112327770185 -1 0 0 16 345 112 0 ?353 34
1 311 350 0 0 1 31 352 415 0 267 350 354 0 +.017292000000002 .003480000000002 20
02117659245085e-30 0 1 0 1 0 0 .001300000000002 16 267 185 0 ?355 327 264 352 0
 0 1 30 354 416 0 277 352 356 0 +.002436112327770185 0 -.0224361123277702 0 0 -1
 16 277 27 0 ?357 273 308 354 0 0 1 31 356 421 0 25 354 358 0 +0 0 0 0 -1 0 -.98
6680068189749 0 -.162672809765716 .0550000000000023 16 25 7 0 ?359 9 196 356 0 0
 1 31 358 422 0 321 356 360 0 +-.0226797235605461 .002480000000002 -.02243611232
77702 0 -1 100024053623795e-27 1 0 0 .020000000000002 16 321 69 0 ?133 331 318 3
58 0 0 1 30 360 427 0 276 358 361 0 +-.0226797235605461 0 -.002436112327770185 -
1 0 0 16 276 25 0 ?145 335 273 360 0 0 1 31 361 431 0 322 360 207 0 +-.043025300
4802176 .002480000000002 -.00843611232777018 0 -1 0 3342807236475685e-28 0 1 .00
6000000000002 16 322 92 0 ?362 318 363 361 0 0 1 31 207 473 0 202 361 364 0 +0 .
002480000000002 0 0 1 0 -.237968153394114 0 -.97127295749969 .0550000000000024 1
33 255 364 476 0 206 207 365 0 +365 -.01221283789079142 .002480000000002 -.04832
48300497526 -.01308824837213778 .002480000000002 -.0534200126782954 871820089091
92e-18 1.87262707965463 16 206 136 0 ?201 363 202 364 0 0 1 31 365 477 0 1 364 3
66 367 +-.01077533664988542 .002480000000002 -.0511946032225244 0 -1 0 -.4477872
1901606 0 .89414014924164 .00320967410818719 31 366 479 0 368 365 369 0 +0 .0024
80000000002 0 0 1 0 .173740340992863 0 -.984791497684501 .0550000000000023 141 2
55 367 364 367 367 365 16 368 44 0 ?175 312 334 366 0 0 1 133 369 480 0 209 366
 370 0 +370 -.00830261796792649 .002480000000002 -.0491482233875842 -.0095557187
5460014 .002480000000002 -.0541635323726488 5.59185030814005 7.46420496732833 16
 209 133 0 ?371 204 372 369 0 0 1 31 370 481 0 1 369 373 374 +-.0107753366498854
2 .002480000000002 -.0511946032225244 0 1 0 1 0 0 .00320967414373464 31 373 489
 0 296 370 375 0 +0 .002480000000002 0 0 1 0 .986680068189749 0 -.16267280976571
65 .0550000000000023 141 374 369 374 374 370 16 296 50 0 ?376 286 377 373 0 0 1
 133 375 490 0 377 373 378 0 +378 .01308824838771028 .002480000000002 -.05342001
26744799 .01221281990956582 .002480000000002 -.0483248210332355 6.28282483692061
 8.15537099740498 16 377 129 0 ?379 296 344 375 0 0 1 31 378 491 0 1 375 380 381
 +.01077533664988542 .002480000000002 -.0511946032225244 0 -1 0 .720856291726453
 0 -.693084559544062 .00320967411676341 133 380 494 0 334 378 382 0 +382 -.00830
261419719428 .002480000000002 -.0491482009590489 -.00267972356054411 .00248 -.04
97724636888445 529068261865353e-21 .113563178520506 141 381 375 381 381 378 16 3
34 81 0 ?383 368 331 380 0 0 1 31 382 495 0 1 380 384 385 +0 .002480000000002 0
 0 -1 0 -.166570675728099 0 -.986029517807395 .0498445489498953 133 384 500 0 36
3 382 386 0 +386 -.048913188691275 .00248 -.00959056995543032 -.0122129274673867
 .002480000000002 -.0483251845593461 -319744231092045e-28 1.12963862840881 141 3
85 380 385 385 382 16 363 87 0 ?387 322 206 384 0 0 1 31 386 501 0 1 384 388 389
 +0 .002480000000002 0 0 -1 0 -.981314701843234 0 -.1924096046103845 .0498445489
498953 133 388 502 0 344 386 390 0 +390 .01221291270449726 .002480000000002 -.04
83251882902783 .048913188691275 .00248 -.0095905699554303 6.28317650121073 7.412
81543511015 141 389 384 389 389 386 16 344 122 0 ?391 377 341 388 0 0 1 31 390 5
03 0 1 388 392 393 +0 .002480000000002 0 0 -1 0 .2450285640342335 0 -.9695158600
08139 .0498445489498954 133 392 506 0 312 390 394 0 +394 .00243611232776818 .002
48 -.0497849818393537 .00830259996008545 .002480000000002 -.0491482033641239 -38
1916720471054e-28 .1184562327602128 141 393 388 393 393 390 16 312 126 0 ?131 30
9 368 392 0 0 1 31 394 507 0 1 392 395 396 +0 .002480000000002 0 0 -1 0 .0488741
97461773 0 -.998804942329816 .0498445489498951 133 395 508 0 397 394 398 0 +398
 .00955571875460014 .002480000000002 -.0541635323726488 .00830260580660899 .0024
80000000002 -.0491482380826561 5.10216564703085 6.97451436335311 141 396 392 396
 396 394 16 397 130 0 ?399 400 299 395 0 0 1 31 398 509 0 1 395 401 402 +.010775
33664988542 .002480000000002 -.0511946032225244 0 1 0 -1 0 0 .00320967414373464
 133 401 510 0 272 398 403 0 +403 -.00856566252392484 .00348 -.0511946032268701
 -.0085656625061504 .003480000000002 -.0511946032268701 3.141592655556445 9.4247
7796273603 141 402 395 402 402 398 16 272 151 0 ?404 268 330 401 0 0 1 31 403 51
1 0 1 401 405 406 +-.01077533664988542 .003480000000002 -.0511946032225244 0 1 0
 -1 0 0 .00220967414373464 133 405 516 0 330 403 407 0 +407 .01298501079362006 .
003480000000002 -.0511946032161835 .01298501078462536 .00348 -.0511946032161835
 4.91963085665905 11.20281616383864 141 406 401 406 406 403 16 330 162 0 ?408 27
2 327 405 0 0 1 31 407 517 0 1 405 409 410 +.01077533664988542 .003480000000002
 -.0511946032225244 0 1 0 .2057615829017125 0 -.978602151541566 .002209674143735
01 133 409 527 0 411 407 412 0 +412 .01221269992690338 .002480000000002 -.048325
2420636844 .00830259979112387 .00248000410856385 -.0491482033926644 0 1 141 410
 405 410 410 407 17 411 0 413 414 162 85 415 285 409 399 +137 255 412 528 0 1 40
9 416 417 +418 419 0 ?133 416 532 0 208 412 420 0 +420 -.0122125876927364 .00248
 -.0483247047364149 -.01026520770470658 .00280511454770673 -.0487760655574379 0
 1 141 417 409 417 417 412 51 255 418 246 0 421 422 423 424 +0 0 0 0 -1 0 .04984
4548949893 1 0 0 134 255 419 0 0 0 0 0 0 +425 426 136 255 425 2 9 2 5 5 FFF1 427
 428 429 135 255 426 2 0 45 255 18 427 4.95992492596832 -.002480000000002 4.9501
8033192406 -.002504769105119515 4.93985265692867 -.00263420542693011 4.926288840
91451 -.00280420016973253 4.9198318901661 -.00280415891859427 4.9133812023834 -.
002804117707467845 4.89981146215733 -.00263404466378735 4.88947418892838 -.00250
448496020309 4.87973888564188 -.00248000410856385 127 255 5 428 3 2 2 2 3 128 25
5 5 429 0 .25 .5 .75 1 14 255 421 120 430 ?431 432 413 4 418 -433 433 431 432 23
 54 255 422 245 0 431 434 418 435 +-.01077533664988342 .00348 -.0511946032225224
 0 -1 0 .00320967410818451 .001 -.985574938709724 0 -.169239594029658 50 423 247
 0 436 418 437 0 +-.00267972356054411 0 -.0497724636888445 -1 0 0 0 0 1 141 424
 412 438 439 418 141 438 440 439 424 418 141 439 441 424 438 418 137 441 550 0 1
 442 443 444 +418 445 0 ?133 442 549 0 90 440 441 0 +441 -.00830261416394911 .00
248000164483039 -.0491482009646627 -.01026520770374192 .002805114551975055 -.048
7760655528643 0 1 133 443 552 0 446 441 447 0 +447 -.01026520770551228 .00280511
455197533 -.0487760655612578 -.00830262554261421 .0024800000005926 -.04914826828
80066 0 1 141 444 442 444 444 441 134 445 0 0 0 0 0 0 +448 449 136 448 2 7 2 4 5
 FFF1 450 451 452 135 449 2 0 45 14 450 4.54503878268903 -.00248000164483039 4.5
3609581321374 -.00249391449464472 4.52497403245535 -.002634882900397825 4.517714
17354049 -.00272690150420355 4.51507260888632 -.00275089663341267 4.510490750967
46 -.00279251676661957 4.50496024251136 -.002805114551975055 127 4 451 3 2 2 3 1
28 4 452 0 .5 .75 1 17 446 0 453 371 208 91 90 299 443 454 +137 447 553 0 1 443
 455 456 +422 457 0 ?133 455 556 0 415 447 458 0 +458 .00830261739499484 .002480
00000141469 -.0491483075663216 .01221256071393822 .00248 -.0483246912255361 0 1
 141 456 443 456 456 447 134 457 0 0 0 0 0 0 +459 460 136 459 2 5 2 3 5 FFF1 461
 462 463 135 460 2 0 45 10 461 4.3344533783326 2.40078319818708 4.13586426570257
 2.384012862836735 3.95233844636977 2.1347889362888 3.78399068603701 1.906176471
79627 3.662860297503215 1.570830753608225 127 3 462 3 2 3 128 3 463 0 .5 1 17 41
5 0 464 465 399 116 411 285 455 379 -137 458 557 0 1 455 466 467 +468 469 0 ?38
 12 CCCCCCCCCCCA17 intersection_data204 0 Z466 1021 0 400 458 470 0 +471 468 472
 473 474 475 141 467 455 467 467 458 54 468 257 0 476 477 478 479 +.010775336649
88342 .00348 -.0511946032225224 0 1 0 .00320967410818451 .001 -.985574938709724
 0 .169239594029656 134 469 0 0 0 0 0 0 +480 481 136 480 2 9 2 5 5 FFF1 482 483
 484 135 481 2 0 45 18 482 .521256597543454 -1.570849518721065 .642758343570389
 -1.907146326411375 .810874136770271 -2.134469749050505 1.007170386450924 -2.399
89832348299 1.193146511274554 -2.400074294478885 1.378925080228786 -2.4002500785
47005 1.575471733386445 -2.134806160566035 1.74358737566391 -1.907759431236975 1
.86501788617758 -1.570796326795795 127 5 483 3 2 2 2 3 128 5 484 0 .25 .5 .75 1
 14 476 156 485 ?486 431 487 4 468 -0 0 486 431 23 51 477 255 0 488 489 468 0 +-
.0430253004802156 -.042340928 -.00843611232776819 0 -1 0 .006 -.98131470184324 0
 -.192409604610354 51 478 261 0 490 468 491 0 +-.01077533664988342 .00248 -.0511
946032225224 0 1 0 .00220967414373264 -1 0 0 141 479 466 492 493 468 141 492 470
 493 479 468 141 493 458 479 492 468 38 470 1023 0 372 466 211 0 -468 471 494 49
5 496 497 16 372 46 0 ?498 209 400 470 0 0 1 38 211 1024 0 218 470 210 0 +422 47
1 499 500 501 502 51 471 1022 0 1 503 504 505 +0 -.042340928 3556183125752455e-3
2 0 1 0 .055 0 0 1 40 255 2 494 .002059855886350745 .997974517134347 2 .00026438
2959725359 .3825867584993565 ??.00955571875460013 .00248 -.0541635323726489 .011
5189818321715 .00262536764659177 -.05378022924412 41 3 CI8 term_use0 0 1 cCZ1 49
5 L?.00955571875460013 .00248 -.0541635323726489 41 1 496 L?.0115189818321715 .0
0262536764659177 -.05378022924412 204 2 17 INTERSECTION_DATA17 Intersection data
7 uv_type0 0 1 u6 values0 1 1 fT8 497 4 4.93210756450889 -1.570796291243655 2.96
6966142524405 .044820928 ????51 503 274 0 506 507 471 0 +.017292 .00248 21176592
45085605e-33 0 -1 0 .0013 1 0 0 51 504 1062 0 508 471 509 0 +3794707603699265e-3
4 -.042340928 225514051876985e-31 0 1 0 .055 0 0 1 141 505 466 510 511 471 141 5
10 211 511 505 471 141 511 470 505 510 471 14 508 37 512 ?194 200 513 4 504 +0 0
 194 200 23 51 509 1088 0 194 504 20 0 +-.0548393565457434 -.042340928 .00257972
356054411 0 1 0 1e-4 0 0 1 14 194 64 514 ?515 508 191 4 509 +0 0 515 508 23 50 2
0 1535 0 516 509 5 0 +0 -.03248 0 0 1 0 0 0 1 14 516 1492 517 ?0 19 518 4 20 -0
 0 0 19 23 81 2 517 1972 519 516 520 0 521 0 522 523 14 19 1486 521 ?516 524 525
 4 5 +0 0 516 524 23 15 518 1496 0 526 516 0 13 23 3 0 0 0 0 0 0 8 17 14 17 5 52
7 ?200 0 528 4 491 -0 0 200 0 23 81 2 527 1876 519 17 529 0 0 530 531 532 14 200
 127 530 ?508 17 533 4 437 +0 0 508 17 23 15 528 15 0 317 17 534 50 491 262 0 17
 478 535 0 +0 0 0 0 1 0 1 0 0 50 535 263 0 536 491 537 0 +-.00267972356054411 0
 -.002436112327768185 0 0 -1 -1 0 0 14 536 95 538 ?539 488 540 4 535 +0 0 539 48
8 23 50 537 265 0 539 535 507 0 +.002436112327768185 0 -.002436112327768185 1 0
 0 0 0 -1 14 539 98 541 ?542 536 543 4 537 +0 0 542 536 23 51 507 272 0 544 537
 503 0 +.01077533664988342 .00248 -.0511946032225224 0 -1 0 .00220967414373264 1
 0 0 14 544 201 545 ?546 490 547 4 507 +0 0 546 490 23 81 2 545 1933 519 544 548
 0 549 550 551 552 14 546 211 550 ?506 544 553 4 554 +0 0 506 544 23 14 490 191
 549 ?544 555 556 4 478 +0 0 544 555 23 15 547 202 0 408 544 557 17 408 0 547 40
8 408 0 558 330 0 0 +15 557 863 0 266 544 0 17 266 0 557 266 266 0 559 264 0 0 +
17 559 0 560 559 559 0 266 264 0 0 -15 560 869 0 559 561 0 14 561 865 562 ?563 5
06 560 4 564 -0 0 563 506 23 81 2 562 1942 519 561 565 0 566 567 568 569 14 563
 900 567 ?570 561 571 4 572 -0 0 570 561 23 14 506 221 566 ?561 546 573 4 503 +0
 0 561 546 23 50 564 879 0 561 572 574 0 +.01077533664988542 .04548 -.0511946032
225244 0 -1 0 0 0 -1 50 572 914 0 563 575 564 0 +-.01077533664988542 .04548 -.05
11946032225244 0 -1 0 0 0 -1 51 574 241 0 432 564 576 0 +.0430253004802156 -.042
340928 -.00843611232776819 0 -1 0 .006 0 0 1 14 432 115 577 ?421 578 579 4 574 -
0 0 421 578 23 51 576 242 0 515 574 580 0 +-.0226797235605441 -.042340928 -.0224
361123277682 0 -1 -2405362380508315e-32 .02 0 -2405362380508315e-32 1 14 515 67
 581 ?436 194 582 4 576 -0 0 436 194 23 51 580 243 0 542 576 434 0 +.02243611232
77682 -.042340928 -.0224361123277682 0 -1 2405362380508315e-32 .02 -1 0 0 14 542
 105 583 ?578 539 584 4 580 -0 0 578 539 23 54 434 244 0 486 580 422 0 +-.017292
 .00348 0 0 1 0 .0023 .001 .979405040166091 0 .201905342418814 14 486 171 585 ?5
55 476 586 4 434 -0 0 555 476 23 81 2 585 1924 519 486 587 0 485 588 589 590 14
 555 181 588 ?490 486 591 4 489 -0 0 490 486 23 15 586 560 0 592 486 593 17 592
 0 586 592 592 0 329 327 0 0 -15 593 172 0 298 486 0 17 298 0 593 298 298 0 594
 271 0 0 +17 594 0 533 594 594 0 298 271 0 0 -15 533 137 0 594 200 595 15 595 14
2 0 596 200 186 17 596 0 595 596 596 0 270 268 0 0 -17 270 0 597 270 270 0 596 2
68 0 0 +15 597 182 0 270 555 0 17 329 0 553 329 329 0 592 327 0 0 +15 553 212 0
 329 546 598 15 598 938 0 260 546 0 17 260 0 598 260 260 0 599 258 0 0 +17 599 0
 600 599 599 0 260 258 0 0 -15 600 944 0 599 570 0 14 570 940 601 ?602 563 600 4
 575 -0 0 602 563 23 81 2 601 1948 519 570 603 0 567 604 605 606 14 602 975 604
 ?183 570 607 4 608 -0 0 183 570 23 50 575 954 0 570 608 572 0 +-.01729200000000
2 .02348 0 0 -1 0 0 0 -1 50 608 989 0 602 609 575 0 +.017292000000002 .02348 200
2117659245085e-30 0 -1 0 0 0 -1 50 609 1214 0 183 610 608 0 +-.0548393565457434
 0 .02822368657914855 1 0 0 0 0 -1 14 183 1178 611 ?612 602 59 4 609 -0 0 612 60
2 23 50 610 1216 0 612 613 609 0 +.0549392460840804 0 .002584422510563425 -1 0 0
 0 0 1 14 612 1190 614 ?615 183 28 4 610 -0 0 615 183 23 50 613 1217 0 615 616 6
10 0 +.0549392460840804 0 .0282236865791485 -1264161455453272e-31 0 -1 -1 0 1264
161455453272e-31 14 615 1196 617 ?618 612 619 4 613 -0 0 618 612 23 50 616 1345
 0 618 620 613 0 +-.0548393565457434 .03248 .02322368657914855 0 0 -1 -1 0 0 14
 618 1319 621 ?524 615 37 4 616 +0 0 524 615 23 50 620 1348 0 524 0 616 0 +0 .03
248 0 0 -1 0 0 0 -1 14 524 1331 622 ?19 618 623 4 620 -0 0 19 618 23 81 2 622 19
66 519 524 624 0 621 521 625 626 15 623 1335 0 627 524 0 17 627 0 623 628 629 77
 236 230 0 0 -17 628 0 623 630 627 631 632 242 0 0 -17 629 0 623 627 630 66 69 2
37 0 236 -18 77 1299 0 254 83 631 75 ?1 17 236 0 619 50 254 66 627 230 0 0 +15 6
19 1201 0 236 615 0 17 50 0 619 221 236 48 72 246 0 633 -17 254 0 619 236 221 77
 54 252 0 632 +17 221 0 619 254 50 51 633 219 0 634 +17 54 0 28 30 632 51 254 25
2 0 221 -17 632 0 28 54 40 77 628 242 0 627 +15 28 1793 0 54 612 0 17 40 0 28 63
2 235 631 34 41 0 39 -16 242 1285 0 ?632 41 635 240 0 0 1 16 635 1283 0 ?39 242
 237 636 0 0 1 30 240 1358 0 242 636 238 0 +.0549392460840804 .03248 .0232236865
7914855 0 0 1 30 636 1359 0 635 637 240 0 +-.0548393565457434 .03248 .0232236865
7914855 1 0 0 30 637 1360 0 237 0 636 0 +-.0548393565457434 .03248 .028223686579
14855 0 0 -1 16 237 1281 0 ?69 635 230 637 0 0 1 17 69 0 59 65 72 73 629 237 0 6
30 +17 72 0 59 69 60 66 50 246 0 629 +18 73 1303 0 70 631 66 638 ?1 17 630 0 623
 629 628 73 39 635 0 0 -17 39 0 37 34 70 631 630 635 0 628 +15 37 1324 0 38 618
 0 17 70 0 37 39 38 73 65 71 0 69 -18 631 1305 0 40 77 73 78 ?1 29 78 1366 0 631
 638 75 .0549392460840804 .03248 .02322368657914855 29 638 1367 0 73 74 78 -.054
8393565457434 .03248 .02322368657914855 29 74 1368 0 66 639 638 -.05483935654574
34 .03248 .02822368657914855 29 639 1743 0 52 0 74 -.0548393565457434 0 .0232236
8657914855 18 52 1656 0 62 48 0 639 ?1 17 62 0 525 24 64 52 57 63 0 61 +15 525 1
491 0 62 19 0 17 24 0 525 31 62 10 640 9 0 0 +17 64 0 525 62 31 56 641 225 0 526
 +17 61 0 59 57 179 52 81 247 0 640 -17 81 0 642 43 640 79 61 247 0 179 +17 640
 0 642 81 33 52 24 9 0 0 -15 642 1579 0 640 17 0 17 33 0 642 640 359 10 29 244 0
 24 +17 359 0 642 33 43 82 643 25 0 217 +17 29 0 28 87 26 82 33 244 0 359 -17 87
 0 28 235 29 83 217 215 0 234 -17 235 0 28 40 87 27 234 189 0 0 +17 217 0 513 64
3 644 82 87 215 0 0 +17 234 0 186 376 42 83 235 189 0 644 -17 376 0 186 379 234
 163 644 296 0 465 +17 644 0 513 217 165 83 376 296 0 0 -15 513 38 0 177 508 0 1
7 165 0 513 644 645 163 169 400 0 376 -17 645 0 513 165 646 166 498 372 0 0 -17
 169 0 464 498 465 166 165 400 0 645 +16 400 48 0 ?169 372 397 466 0 0 1 15 464
 157 0 169 476 0 17 498 0 464 399 169 170 645 372 0 646 +17 465 0 464 169 415 16
3 379 377 0 0 -17 379 0 186 391 376 116 465 377 0 0 +17 391 0 186 343 379 112 16
2 344 0 0 +17 343 0 186 353 391 115 114 341 0 0 +17 162 0 413 411 295 116 391 34
4 0 415 -15 413 121 0 162 421 0 17 295 0 413 162 110 112 647 286 0 391 +17 110 0
 413 295 648 105 149 283 0 324 +17 647 0 579 649 114 105 295 286 0 0 -15 579 116
 0 114 432 0 17 649 0 579 314 647 101 324 304 0 650 -17 114 0 579 647 314 112 34
3 341 0 295 -17 314 0 579 114 649 115 650 282 0 343 +17 650 0 651 154 158 101 31
4 282 0 0 -15 651 111 0 154 578 0 17 154 0 651 280 650 104 103 281 0 302 +17 158
 0 651 650 280 115 353 345 0 314 -17 280 0 651 158 154 100 652 278 0 353 +17 353
 0 186 351 343 100 158 345 0 0 +17 351 0 186 128 353 96 160 311 0 0 +17 128 0 18
6 131 351 99 98 309 0 347 +17 160 0 584 652 307 100 351 311 0 280 -15 584 106 0
 160 542 0 17 652 0 584 653 160 104 280 278 0 0 -17 307 0 584 160 653 96 654 305
 0 351 +17 653 0 584 307 652 126 302 300 0 654 -17 654 0 543 357 98 126 307 305
 0 0 -15 543 99 0 357 539 0 17 357 0 543 347 654 111 147 277 0 648 +17 98 0 543
 654 347 96 128 309 0 307 -17 347 0 543 98 357 99 648 308 0 414 +17 648 0 413 11
0 414 111 347 308 0 0 -17 414 0 413 648 411 99 131 312 0 0 -17 131 0 186 172 128
 85 414 312 0 411 +17 172 0 186 175 131 170 399 397 0 498 -17 175 0 186 141 172
 173 646 368 0 655 +17 399 0 464 415 498 85 172 397 0 0 +17 141 0 186 383 175 91
 371 209 0 446 -17 646 0 513 645 655 170 175 368 0 0 -17 655 0 513 646 177 173 6
56 218 0 371 +17 177 0 513 655 203 150 178 202 0 656 -17 656 0 453 657 371 150 6
55 218 0 201 -16 218 42 0 ?655 304 215 211 0 0 1 17 371 0 453 656 446 173 141 20
9 0 0 +15 453 148 0 657 431 0 17 657 0 453 208 656 92 201 206 0 0 -14 431 147 65
8 ?476 421 659 4 422 -0 0 476 421 23 81 2 658 1918 519 431 660 0 430 485 661 662
 15 659 559 0 663 431 453 17 663 0 659 663 663 0 404 272 0 0 -17 404 0 556 404 4
04 0 663 272 0 0 +15 556 192 0 404 490 664 15 664 898 0 263 490 0 17 263 0 664 2
63 263 0 665 261 0 0 +17 665 0 571 665 665 0 263 261 0 0 -15 571 904 0 665 563 0
 80 7 CCCCCDI12 legal_owners0 16 1 lCZ2 519 666 667 8014 0 0 0 0 3 5 0 0 0 FFFFT
FFFFFFFFFFF2 1 81 1 660 1917 668 431 669 658 670 671 672 81 2 430 1915 519 421 6
70 0 577 658 673 674 81 2 485 1921 519 476 671 0 658 585 675 676 83 255 1 661 0
 82 255 1 662 0 81 1 671 1920 668 476 677 485 660 587 678 83 1 675 0 82 1 676 0
 80 1 668 519 679 8015 0 0 0 0 3 5 0 0 0 FFFFTFFFFFFFFFFF2 81 1 677 1919 680 476
 681 671 669 682 683 81 1 587 1923 668 486 682 585 671 684 685 83 1 678 0 81 1 6
82 1922 680 486 686 587 677 687 688 81 1 684 1926 668 555 687 588 587 689 690 83
 1 685 0 81 1 687 1925 680 555 691 684 682 692 693 81 2 588 1927 519 555 684 0 5
85 549 694 695 81 1 689 1929 668 490 692 549 684 548 696 83 1 690 0 81 1 692 192
8 680 490 697 689 687 698 699 81 2 549 1930 519 490 689 0 588 545 700 701 81 1 5
48 1932 668 544 698 545 689 702 703 83 1 696 0 81 1 698 1931 680 544 704 548 692
 705 706 81 1 702 1935 668 546 705 550 548 707 708 83 1 703 0 81 1 705 1934 680
 546 709 702 698 710 711 81 2 550 1936 519 546 702 0 545 566 712 713 81 1 707 19
38 668 506 710 566 702 565 714 83 1 708 0 81 1 710 1937 680 506 715 707 705 716
 717 81 2 566 1939 519 506 707 0 550 562 718 719 81 1 565 1941 668 561 716 562 7
07 720 721 83 1 714 0 81 1 716 1940 680 561 722 565 710 723 724 81 1 720 1944 66
8 563 723 567 565 603 725 83 1 721 0 81 1 723 1943 680 563 726 720 716 727 728 8
1 2 567 1945 519 563 720 0 562 601 729 730 81 1 603 1947 668 570 727 601 720 731
 732 83 1 725 0 81 1 727 1946 680 570 733 603 723 734 735 81 1 731 1950 668 602
 734 604 603 736 737 83 1 732 0 81 1 734 1949 680 602 738 731 727 739 740 81 2 6
04 1951 519 602 731 0 601 611 741 742 81 1 736 1953 668 183 739 611 731 743 744
 83 1 737 0 81 1 739 1952 680 183 745 736 734 746 747 81 2 611 1954 519 183 736
 0 604 614 748 749 81 1 743 1956 668 612 746 614 736 750 751 83 1 744 0 81 1 746
 1955 680 612 752 743 739 753 754 81 2 614 1957 519 612 743 0 611 617 755 756 81
 1 750 1959 668 615 753 617 743 757 758 83 1 751 0 81 1 753 1958 680 615 759 750
 746 760 761 81 2 617 1960 519 615 750 0 614 621 762 763 81 1 757 1962 668 618 7
60 621 750 624 764 83 1 758 0 81 1 760 1961 680 618 765 757 753 766 767 81 2 621
 1963 519 618 757 0 617 622 768 769 81 1 624 1965 668 524 766 622 757 770 771 83
 1 764 0 81 1 766 1964 680 524 772 624 760 773 774 81 1 770 1968 668 19 773 521
 624 520 775 83 1 771 0 81 1 773 1967 680 19 776 770 766 777 778 81 2 521 1969 5
19 19 770 0 622 517 779 780 81 1 520 1971 668 516 777 517 770 0 781 83 1 775 0 8
1 1 777 1970 680 516 782 520 773 0 783 83 1 781 0 80 1 680 0 784 8001 0 0 0 0 3
 5 0 0 0 FFFFTFTFFFFFFFFF2 81 1 782 1565 785 516 786 777 772 787 0 83 3 783 .505
882382392883 .529411792755127 .549019634723663 80 1 785 232 788 9000 1 1 1 1 1 1
 1 1 0 FFFFTFTTFFFFFFFF1 81 1 786 1493 789 516 790 782 791 792 793 81 1 772 1393
 785 524 794 766 795 782 0 81 1 787 1818 785 17 796 797 782 745 0 81 3 796 1586
 798 17 799 787 800 801 802 803 0 81 1 797 1874 680 17 787 529 0 804 805 81 1 74
5 1819 785 183 806 739 787 752 0 81 3 806 1812 798 183 807 745 808 809 810 811 0
 81 1 752 1820 785 612 812 746 745 776 0 81 3 812 1808 798 612 813 752 814 808 8
15 816 0 81 1 776 1822 785 19 817 773 752 759 0 81 1 817 1806 789 19 814 776 818
 813 819 81 1 759 1872 785 615 820 753 776 765 0 81 3 820 1866 798 615 821 759 8
09 0 822 823 0 81 1 765 1873 785 618 809 760 759 0 0 81 3 809 1863 798 618 824 7
65 806 820 825 826 0 80 3 798 827 828 9000 0 0 0 0 3 6 0 0 0 FFFFTFTTFFFFFFFF1 1
 3 81 1 824 1861 789 618 829 809 807 821 830 82 1 825 6 82 1 826 12 80 1 789 831
 832 9000 0 0 0 0 3 6 0 0 0 FFFFTFFFFFFFFFFF1 81 1 829 1320 789 618 833 824 834
 794 835 81 1 807 1811 789 183 836 806 837 824 838 81 1 821 1864 789 615 808 820
 824 0 839 82 1 830 3579 81 3 808 1810 798 615 837 821 812 806 840 841 0 82 1 83
9 3579 81 1 837 1809 789 615 842 808 813 807 843 82 1 840 6 82 1 841 5 81 1 842
 1792 789 615 801 837 799 844 845 81 1 813 1807 789 612 844 812 817 837 846 82 1
 843 4040 81 1 844 1797 789 612 847 813 842 818 848 82 1 846 4040 81 3 847 1794
 798 612 849 844 801 836 850 851 0 81 1 818 1798 789 183 852 836 844 817 853 82
 1 848 2043 81 3 852 1383 798 183 854 818 855 856 857 858 0 81 3 836 1801 798 18
3 818 807 847 814 859 860 0 82 1 853 2043 81 3 814 1803 798 19 791 817 836 812 8
61 862 0 82 1 859 6 82 1 860 10 81 1 791 1487 789 19 856 814 854 786 863 82 1 86
1 6 82 1 862 11 81 3 856 1490 798 19 0 791 852 790 864 865 0 81 1 854 1380 789 1
83 866 852 867 791 868 82 1 863 4040 81 1 866 1179 789 183 869 854 870 871 872 8
1 1 867 1376 789 615 873 855 874 854 875 82 1 868 3675 81 1 873 1197 789 615 876
 867 871 877 878 81 3 855 1379 798 615 867 801 849 852 879 880 0 81 1 874 1372 7
89 612 871 849 794 867 881 82 1 875 3675 81 1 871 1191 789 612 882 874 866 873 8
83 81 3 849 1375 798 612 874 847 884 855 885 886 0 81 1 794 1332 789 524 884 772
 829 874 887 82 1 881 3675 81 3 884 1334 798 524 0 794 833 849 888 889 0 82 1 88
7 3675 81 3 833 1323 798 618 0 829 890 884 891 892 0 82 1 888 4 82 1 889 12 81 3
 890 1277 798 200 834 795 893 833 894 895 0 82 1 891 4 82 1 892 15 81 1 834 1276
 789 200 896 890 877 829 897 81 1 795 1388 785 200 890 804 898 772 0 81 3 893 12
74 798 200 877 896 876 890 899 900 0 82 1 894 0 82 1 895 15 81 1 877 1273 789 20
0 0 893 873 834 901 81 2 896 1275 902 200 893 834 903 904 905 0 81 3 876 1200 79
8 615 0 873 882 893 906 907 0 82 1 899 4 82 1 900 7 81 3 882 1194 798 612 0 871
 869 876 908 909 0 82 1 906 4 82 1 907 8 81 3 869 1182 798 183 0 866 910 882 911
 912 0 82 1 908 4 82 1 909 9 81 3 910 997 798 506 913 715 914 869 915 916 0 82 1
 911 4 82 1 912 11 81 1 913 994 789 506 903 910 917 918 919 81 1 715 1002 785 50
6 910 710 709 733 0 81 3 914 978 798 602 0 917 920 910 921 922 0 82 1 915 3 82 1
 916 3 81 1 917 976 789 602 914 738 923 913 924 81 3 920 962 798 546 923 709 925
 914 926 927 0 82 1 921 3 82 1 922 0 81 1 923 959 789 546 928 920 929 917 930 81
 1 709 1001 785 546 920 705 726 715 0 81 3 925 943 798 570 0 929 931 920 932 933
 0 82 1 926 3 82 1 927 2 81 1 929 941 789 570 925 733 934 923 935 81 3 931 920 7
98 490 934 697 936 925 937 938 0 82 1 932 3 82 1 933 0 81 1 934 917 789 490 939
 931 940 929 941 81 1 697 923 785 490 931 692 942 704 0 81 3 936 903 798 563 0 9
40 943 931 944 945 0 82 1 937 2 82 1 938 3 81 1 940 901 789 563 936 726 946 934
 947 81 3 943 887 798 544 946 704 948 936 949 950 0 82 1 944 2 82 1 945 0 81 1 9
46 884 789 544 951 943 952 940 953 81 1 704 924 785 544 943 698 697 722 0 81 3 9
48 868 798 561 0 952 954 943 955 956 0 82 1 949 2 82 1 950 2 81 1 952 866 789 56
1 948 722 957 946 958 81 3 954 613 798 506 0 959 960 948 961 962 0 82 1 955 2 82
 1 956 0 81 1 959 811 789 506 954 903 963 964 965 81 3 960 611 798 546 0 966 967
 954 968 969 0 82 1 961 0 82 1 962 23 81 1 966 807 789 546 960 928 970 971 972 8
1 3 967 609 798 544 0 970 973 960 974 975 0 82 1 968 0 82 1 969 22 81 1 970 806
 789 544 967 951 976 966 977 81 3 973 607 798 490 0 971 978 967 979 980 0 82 1 9
74 0 82 1 975 21 81 1 971 808 789 490 973 939 966 963 981 81 3 978 605 798 555 0
 942 982 973 983 984 0 82 1 979 0 82 1 980 20 81 1 942 786 785 555 978 963 985 6
97 0 81 3 982 603 798 486 0 985 986 978 987 988 0 82 1 983 0 82 1 984 19 81 1 98
5 785 785 486 982 957 989 942 0 81 3 986 601 798 476 0 990 991 982 992 993 0 82
 1 987 0 82 1 988 18 81 1 990 796 789 476 986 994 995 996 997 81 3 991 599 798 4
31 0 995 998 986 999 1000 0 82 1 992 0 82 1 993 17 81 1 995 795 789 431 991 1001
 0 990 1002 81 3 998 595 798 421 0 989 1003 991 1004 1005 0 82 1 999 0 82 1 1000
 16 81 1 989 781 785 421 998 1006 1007 985 0 81 3 1003 593 798 432 0 1007 1008 9
98 1009 1010 0 82 1 1004 0 82 1 1005 14 81 1 1007 780 785 432 1003 996 1011 989
 0 81 3 1008 591 798 578 0 1011 1012 1003 1013 1014 0 82 1 1009 0 82 1 1010 13 1
4 578 110 1015 ?432 542 651 4 1016 +0 0 432 542 23 81 1 1011 779 785 578 1008 10
17 1018 1007 0 81 3 1012 589 798 542 0 1018 1019 1008 1020 1021 0 82 1 1013 0 82
 1 1014 12 81 1 1018 778 785 542 1012 1022 1023 1011 0 81 3 1019 587 798 539 0 1
023 1024 1012 1025 1026 0 82 1 1020 0 82 1 1021 11 81 1 1023 777 785 539 1019 97
6 1027 1018 0 81 3 1024 585 798 536 0 1027 1028 1019 1029 1030 0 82 1 1025 0 82
 1 1026 10 81 1 1027 776 785 536 1024 1031 1032 1023 0 81 3 1028 583 798 488 0 1
032 1033 1024 1034 1035 0 82 1 1029 0 82 1 1030 9 14 488 90 1036 ?536 433 1037 4
 477 -0 0 536 433 23 81 1 1032 775 785 488 1028 964 1038 1027 0 81 3 1033 581 79
8 433 0 1038 1039 1028 1040 1041 0 82 1 1034 0 82 1 1035 8 14 433 79 1042 ?488 4
36 1043 4 418 -421 421 488 436 23 81 1 1038 774 785 433 1033 1044 1045 1032 0 81
 3 1039 579 798 436 0 1045 1046 1033 1047 1048 0 82 1 1040 0 82 1 1041 7 14 436
 74 1049 ?433 515 1050 4 423 +0 0 433 515 23 81 1 1045 773 785 436 1039 1051 105
2 1038 0 81 3 1046 577 798 515 0 1052 1053 1039 1054 1055 0 82 1 1047 0 82 1 104
8 6 81 1 1052 772 785 515 1046 1056 0 1045 0 81 3 1053 575 798 194 0 1057 1058 1
046 1059 1060 0 82 1 1054 0 82 1 1055 5 81 1 1057 818 789 194 1053 1061 1056 102
2 1062 81 3 1058 569 798 508 0 1063 0 1053 1064 1065 0 82 1 1059 0 82 1 1060 4 8
1 1 1063 801 789 508 1058 1066 1017 1031 1067 82 1 1064 0 82 1 1065 1 81 2 1066
 825 902 508 1063 1068 0 1061 1069 0 81 1 1017 799 789 578 1011 1070 1006 1063 1
071 81 1 1031 802 789 536 1027 1072 1063 976 1073 82 1 1067 346 81 2 1072 833 90
2 536 1031 1074 1075 1076 1077 0 81 1 976 803 789 539 1023 1076 1031 970 1078 82
 1 1073 346 81 2 1076 834 902 539 976 1079 1072 1080 1081 0 82 1 1078 346 80 2 9
02 1082 1083 9000 0 0 0 0 3 6 0 0 0 FFTFTFTTFFFFFTFF1 2 81 1 1079 1901 680 539 1
076 1084 1074 1085 1086 81 2 1080 835 902 542 1022 1085 1076 1070 1087 0 82 2 10
81 1 10 81 1 1022 819 789 542 1018 1080 1057 957 1088 81 1 1085 1904 680 542 108
0 1089 1079 1090 1091 81 2 1070 836 902 578 1017 1090 1080 1092 1093 0 82 2 1087
 1 11 81 1 1090 1907 680 578 1070 1094 1085 1095 1096 81 2 1092 837 902 432 996
 1095 1070 1097 1098 0 82 2 1093 1 12 81 1 996 797 789 432 1007 1092 990 1006 10
99 81 1 1095 1910 680 432 1092 1100 1090 1101 1102 81 2 1097 838 902 421 1006 11
01 1092 1001 1103 0 82 2 1098 1 13 81 1 1006 798 789 421 989 1097 996 1017 1104
 81 1 1101 1913 680 421 1097 670 1095 669 1105 81 2 1001 840 902 431 995 1106 10
97 994 1107 0 82 2 1103 1 14 81 1 1106 1076 785 431 1001 669 738 681 0 81 2 994
 841 902 476 990 681 1001 686 1108 0 82 2 1107 1 16 81 1 681 1077 785 476 994 67
7 1106 1109 0 81 2 686 842 902 486 957 682 994 691 1110 0 82 2 1108 1 17 81 1 95
7 820 789 486 985 686 1022 952 1111 81 2 691 843 902 555 963 687 686 939 1112 0
 82 2 1110 1 18 81 1 963 809 789 555 942 691 971 959 1113 81 2 939 844 902 490 9
71 934 691 951 1114 0 82 2 1112 1 19 81 2 951 845 902 544 970 946 939 928 1115 0
 82 2 1114 1 20 81 2 928 846 902 546 966 923 951 903 1116 0 82 2 1115 1 21 81 2
 903 847 902 506 959 913 928 896 1117 0 82 2 1116 1 22 82 2 1117 1 23 82 1 1113
 346 82 1 1111 346 81 1 1109 1256 785 508 1118 1119 681 898 0 81 1 1118 1066 789
 508 1068 1109 1068 870 1120 81 1 1119 1880 680 508 1109 1121 804 1122 1123 81 1
 898 1257 785 194 870 1122 1109 795 0 81 1 870 1090 789 194 918 898 1118 866 112
4 81 1 1122 1883 680 194 898 1125 1119 1126 1127 81 1 1125 1884 668 194 1122 514
 1121 1128 1129 81 1 1126 1886 680 515 1130 1128 1122 1131 1132 83 3 1127 .50588
2382392883 .529411792755127 .549019634723663 81 2 1130 829 902 515 1056 1126 106
1 1133 1134 0 81 1 1128 1887 668 515 1126 581 1125 1135 1136 81 1 1131 1889 680
 436 1133 1135 1126 1137 1138 83 3 1132 .505882382392883 .529411792755127 .54901
9634723663 81 2 1133 830 902 436 1051 1131 1130 1139 1140 0 81 1 1135 1890 668 4
36 1131 1049 1128 1141 1142 81 1 1137 1892 680 433 1139 1141 1131 1143 1144 83 3
 1138 .505882382392883 .529411792755127 .549019634723663 81 2 1139 831 902 433 1
044 1137 1133 1075 1145 0 81 1 1141 1893 668 433 1137 1042 1135 1146 1147 81 1 1
143 1895 680 488 1075 1146 1137 1074 1148 83 3 1144 .505882382392883 .5294117927
55127 .549019634723663 81 2 1075 832 902 488 964 1143 1139 1072 1149 0 81 1 1146
 1896 668 488 1143 1036 1141 1150 1151 81 1 1074 1898 680 536 1072 1150 1143 107
9 1152 83 3 1148 .505882382392883 .529411792755127 .549019634723663 81 1 1150 18
99 668 536 1074 538 1146 1084 1153 83 3 1152 .505882382392883 .529411792755127 .
549019634723663 81 2 538 1900 519 536 1150 0 1036 541 1154 1155 81 1 1084 1902 6
68 539 1079 541 1150 1089 1156 83 1 1153 0 81 2 541 1903 519 539 1084 0 538 583
 1157 1158 81 1 1089 1905 668 542 1085 583 1084 1094 1159 83 1 1156 0 81 2 583 1
906 519 542 1089 0 541 1015 1160 1161 81 1 1094 1908 668 578 1090 1015 1089 1100
 1162 83 1 1159 0 81 2 1015 1909 519 578 1094 0 583 577 1163 1164 81 1 1100 1911
 668 432 1095 577 1094 670 1165 83 1 1162 0 81 2 577 1912 519 432 1100 0 1015 43
0 1166 1167 81 1 670 1914 668 421 1101 430 1100 660 1168 83 1 1165 0 83 1 1168 0
 83 1 1166 0 82 1 1167 0 83 1 1163 0 82 1 1164 0 83 1 1160 0 82 1 1161 0 83 1 11
57 0 82 1 1158 0 81 2 1036 1897 519 488 1146 0 1042 538 1169 1170 83 1 1154 0 82
 1 1155 0 81 2 1042 1894 519 433 1141 0 1049 1036 1171 1172 83 1 1169 0 82 1 117
0 0 81 2 1049 1891 519 436 1135 0 581 1042 1173 1174 83 1 1171 0 82 1 1172 0 81
 2 581 1888 519 515 1128 0 514 1049 1175 1176 83 1 1173 0 82 1 1174 0 81 2 514 1
885 519 194 1125 0 512 581 1177 1178 83 1 1175 0 82 1 1176 0 81 2 512 1882 519 5
08 1121 0 530 514 1179 1180 83 1 1177 0 82 1 1178 0 81 1 1121 1881 668 508 1119
 512 1181 1125 1182 81 2 530 1879 519 200 1181 0 527 512 1183 1184 83 1 1179 0 8
2 1 1180 0 81 1 1181 1878 668 200 804 530 529 1121 1185 83 1 1183 0 82 1 1184 0
 81 1 804 1877 680 200 795 1181 797 1119 1186 81 1 529 1875 668 17 797 527 0 118
1 1187 83 1 1185 0 83 1 1187 0 83 3 1186 .505882382392883 .529411792755127 .5490
19634723663 83 1 1182 0 83 1 1151 0 81 1 964 814 789 488 1032 1075 959 1044 1188
 82 2 1149 1 8 81 1 1044 815 789 433 1038 1139 964 1051 1189 82 1 1188 346 81 1
 1051 816 789 436 1045 1133 1044 1056 1190 82 1 1189 346 81 1 1056 817 789 515 1
052 1130 1051 1057 1191 82 1 1190 346 82 1 1191 346 83 1 1147 0 82 2 1145 1 7 83
 1 1142 0 82 2 1140 1 6 83 1 1136 0 81 2 1061 828 902 194 1057 918 1066 1130 119
2 0 82 2 1134 1 5 81 1 918 1029 789 194 1061 870 913 1068 1193 82 2 1192 1 4 81
 1 1068 1031 789 508 1066 1118 918 1118 1194 82 1 1193 2398 82 1 1194 2398 83 1
 1129 0 82 1 1124 2486 83 3 1123 .505882382392883 .529411792755127 .549019634723
663 82 1 1120 2404 81 1 669 1916 680 431 1106 660 1101 677 1195 81 1 738 1004 78
5 602 917 734 733 1106 0 81 1 733 1003 785 570 929 727 715 738 0 83 3 1195 .5058
82382392883 .529411792755127 .549019634723663 83 3 1105 .505882382392883 .529411
792755127 .549019634723663 82 1 1104 346 83 3 1102 .505882382392883 .52941179275
5127 .549019634723663 82 1 1099 346 83 3 1096 .505882382392883 .529411792755127
 .549019634723663 83 3 1091 .505882382392883 .529411792755127 .549019634723663 8
2 1 1088 346 83 3 1086 .505882382392883 .529411792755127 .549019634723663 79 255
 27 1083 SolidEdge/SYNCTOPOLOGY_ATTR82 2 1077 1 9 82 1 1071 346 82 2 1069 1 1 82
 1 1062 346 15 1050 75 0 136 436 0 17 136 0 1050 1196 289 134 333 331 0 349 -17
 1196 0 1050 94 136 95 349 293 0 0 -17 289 0 1050 136 94 117 1197 287 0 333 +17
 333 0 186 133 383 117 136 331 0 0 +17 349 0 1043 454 107 134 1196 293 0 383 +15
 1043 80 0 107 433 0 17 454 0 1043 90 349 91 383 334 0 0 -17 107 0 1043 349 1198
 95 152 291 0 1199 +17 383 0 186 333 141 134 454 334 0 0 +17 1198 0 1043 107 143
 108 337 335 0 0 -17 152 0 528 326 1199 108 107 291 0 1200 -17 1199 0 528 152 31
7 95 94 290 0 1196 -17 317 0 528 1199 124 44 1201 214 0 1197 +17 94 0 1050 289 1
196 44 1199 290 0 317 +17 124 0 528 317 326 122 145 276 0 1201 -17 1201 0 582 33
9 1197 122 317 214 0 1202 -17 1197 0 582 1201 119 44 289 287 0 0 -15 582 68 0 11
9 515 0 17 119 0 582 1197 339 117 133 321 0 289 -17 339 0 582 119 1201 121 1202
 198 0 1203 +17 133 0 186 320 333 121 119 321 0 339 +17 320 0 186 362 133 129 12
03 318 0 0 +17 362 0 186 387 320 139 138 322 0 0 +17 1203 0 540 1202 275 121 320
 318 0 0 -15 540 96 0 1203 536 0 17 1202 0 540 145 1203 122 339 198 0 0 -17 275
 0 540 1203 145 129 1204 273 0 320 +17 145 0 540 275 1202 125 124 276 0 326 +17
 1204 0 1037 1200 138 125 275 273 0 0 -15 1037 91 0 138 488 0 17 1200 0 1037 337
 1204 108 326 303 0 1198 -17 138 0 1037 1204 337 129 362 322 0 275 -17 337 0 103
7 138 1200 139 1198 335 0 362 +17 326 0 528 124 152 125 1200 303 0 1204 +17 387
 0 186 201 362 92 143 363 0 657 +17 201 0 186 178 387 150 657 206 0 0 +17 143 0
 1043 1198 156 139 387 363 0 337 -17 156 0 1043 143 90 92 208 204 1205 387 -17 9
0 0 1043 156 454 88 446 299 442 208 -17 208 0 453 446 657 88 156 204 416 0 +133
 1205 534 0 156 420 440 0 +440 -.01026520770374394 .00280511454770646 -.04877606
55528639 -.0122127220714272 .002480000000002 -.0483252364673402 0 1 137 420 533
 0 1 416 1205 1206 +422 1207 0 ?137 440 535 0 1 1205 442 1208 +418 1209 0 ?141 1
208 1205 1208 1208 440 134 1209 0 0 0 0 0 0 +1210 1211 136 1210 2 9 2 5 5 FFF1 1
212 1213 1214 135 1211 2 0 45 18 1212 4.50496024251132 -.00280511454770646 4.499
645763236285 -.00279832005238156 4.49484453559622 -.00275171439256565 4.49268725
8842145 -.00273077364281031 4.484931363934615 -.00263520536815041 4.478636502757
11 -.002557639977034325 4.474984331796695 -.00252666594583214 4.470120047744415
 -.00248541199369119 4.46485257656176 -.002480000000002 127 5 1213 3 2 2 2 3 128
 5 1214 0 .25 .5 .75 1 141 1206 416 1206 1206 420 134 1207 0 0 0 0 0 0 +1215 121
6 136 1215 2 5 2 3 5 FFF1 1217 1218 1219 135 1216 2 0 45 10 1217 5.0066199403558
7 1.5707963267958 4.88469076471467 1.90971863497197 4.71695362552518 2.135404294
08258 4.52631379880597 2.391904882764085 4.3344533783326 2.40078319240247 127 3
 1218 3 2 3 128 3 1219 0 .5 1 16 299 83 0 860690615069448e-20 446 397 271 0 0 0
 1 50 1016 252 0 578 554 489 0 +.0497849818393537 0 -.002436112327768185 0 0 -1
 -1 0 0 51 554 251 0 546 437 1016 0 +-.017292 .00248 0 0 -1 0 .0013 1 0 0 54 489
 253 0 555 1016 477 0 +.017292 .00348 2117659245085605e-33 0 1 0 .0023 .001 .979
405040166091 0 .201905342418814 50 437 248 0 200 423 554 0 +0 .00248 0 0 1 0 1 0
 0 82 1 1002 346 82 1 997 346 82 1 981 346 82 1 977 346 82 1 972 346 82 1 965 34
6 81 1 722 925 785 561 952 716 704 726 0 82 1 958 1028 81 1 726 926 785 563 940
 723 722 709 0 82 1 953 1028 82 1 947 1028 82 1 941 1028 82 1 935 1606 82 1 930
 1606 82 1 924 1606 82 1 919 1606 81 2 904 1584 902 17 792 799 896 0 1220 0 82 2
 905 1 15 81 1 792 1583 789 17 800 904 786 799 1221 81 1 799 1585 789 17 904 796
 792 842 1222 82 2 1220 1 0 82 1 1222 346 81 3 800 1582 798 17 0 792 790 796 122
3 1224 0 82 1 1221 2892 81 3 790 1495 798 516 0 786 856 800 1225 1226 0 82 1 122
3 4 82 1 1224 6 82 1 1225 6 82 1 1226 0 82 1 901 2892 82 1 897 346 82 1 885 4 82
 1 886 14 82 1 883 2892 81 3 801 1789 798 615 855 842 796 847 1227 1228 0 82 1 8
79 4 82 1 880 17 82 1 1227 6 82 1 1228 9 82 1 878 2892 82 1 872 2892 82 1 864 6
 82 1 865 3 82 1 857 4 82 1 858 16 82 1 850 6 82 1 851 8 82 1 845 2043 82 1 838
 4040 82 1 835 3675 79 23 832 SolidEdge/MNKR_ATTR_CID79 27 828 MONIKER/MONIKER_D
ATA_ATTRIB82 1 822 6 82 1 823 13 82 1 819 2043 82 1 815 6 82 1 816 2 82 1 810 6
 82 1 811 4 83 3 805 .505882382392883 .529411792755127 .549019634723663 82 1 802
 0 82 1 803 0 82 1 793 4040 79 17 788 SolidEdge/Display79 15 784 SDL/TYSA_COLOUR
83 1 779 0 82 1 780 0 83 3 778 .505882382392883 .529411792755127 .54901963472366
3 83 3 774 .505882382392883 .529411792755127 .549019634723663 83 1 768 0 82 1 76
9 0 83 3 767 .505882382392883 .529411792755127 .549019634723663 83 1 762 0 82 1
 763 0 83 3 761 .505882382392883 .529411792755127 .549019634723663 83 1 755 0 82
 1 756 0 83 3 754 .505882382392883 .529411792755127 .549019634723663 83 1 748 0
 82 1 749 0 83 3 747 .505882382392883 .529411792755127 .549019634723663 83 1 741
 0 82 1 742 0 83 3 740 .505882382392883 .529411792755127 .549019634723663 83 3 7
35 .505882382392883 .529411792755127 .549019634723663 83 1 729 0 82 1 730 0 83 3
 728 .505882382392883 .529411792755127 .549019634723663 83 3 724 .50588238239288
3 .529411792755127 .549019634723663 83 1 718 0 82 1 719 0 83 3 717 .505882382392
883 .529411792755127 .549019634723663 83 1 712 0 82 1 713 0 83 3 711 .5058823823
92883 .529411792755127 .549019634723663 83 3 706 .505882382392883 .5294117927551
27 .549019634723663 83 1 700 0 82 1 701 0 83 3 699 .505882382392883 .52941179275
5127 .549019634723663 83 1 694 0 82 1 695 0 83 3 693 .505882382392883 .529411792
755127 .549019634723663 83 3 688 .505882382392883 .529411792755127 .549019634723
663 83 3 683 .505882382392883 .529411792755127 .549019634723663 79 21 679 SDL/TY
SA_TRANSLUCENCY83 1 673 0 82 1 674 0 83 1 672 0 79 21 667 SDL/TYSA_REFLECTIVITY1
7 203 0 513 177 643 167 193 197 0 192 +17 643 0 513 203 217 35 359 25 0 193 -17
 193 0 191 185 192 35 203 197 0 0 -16 197 53 0 ?203 215 184 210 0 0 1 17 147 0 5
34 302 149 126 357 277 0 653 -15 534 26 0 147 17 642 17 302 0 534 103 147 104 65
3 300 0 652 +17 149 0 534 147 324 111 110 283 0 357 -17 324 0 534 149 103 105 64
9 304 0 647 +17 103 0 534 324 302 101 154 281 0 649 -17 43 0 642 359 81 35 185 1
96 0 643 +17 31 0 525 64 24 55 26 32 0 30 -17 641 0 518 634 526 55 64 225 0 0 -1
7 526 0 518 641 633 56 60 223 0 0 -17 633 0 518 526 634 48 221 219 0 60 -17 60 0
 59 72 57 48 526 223 0 0 +17 634 0 518 633 641 51 30 222 0 0 -17 30 0 28 26 54 5
5 634 222 0 641 +17 38 0 37 70 34 58 42 228 0 180 -83 1 625 0 82 1 626 0 15 607
 979 0 1229 602 0 17 1229 0 607 1229 1229 0 257 255 0 0 -17 257 0 1230 257 257 0
 1229 255 0 0 +15 1230 973 0 257 506 0 83 1 605 0 82 1 606 0 15 591 561 0 1231 5
55 597 17 1231 0 591 1231 1231 0 355 267 0 0 -17 355 0 573 355 355 0 1231 267 0
 0 +15 573 222 0 355 506 1230 83 1 589 0 82 1 590 0 83 1 568 0 82 1 569 0 17 558
 0 487 558 558 0 408 330 0 0 -15 487 558 0 558 476 464 83 1 551 0 82 1 552 0 83
 1 531 0 82 1 532 0 83 1 522 0 82 1 523 0 40 3 499 0 1 3 .0002318748847467075 .1
906576350141605 ??-.01308824837213776 .00248 -.0534200126782953 -.01113704620669
27 .002625367643922145 -.0538606182826561 -.00955571875460013 .00248 -.054163532
3726489 41 1 500 L?-.01308824837213776 .00248 -.0534200126782953 41 1 501 L?-.00
955571875460013 .00248 -.0541635323726489 204 12 502 4 .596061712830353 1.570796
32678945 3.381866023606855 .044820928 1.265887407484338 2.116750278240215 3.3454
94368446235 .04496629564392215 1.79051491091909 1.570796291243655 3.316219164655
185 .044820928 40 2 472 .00205985592226103 .997974516218367 2 .00026438297481861
5 .3825867817395155 ??.01308824838771028 .00248 -.0534200126744799 .011137046221
74014 .002625367644566255 -.0538606182795447 41 1 473 L?.01308824838771028 .0024
8 -.0534200126744799 41 1 474 L?.01113704622174014 .002625367644566255 -.0538606
182795447 204 8 475 4 2.90131928328122 .044820928 3.737654362199625 -1.570796318
21316 ????16 285 124 0 164604423140849e-19 411 282 283 0 0 0 1 141 435 447 1232
 1233 422 141 1232 211 1233 435 422 141 1233 420 435 1232 422 81 1 249 1147 232
 189 0 0 0 188 1234 80 1 232 1235 1236 9000 0 0 0 0 3 6 0 0 0 FFFFTFTTFFFFFFFF1
 81 1 188 1268 232 181 0 0 249 229 1237 82 1 1234 17 82 1 1237 17 79 27 1236 Sol
idEdge/MNKR_ATTR_TYPE_EX82 1 233 17 19 18 1 0 1 0 8 4 0 S0 74 4 CI16 index_map_o
ffset0 0 1 dCCZ20 16 12 0 0 1238 1239 820 1240 765 821 904 229 2 777 520 517 0 0
 0 0 0 0 0 0 81 1 1238 469 1241 1 0 1239 0 0 1242 81 1 1239 470 1243 1 1238 1240
 0 0 1244 81 2 1240 651 1245 1 1239 1246 0 0 1247 1248 80 2 1245 11 1249 9000 2
 2 2 2 3 6 0 0 0 FFTFFFFFFFFFFFFF2 3 81 3 1246 1867 11 1 1240 1250 0 1250 1251 1
252 1253 83 2 1247 1 25 84 255 19 1248 SE 222.0.2.3 Type8680 3 11 1254 1255 9000
 0 0 0 0 3 6 0 0 0 FFTFFFFFFFFFFFFF3 3 1 81 3 1250 1868 11 1 1246 1256 1246 1256
 1257 1258 1259 84 38 1251 {3e0a39ed-857f-4a4f-a006-73fc56893691}84 2 1252 SE82
 1 1253 0 81 3 1256 1869 11 1 1250 12 1250 12 1260 1261 1262 84 38 1257 {19f0868
4-696e-440f-a3eb-38564907a181}84 2 1258 SE82 1 1259 2 81 3 12 1870 11 1 1256 2 1
256 2 1263 1264 1265 84 38 1260 {86590572-07bb-4759-929e-dd315a5e4ce0}84 2 1261
 SE82 1 1262 3 84 38 1263 {16065879-8486-4e74-ba63-ef02d2e611af}84 2 1264 SE82 1
 1265 4 79 25 1255 MONIKER/GUID_TABLE_ATTRIB79 22 1249 MONIKER/BODY_ID_ATTRIB80
 1 1243 1241 1266 8038 0 0 0 0 0 0 0 0 0 TTTTTTTTTTTTTFTF10 98 255 2 1244 80 49
 79 14 1266 SDL/TYSA_UNAME80 1 1241 1267 1268 8017 0 0 0 0 0 0 0 0 0 TTTTTTTTTTT
TTFTF3 84 2 1242 P179 13 1268 SDL/TYSA_NAME84 38 13 {a5e70661-a4ce-440b-bb6a-e77
177794a2b}84 2 14 SE82 1 15 6 1 0 
