**ABCDEFGHIJKLMNOPQRSTUVWXYZabcdefghijklmnopqrstuvwxyz**************************
**PARASOLID !"#$%&'()*+,-./:;<=>?@[\]^_`{|}~0123456789**************************
**PART1;
MC=KTH-12182;
MC_MODEL=unknown;
MC_ID=unknown;
OS=Windows NT;
OS_RELEASE=6.2;
FRU=Unigraphics Solutions;
APPL=SolidEdge;
SITE=Huntsville, AL;
USER=rimmie
FORMAT=text;
GUISE=transmit;
KEY=C:\Users\rimmie\OneDrive - KTH\PhD\Course work\MF2104- Mechatronics\mechatronic-project\CAD_files-frame\structure_v4;
FILE=C:\Users\rimmie\OneDrive - KTH\PhD\Course work\MF2104- Mechatronics\mechatronic-project\CAD_files-frame\structure_v4.x_t;
DATE=tor, dec 01 22;
**PART2;
SCH=SCH_3400153_34001;
USFLD_SIZE=0;
**PART3;
**END_OF_HEADER*****************************************************************
T51 : TRANSMIT FILE created by modeller version 340015323 SCH_3400153_34001_1300
6231 0 12 36 CCCI7 lattice222 0 CCCI4 mesh1006 0 I8 polyline1008 0 CCCCCCCDI5 ow
ner1040 0 CCCI16 boundary_lattice222 0 CCCI13 boundary_mesh1006 0 I17 boundary_p
olyline1008 0 CCCA16 index_map_offset0 0 1 dA9 index_map82 0 A17 node_id_index_m
ap82 0 A20 schema_embedding_map82 0 A5 child12 0 A14 lowest_node_id0 0 1 dA16 me
sh_offset_data206 0 Z1 418 2 3 0 0 0 0 0 0 0 1e3 1e-8 0 4 0 1 0 1 1 5 0 6 7 8 0
 0 9 10 11 0 0 0 0 0 0 0 81 255 3 2 338 12 1 13 0 0 0 14 15 16 70 11 CI9 list_ty
pe0 0 1 uI10 notransmit0 0 1 lCCCDCCDI12 finger_index0 0 1 dI12 finger_block1012
 0 CZ3 0 4 T1 0 0 10 20 1 17 17 13 255 5 3 0 1 0 18 0 0 19 0 50 255 6 253 0 18 2
0 0 0 +-.04357 -.003 .0175 0 0 -1 -1 0 0 30 255 7 268 0 10 21 0 0 +-.04357 -.003
 .0175 0 1 0 29 255 8 179 0 22 23 0 -.04057 0 .0175 19 9 CCCCCCI5 frame230 0 CA5
 owner12 0 Z9 1 0 1 19 0 24 0 V0 16 255 10 208 0 ?25 0 26 7 0 0 1 18 255 11 83 0
 27 0 28 29 ?1 17 255 27 0 30 31 32 11 33 34 0 35 -18 28 77 0 36 11 37 38 ?1 29
 29 86 0 11 38 39 -.04057 -.003 .0175 29 38 80 0 28 40 29 -.04057 -.003 .016 29
 39 193 0 41 29 42 -.04357 0 .0175 18 41 162 0 25 43 0 39 ?1 29 42 192 0 43 39 4
4 -.04357 0 .0195 18 43 161 0 45 46 41 42 ?1 29 44 191 0 46 42 47 -.04057 0 .019
5 18 46 160 0 48 49 43 44 ?1 29 47 190 0 49 44 50 -.04057 0 .021 18 49 159 0 51
 52 46 47 ?1 29 50 189 0 52 47 53 -.0025 0 .021 18 52 158 0 54 55 49 50 ?1 29 53
 188 0 55 50 56 -.0025 0 .035 18 55 157 0 57 58 52 53 ?1 29 56 187 0 58 53 59 -.
001 0 .035 18 58 156 0 60 61 55 56 ?1 29 59 186 0 61 56 62 -.001 0 .038 18 61 15
5 0 63 64 58 59 ?1 29 62 185 0 64 59 65 .001 0 .038 18 64 154 0 66 67 61 62 ?1 2
9 65 184 0 67 62 68 .001 0 .035 18 67 153 0 69 70 64 65 ?1 29 68 183 0 70 65 71
 .0025 0 .035 18 70 152 0 72 73 67 68 ?1 29 71 182 0 73 68 23 .0025 0 .016 18 73
 151 0 74 75 70 71 ?1 29 23 180 0 75 71 8 -.04057 0 .016 18 75 149 0 76 22 73 23
 ?1 17 76 0 77 74 36 75 78 79 0 80 +18 22 148 0 33 81 75 8 ?1 17 33 0 82 80 35 2
2 27 34 0 83 +18 81 2 0 84 85 22 86 ?1 17 84 0 87 88 89 81 25 10 0 90 -18 85 5 0
 91 92 81 93 ?1 29 86 4 0 81 0 93 -.04357 -.003 .0175 29 93 8 0 85 86 94 -.04357
 -.003 .0195 29 94 14 0 92 93 95 -.04057 -.003 .0195 18 92 11 0 96 97 85 94 ?1 2
9 95 20 0 97 94 98 -.04057 -.003 .021 18 97 17 0 99 100 92 95 ?1 29 98 26 0 100
 95 101 -.0025 -.003 .021 18 100 23 0 102 103 97 98 ?1 29 101 32 0 103 98 104 -.
0025 -.003 .035 18 103 29 0 105 106 100 101 ?1 29 104 38 0 106 101 107 -.001 -.0
03 .035 18 106 35 0 108 109 103 104 ?1 29 107 44 0 109 104 110 -.001 -.003 .038
 18 109 41 0 111 112 106 107 ?1 29 110 50 0 112 107 113 .001 -.003 .038 18 112 4
7 0 114 115 109 110 ?1 29 113 56 0 115 110 116 .001 -.003 .035 18 115 53 0 117 1
18 112 113 ?1 29 116 62 0 118 113 40 .0025 -.003 .035 18 118 59 0 119 37 115 116
 ?1 29 40 68 0 37 116 38 .0025 -.003 .016 18 37 65 0 120 28 118 40 ?1 17 120 0 7
7 36 74 37 121 122 0 123 -15 255 77 211 0 74 124 0 17 36 0 77 76 120 28 125 126
 0 78 +17 74 0 77 120 76 73 127 128 0 121 -17 121 0 129 130 123 73 120 122 0 131
 +16 122 197 0 ?121 132 79 133 0 0 1 17 123 0 129 121 119 37 134 135 0 125 +15 1
29 215 0 130 136 0 17 119 0 129 123 130 118 72 132 0 137 -17 134 0 138 139 125 1
18 123 135 0 0 -16 135 66 0 ?123 126 140 141 0 0 1 17 125 0 138 134 142 37 36 12
6 0 0 -15 138 91 0 143 144 0 17 142 0 138 125 143 28 35 145 0 0 -16 126 72 0 ?36
 145 135 146 0 0 1 16 145 84 0 ?35 34 126 147 0 0 1 30 146 73 0 126 141 147 0 +2
602426783080745e-33 -.003 .016 -1 0 0 30 141 67 0 135 148 146 0 +.0025 -.003 .01
6 0 0 -1 30 147 85 0 145 146 149 0 +-.04057 -.003 .0175 0 0 1 30 149 90 0 150 14
7 151 0 +-.04357 -.003 .0175 -1 0 0 16 150 89 0 ?31 152 153 149 0 0 1 30 151 178
 0 154 149 155 0 +-.04357 0 .0175 0 0 1 16 154 142 156 ?157 158 159 151 0 0 1 30
 155 177 0 158 151 160 0 +-.04057 0 .0195 1 0 1156482317317868e-30 16 158 139 16
1 ?162 163 154 155 0 0 1 30 160 176 0 163 155 164 0 +-.04057 0 .021 0 0 1 16 163
 136 165 ?166 167 158 160 0 0 1 30 164 175 0 167 160 168 0 +-.0025 0 .021 1 0 91
1333583386817e-31 16 167 133 169 ?170 171 163 164 0 0 1 30 168 174 0 171 164 172
 0 +-.0025 0 .035 0 0 1 16 171 130 173 ?174 175 167 168 0 0 1 30 172 173 0 175 1
68 176 0 +-.001 0 .035 1 0 0 16 175 127 177 ?178 179 171 172 0 0 1 30 176 172 0
 179 172 180 0 +-.001 0 .038 0 0 1 16 179 124 181 ?182 183 175 176 0 0 1 30 180
 171 0 183 176 184 0 +.001 0 .038 1 0 0 16 183 121 185 ?186 187 179 180 0 0 1 30
 184 170 0 187 180 188 0 +.001 0 .035 0 0 -1 16 187 118 189 ?190 191 183 184 0 0
 1 30 188 169 0 191 184 192 0 +.001 0 .035 1 0 0 16 191 115 193 ?194 195 187 188
 0 0 1 30 192 168 0 195 188 196 0 +.0025 0 .016 0 0 -1 16 195 112 197 ?131 128 1
91 192 0 0 1 30 196 166 0 128 192 198 0 +2602426783080745e-33 0 .016 -1 0 -85517
5487294457e-31 16 128 106 199 ?127 153 195 196 0 0 1 30 198 165 0 153 196 200 0
 +-.04057 0 .0175 0 0 1 16 153 103 201 ?83 150 128 198 0 0 1 30 200 164 0 159 19
8 202 0 +-.04357 0 .0175 -1 0 0 16 159 145 203 ?204 154 0 200 0 0 1 30 202 254 0
 34 200 205 0 +-.04057 -.003 .0175 0 1 0 16 34 194 0 ?33 79 145 202 0 0 1 30 205
 255 0 79 202 133 0 +-.04057 -.003 .016 0 1 0 16 79 195 0 ?76 122 34 205 0 0 1 3
0 133 257 0 122 205 206 0 +.0025 -.003 .016 0 1 0 30 206 258 0 132 133 207 0 +.0
025 -.003 .035 0 1 0 16 132 198 0 ?72 208 122 206 0 0 1 30 207 259 0 208 206 209
 0 +.001 -.003 .035 0 1 0 16 208 199 0 ?69 210 132 207 0 0 1 30 209 260 0 210 20
7 211 0 +.001 -.003 .038 0 1 0 16 210 200 0 ?66 212 208 209 0 0 1 30 211 261 0 2
12 209 213 0 +-.001 -.003 .038 0 1 0 16 212 201 0 ?63 214 210 211 0 0 1 30 213 2
62 0 214 211 215 0 +-.001 -.003 .035 0 1 0 16 214 202 0 ?60 216 212 213 0 0 1 30
 215 263 0 216 213 217 0 +-.0025 -.003 .035 0 1 0 16 216 203 0 ?57 218 214 215 0
 0 1 30 217 264 0 218 215 219 0 +-.0025 -.003 .021 0 1 0 16 218 204 0 ?54 220 21
6 217 0 0 1 30 219 265 0 220 217 221 0 +-.04057 -.003 .021 0 1 0 16 220 205 0 ?5
1 222 218 219 0 0 1 30 221 266 0 222 219 21 0 +-.04057 -.003 .0195 0 1 0 16 222
 206 0 ?48 26 220 221 0 0 1 30 21 267 0 26 221 7 0 +-.04357 -.003 .0195 0 1 0 16
 26 207 0 ?45 10 222 21 0 0 1 17 45 0 87 89 88 43 91 26 0 223 +15 87 235 0 89 22
4 0 17 89 0 87 84 45 41 157 154 0 204 -17 88 0 87 45 84 85 90 152 0 225 +17 91 0
 226 227 223 85 45 26 0 88 -17 223 0 226 91 48 43 162 158 0 157 -15 226 233 0 22
3 228 0 17 48 0 226 223 227 46 96 222 0 229 +17 162 0 230 166 157 46 223 158 0 0
 +17 157 0 230 162 204 43 89 154 0 0 +15 230 102 0 204 231 0 17 204 0 230 157 83
 41 32 159 0 0 +17 83 0 230 204 127 22 80 153 0 32 +17 32 0 30 27 25 22 204 159
 0 0 -15 30 237 0 32 18 0 17 25 0 30 32 31 41 84 10 0 89 +17 31 0 30 25 27 81 14
3 150 0 0 +17 143 0 138 142 90 11 31 150 0 0 -17 90 0 138 143 225 81 88 152 0 31
 -17 225 0 138 90 232 85 227 233 0 0 -16 152 6 0 ?88 233 150 234 0 0 1 16 233 12
 0 ?227 235 152 236 0 0 1 30 234 7 0 152 0 236 0 +-.04357 -.003 .0175 0 0 1 30 2
36 13 0 233 234 237 0 +-.04057 -.003 .0195 1 0 1156482317317868e-30 30 237 19 0
 235 236 238 0 +-.04057 -.003 .021 0 0 1 16 235 18 0 ?239 240 233 237 0 0 1 30 2
38 25 0 240 237 241 0 +-.0025 -.003 .021 1 0 911333583386817e-31 16 240 24 0 ?24
2 243 235 238 0 0 1 30 241 31 0 243 238 244 0 +-.0025 -.003 .035 0 0 1 16 243 30
 0 ?245 246 240 241 0 0 1 30 244 37 0 246 241 247 0 +-.001 -.003 .035 1 0 0 16 2
46 36 0 ?248 249 243 244 0 0 1 30 247 43 0 249 244 250 0 +-.001 -.003 .038 0 0 1
 16 249 42 0 ?251 252 246 247 0 0 1 30 250 49 0 252 247 253 0 +.001 -.003 .038 1
 0 0 16 252 48 0 ?254 255 249 250 0 0 1 30 253 55 0 255 250 148 0 +.001 -.003 .0
35 0 0 -1 16 255 54 0 ?256 140 252 253 0 0 1 30 148 61 0 140 253 141 0 +.001 -.0
03 .035 1 0 0 16 140 60 0 ?137 135 255 148 0 0 1 17 137 0 257 72 117 118 139 140
 0 134 +15 257 217 0 258 259 0 17 72 0 257 258 137 70 119 132 0 130 +17 117 0 25
7 137 258 115 69 208 0 256 -17 139 0 138 260 134 115 137 140 0 0 -17 260 0 138 2
61 139 112 256 255 0 0 -17 261 0 138 262 260 109 254 252 0 0 -17 256 0 263 69 11
4 115 260 255 0 139 +15 263 219 0 264 265 0 17 69 0 263 264 256 67 117 208 0 258
 +17 114 0 263 256 264 112 66 210 0 254 -17 264 0 263 114 69 64 190 187 0 186 -1
7 66 0 266 267 254 64 114 210 0 264 +17 254 0 266 66 111 112 261 252 0 260 +15 2
66 221 0 267 268 0 17 111 0 266 254 267 109 63 212 0 251 -17 267 0 266 111 66 61
 186 183 0 182 -17 63 0 269 270 251 61 111 212 0 267 +17 251 0 269 63 108 109 26
2 249 0 261 +15 269 223 0 270 271 0 17 108 0 269 251 270 106 60 214 0 248 -17 26
2 0 138 272 261 106 251 249 0 0 -17 272 0 138 273 262 103 248 246 0 0 -17 273 0
 138 274 272 100 245 243 0 0 -17 248 0 275 60 105 106 272 246 0 262 +15 275 225
 0 276 277 0 17 60 0 275 276 248 58 108 214 0 270 +17 105 0 275 248 276 103 57 2
16 0 245 -17 276 0 275 105 60 55 178 175 0 174 -17 57 0 278 279 245 55 105 216 0
 276 +17 245 0 278 57 102 103 273 243 0 272 +15 278 227 0 279 280 0 17 102 0 278
 245 279 100 54 218 0 242 -17 279 0 278 102 57 52 174 171 0 170 -17 54 0 281 282
 242 52 102 218 0 279 +17 242 0 281 54 99 100 274 240 0 273 +15 281 229 0 282 28
3 0 17 99 0 281 242 282 97 51 220 0 239 -17 274 0 138 232 273 97 242 240 0 0 -17
 232 0 138 225 274 92 239 235 0 0 -17 239 0 284 51 96 97 232 235 0 274 +15 284 2
31 0 229 285 0 17 51 0 284 229 239 49 99 220 0 282 +17 96 0 284 239 229 92 48 22
2 0 227 -17 229 0 284 96 51 46 166 163 0 162 -17 227 0 226 48 91 92 225 233 0 23
2 +17 166 0 230 170 162 49 229 163 0 0 +17 170 0 230 174 166 52 282 167 0 0 +17
 174 0 230 178 170 55 279 171 0 0 +17 282 0 281 99 54 49 170 167 0 166 -17 178 0
 230 182 174 58 276 175 0 0 +17 182 0 230 186 178 61 270 179 0 0 +17 186 0 230 1
90 182 64 267 183 0 0 +17 270 0 269 108 63 58 182 179 0 178 -17 190 0 230 194 18
6 67 264 187 0 0 +17 194 0 230 131 190 70 258 191 0 0 +17 131 0 230 127 194 73 1
30 195 0 0 +17 258 0 257 117 72 67 194 191 0 190 -17 127 0 230 83 131 75 74 128
 0 0 +17 130 0 129 119 121 70 131 195 0 194 -14 255 285 232 286 ?283 228 284 5 2
87 +0 0 283 228 24 81 2 286 382 288 285 289 0 290 291 292 293 14 283 230 291 ?28
0 285 281 5 294 +0 0 280 285 24 14 228 234 290 ?285 224 226 5 295 +0 0 285 224 2
4 50 287 250 0 285 294 295 0 +-.04057 -.003 .021 -1 0 0 0 0 1 13 24 269 0 0 0 0
 0 0 9 18 14 18 238 296 ?224 0 30 5 6 +0 0 224 0 24 81 2 296 373 288 18 297 0 0
 298 299 300 14 224 236 298 ?228 18 87 5 20 +0 0 228 18 24 81 2 298 376 288 224
 301 0 296 290 302 303 50 20 252 0 224 295 6 0 +-.04357 -.003 .0175 -1 0 0 0 0 1
 50 295 251 0 228 287 20 0 +-.04057 -.003 .0195 -1156482317317868e-30 0 1 1 0 11
56482317317868e-30 80 7 CCCCCDI12 legal_owners0 16 1 lCZ2 288 304 305 8014 0 0 0
 0 3 5 0 0 0 FFFFTFFFFFFFFFFF2 1 81 1 301 375 306 224 307 298 297 308 309 81 2 2
90 379 288 228 308 0 298 286 310 311 83 255 1 302 0 82 255 1 303 0 81 1 308 378
 306 228 312 290 301 289 313 83 1 310 0 82 1 311 0 80 1 306 288 314 8015 0 0 0 0
 3 5 0 0 0 FFFFTFFFFFFFFFFF2 81 1 312 377 315 228 316 308 307 317 318 81 1 289 3
81 306 285 317 286 308 319 320 83 1 313 0 81 1 317 380 315 285 321 289 312 322 3
23 81 1 319 384 306 283 322 291 289 324 325 83 1 320 0 81 1 322 383 315 283 326
 319 317 327 328 81 2 291 385 288 283 319 0 286 329 330 331 81 1 324 387 306 280
 327 329 319 332 333 83 1 325 0 14 280 228 329 ?277 283 278 5 334 +0 0 277 283 2
4 81 1 327 386 315 280 335 324 322 336 337 81 2 329 388 288 280 324 0 291 338 33
9 340 81 1 332 390 306 277 336 338 324 341 342 83 1 333 0 14 277 226 338 ?271 28
0 275 5 343 +0 0 271 280 24 81 1 336 389 315 277 344 332 327 345 346 81 2 338 39
1 288 277 332 0 329 347 348 349 81 1 341 393 306 271 345 347 332 350 351 83 1 34
2 0 14 271 224 347 ?268 277 269 5 352 +0 0 268 277 24 81 1 345 392 315 271 353 3
41 336 354 355 81 2 347 394 288 271 341 0 338 356 357 358 81 1 350 396 306 268 3
54 356 341 359 360 83 1 351 0 14 268 222 356 ?265 271 266 5 361 +0 0 265 271 24
 81 1 354 395 315 268 362 350 345 363 364 81 2 356 397 288 268 350 0 347 365 366
 367 81 1 359 399 306 265 363 365 350 368 369 83 1 360 0 14 265 220 365 ?259 268
 263 5 370 +0 0 259 268 24 81 1 363 398 315 265 371 359 354 372 373 81 2 365 400
 288 265 359 0 356 374 375 376 81 1 368 402 306 259 372 374 359 377 378 83 1 369
 0 14 259 218 374 ?136 265 257 5 379 +0 0 136 265 24 81 1 372 401 315 259 380 36
8 363 381 382 81 2 374 403 288 259 368 0 365 383 384 385 81 1 377 405 306 136 38
1 383 368 386 387 83 1 378 0 14 136 216 383 ?124 259 129 5 388 +0 0 124 259 24 8
1 1 381 404 315 136 389 377 372 390 391 81 2 383 406 288 136 377 0 374 392 393 3
94 81 1 386 408 306 124 390 392 377 395 396 83 1 387 0 14 124 212 392 ?397 136 7
7 5 398 +0 0 397 136 24 81 1 390 407 315 124 399 386 381 400 401 81 2 392 409 28
8 124 386 0 383 402 403 404 81 1 395 411 306 397 400 402 386 405 406 83 1 396 0
 14 397 210 402 ?144 124 82 5 407 +0 0 144 124 24 81 1 400 410 315 397 408 395 3
90 409 410 81 2 402 412 288 397 395 0 392 411 412 413 81 1 405 414 306 144 409 4
11 395 414 415 83 1 406 0 14 144 92 411 ?231 397 138 5 416 -0 0 231 397 24 81 1
 409 413 315 144 417 405 400 418 419 81 2 411 415 288 144 405 0 402 420 421 422
 81 1 414 417 306 231 418 420 405 0 423 83 1 415 0 14 231 101 420 ?0 144 230 5 4
24 +0 0 0 144 24 81 1 418 416 315 231 425 414 409 0 426 81 2 420 418 288 231 414
 0 411 0 427 428 83 1 423 0 83 1 427 0 82 1 428 0 80 1 315 0 429 8001 0 0 0 0 3
 5 0 0 0 FFFFTFTFFFFFFFFF2 81 2 425 370 430 231 431 418 417 0 432 0 83 3 426 .50
5882382392883 .529411792755127 .549019634723663 80 2 430 433 434 9000 0 0 0 0 3
 6 0 0 0 FFTFTFTTFFFFFTFF1 2 81 1 431 354 435 231 436 425 437 0 0 81 2 417 369 4
30 144 437 409 408 425 438 0 82 2 432 1 15 81 1 437 353 435 144 439 417 440 431
 0 81 2 408 368 430 397 440 400 399 417 441 0 82 2 438 1 14 81 1 440 352 435 397
 442 408 443 437 0 81 2 399 367 430 124 443 390 389 408 444 0 82 2 441 1 13 81 1
 443 351 435 124 445 399 446 440 0 81 2 389 366 430 136 446 381 380 399 447 0 82
 2 444 1 12 81 1 446 350 435 136 448 389 449 443 0 81 2 380 365 430 259 449 372
 371 389 450 0 82 2 447 1 11 81 1 449 349 435 259 451 380 452 446 0 81 2 371 364
 430 265 452 363 362 380 453 0 82 2 450 1 10 81 1 452 348 435 265 454 371 455 44
9 0 81 2 362 363 430 268 455 354 353 371 456 0 82 2 453 1 9 81 1 455 347 435 268
 457 362 458 452 0 81 2 353 362 430 271 458 345 344 362 459 0 82 2 456 1 8 81 1
 458 346 435 271 460 353 461 455 0 81 2 344 361 430 277 461 336 335 353 462 0 82
 2 459 1 7 81 1 461 345 435 277 463 344 464 458 0 81 2 335 360 430 280 464 327 3
26 344 465 0 82 2 462 1 6 81 1 464 344 435 280 466 335 467 461 0 81 2 326 359 43
0 283 467 322 321 335 468 0 82 2 465 1 5 81 1 467 343 435 283 469 326 470 464 0
 81 2 321 358 430 285 470 317 316 326 471 0 82 2 468 1 4 81 1 470 342 435 285 47
2 321 473 467 0 81 2 316 357 430 228 473 312 474 321 475 0 82 2 471 1 3 81 1 473
 341 435 228 476 316 477 470 0 81 2 474 356 430 224 477 307 478 316 479 0 82 2 4
75 1 2 81 1 477 340 435 224 480 474 481 473 0 81 1 307 374 315 224 474 301 482 3
12 483 81 2 478 355 430 18 481 482 0 474 484 0 82 2 479 1 1 81 1 481 339 435 18
 485 478 0 477 0 81 1 482 371 315 18 478 297 0 307 486 82 2 484 1 0 81 1 297 372
 306 18 482 296 0 301 487 83 3 486 .505882382392883 .529411792755127 .5490196347
23663 83 1 487 0 80 1 435 488 489 9000 1 1 1 1 1 1 1 1 0 FFFFTFTTFFFFFFFF1 81 1
 485 322 490 18 491 481 0 480 492 80 1 490 493 494 9000 0 0 0 0 3 6 0 0 0 FFFFTF
FFFFFFFFFF1 81 3 491 289 495 18 0 485 0 496 497 498 0 81 1 480 323 490 224 496 4
77 485 476 499 82 1 492 881 81 3 496 292 495 224 0 480 491 500 501 502 0 81 1 47
6 324 490 228 500 473 480 472 503 82 1 499 881 81 3 500 294 495 228 0 476 496 50
4 505 506 0 81 1 472 325 490 285 504 470 476 469 507 82 1 503 881 81 3 504 296 4
95 285 0 472 500 508 509 510 0 81 1 469 326 490 283 508 467 472 466 511 82 1 507
 881 81 3 508 298 495 283 0 469 504 512 513 514 0 81 1 466 327 490 280 512 464 4
69 463 515 82 1 511 881 81 3 512 300 495 280 0 466 508 516 517 518 0 81 1 463 32
8 490 277 516 461 466 460 519 82 1 515 881 81 3 516 302 495 277 0 463 512 520 52
1 522 0 81 1 460 329 490 271 520 458 463 457 523 82 1 519 881 81 3 520 304 495 2
71 0 460 516 524 525 526 0 81 1 457 330 490 268 524 455 460 454 527 82 1 523 881
 81 3 524 306 495 268 0 457 520 528 529 530 0 81 1 454 331 490 265 528 452 457 4
51 531 82 1 527 881 81 3 528 308 495 265 0 454 524 532 533 534 0 81 1 451 332 49
0 259 532 449 454 448 535 82 1 531 881 81 3 532 310 495 259 0 451 528 536 537 53
8 0 81 1 448 333 490 136 536 446 451 445 539 82 1 535 881 81 3 536 312 495 136 0
 448 532 540 541 542 0 81 1 445 334 490 124 540 443 448 442 543 82 1 539 881 81
 3 540 314 495 124 0 445 536 544 545 546 0 81 1 442 335 490 397 544 440 445 439
 547 82 1 543 881 81 3 544 316 495 397 0 442 540 548 549 550 0 81 1 439 336 490
 144 548 437 442 436 551 82 1 547 881 81 3 548 318 495 144 0 439 544 552 553 554
 0 81 1 436 337 490 231 552 431 439 0 555 82 1 551 881 81 3 552 320 495 231 0 43
6 548 0 556 557 0 82 1 555 881 80 3 495 558 559 9000 0 0 0 0 3 6 0 0 0 FFFFTFTTF
FFFFFFF1 1 3 82 1 556 2 82 1 557 31 79 255 27 559 MONIKER/MONIKER_DATA_ATTRIB82
 1 553 2 82 1 554 30 82 1 549 2 82 1 550 29 82 1 545 2 82 1 546 28 82 1 541 2 82
 1 542 27 82 1 537 2 82 1 538 26 82 1 533 2 82 1 534 25 82 1 529 2 82 1 530 24 8
2 1 525 2 82 1 526 23 82 1 521 2 82 1 522 22 82 1 517 2 82 1 518 21 82 1 513 2 8
2 1 514 20 82 1 509 2 82 1 510 19 82 1 505 2 82 1 506 18 82 1 501 2 82 1 502 17
 82 1 497 2 82 1 498 16 79 23 494 SolidEdge/MNKR_ATTR_CID79 17 489 SolidEdge/Dis
play83 3 483 .505882382392883 .529411792755127 .549019634723663 79 27 434 SolidE
dge/SYNCTOPOLOGY_ATTR79 15 429 SDL/TYSA_COLOUR50 424 163 0 231 416 407 0 +0 0 0
 0 1 0 0 0 1 50 416 95 0 144 0 424 0 +0 -.003 0 0 1 0 0 0 1 50 407 239 0 397 424
 398 0 +-.04057 -.003 .0175 -1 0 0 0 0 1 50 398 240 0 124 407 388 0 +26024267830
80745e-33 -.003 .016 855175487294457e-31 0 -1 -1 0 -855175487294457e-31 50 388 2
42 0 136 398 379 0 +.0025 -.003 .016 1 0 0 0 0 -1 50 379 243 0 259 388 370 0 +.0
01 -.003 .035 0 0 1 1 0 0 50 370 244 0 265 379 361 0 +.001 -.003 .035 1 0 0 0 0
 -1 50 361 245 0 268 370 352 0 +.001 -.003 .038 0 0 1 1 0 0 50 352 246 0 271 361
 343 0 +-.001 -.003 .038 -1 0 0 0 0 1 50 343 247 0 277 352 334 0 +-.001 -.003 .0
35 0 0 1 1 0 0 50 334 248 0 280 343 294 0 +-.0025 -.003 .035 -1 0 0 0 0 1 50 294
 249 0 283 334 287 0 +-.0025 -.003 .021 -911333583386817e-31 0 1 1 0 91133358338
6817e-31 83 1 421 0 82 1 422 0 83 3 419 .505882382392883 .529411792755127 .54901
9634723663 83 1 412 0 82 1 413 0 83 3 410 .505882382392883 .529411792755127 .549
019634723663 15 82 209 0 80 397 0 17 80 0 82 78 33 75 83 153 0 127 -17 78 0 82 3
5 80 28 76 79 0 142 -17 35 0 82 33 78 11 142 145 0 143 +83 1 403 0 82 1 404 0 83
 3 401 .505882382392883 .529411792755127 .549019634723663 83 1 393 0 82 1 394 0
 83 3 391 .505882382392883 .529411792755127 .549019634723663 83 1 384 0 82 1 385
 0 83 3 382 .505882382392883 .529411792755127 .549019634723663 83 1 375 0 82 1 3
76 0 83 3 373 .505882382392883 .529411792755127 .549019634723663 83 1 366 0 82 1
 367 0 83 3 364 .505882382392883 .529411792755127 .549019634723663 83 1 357 0 82
 1 358 0 83 3 355 .505882382392883 .529411792755127 .549019634723663 83 1 348 0
 82 1 349 0 83 3 346 .505882382392883 .529411792755127 .549019634723663 83 1 339
 0 82 1 340 0 83 3 337 .505882382392883 .529411792755127 .549019634723663 83 1 3
30 0 82 1 331 0 83 3 328 .505882382392883 .529411792755127 .549019634723663 83 3
 323 .505882382392883 .529411792755127 .549019634723663 83 3 318 .50588238239288
3 .529411792755127 .549019634723663 79 21 314 SDL/TYSA_TRANSLUCENCY83 1 309 0 79
 21 305 SDL/TYSA_REFLECTIVITY83 1 299 0 82 1 300 0 83 1 292 0 82 1 293 0 81 1 20
3 147 488 159 0 0 156 0 560 80 1 488 561 562 9000 0 0 0 0 3 6 0 0 0 FFFFTFTTFFFF
FFFF1 81 1 156 144 488 154 0 0 161 203 563 82 1 560 17 81 1 161 141 488 158 0 0
 165 156 564 82 1 563 17 81 1 165 138 488 163 0 0 169 161 565 82 1 564 17 81 1 1
69 135 488 167 0 0 173 165 566 82 1 565 17 81 1 173 132 488 171 0 0 177 169 567
 82 1 566 17 81 1 177 129 488 175 0 0 181 173 568 82 1 567 17 81 1 181 126 488 1
79 0 0 185 177 569 82 1 568 17 81 1 185 123 488 183 0 0 189 181 570 82 1 569 17
 81 1 189 120 488 187 0 0 193 185 571 82 1 570 17 81 1 193 117 488 191 0 0 197 1
89 572 82 1 571 17 81 1 197 114 488 195 0 0 199 193 573 82 1 572 17 81 1 199 108
 488 128 0 0 201 197 574 82 1 573 17 81 1 201 105 488 153 0 0 0 199 575 82 1 574
 17 82 1 575 17 79 27 562 SolidEdge/MNKR_ATTR_TYPE_EX19 19 270 0 1 0 9 5 0 S0 74
 4 CI16 index_map_offset0 0 1 dCCZ20 17 10 0 0 203 13 552 436 2 431 425 418 414
 420 0 0 0 0 0 0 0 0 0 0 81 2 13 288 576 1 0 2 0 0 577 578 80 2 576 12 579 9000
 2 2 2 2 3 6 0 0 0 FFTFFFFFFFFFFFFF2 3 83 2 577 1 116 84 255 19 578 SE 222.0.2.3
 Type8679 22 579 MONIKER/BODY_ID_ATTRIB80 3 12 580 581 9000 0 0 0 0 3 6 0 0 0 FF
TFFFFFFFFFFFFF3 3 1 84 38 14 {08ac5580-c294-4538-b355-a00e7ed109f0}84 2 15 SE82
 1 16 2 79 25 581 MONIKER/GUID_TABLE_ATTRIB1 0 
