**ABCDEFGHIJKLMNOPQRSTUVWXYZabcdefghijklmnopqrstuvwxyz**************************
**PARASOLID !"#$%&'()*+,-./:;<=>?@[\]^_`{|}~0123456789**************************
**PART1;
MC=KTH-12182;
MC_MODEL=unknown;
MC_ID=unknown;
OS=Windows NT;
OS_RELEASE=6.2;
FRU=Unigraphics Solutions;
APPL=SolidEdge;
SITE=Huntsville, AL;
USER=rimmie
FORMAT=text;
GUISE=transmit;
KEY=C:\Users\rimmie\OneDrive - KTH\PhD\Course work\MF2104- Mechatronics\mechatronic-project\CAD_files-frame\structureV3;
FILE=C:\Users\rimmie\OneDrive - KTH\PhD\Course work\MF2104- Mechatronics\mechatronic-project\CAD_files-frame\structureV3.x_t;
DATE=tor, dec 01 22;
**PART2;
SCH=SCH_3400153_34001;
USFLD_SIZE=0;
**PART3;
**END_OF_HEADER*****************************************************************
T51 : TRANSMIT FILE created by modeller version 340015323 SCH_3400153_34001_1300
6231 0 12 36 CCCI7 lattice222 0 CCCI4 mesh1006 0 I8 polyline1008 0 CCCCCCCDI5 ow
ner1040 0 CCCI16 boundary_lattice222 0 CCCI13 boundary_mesh1006 0 I17 boundary_p
olyline1008 0 CCCA16 index_map_offset0 0 1 dA9 index_map82 0 A17 node_id_index_m
ap82 0 A20 schema_embedding_map82 0 A5 child12 0 A14 lowest_node_id0 0 1 dA16 me
sh_offset_data206 0 Z1 437 2 3 0 0 0 0 0 0 0 1e3 1e-8 0 4 0 1 0 1 1 5 0 6 7 8 0
 0 9 10 11 0 0 0 0 0 0 0 81 255 3 2 367 12 1 13 0 0 0 14 15 16 70 11 CI9 list_ty
pe0 0 1 uI10 notransmit0 0 1 lCCCDCCDI12 finger_index0 0 1 dI12 finger_block1012
 0 CZ3 0 4 T1 0 0 10 20 1 17 17 13 255 5 297 0 1 0 18 0 0 19 0 50 255 6 280 0 18
 20 0 0 +-.0015 -.003 .035 0 0 -1 -1 0 0 30 255 7 296 0 10 21 0 0 +-.0025 -.003
 .035 0 1 0 29 255 8 201 0 22 23 0 -.0015 0 .0195 19 9 CCCCCCI5 frame230 0 CA5 o
wner12 0 Z9 1 0 1 19 0 24 0 V0 16 255 10 232 0 ?25 0 26 7 0 0 1 18 255 11 85 0 2
7 0 28 29 ?1 17 255 27 0 30 31 32 11 33 34 0 35 +18 28 82 0 36 11 37 38 ?1 29 29
 87 0 11 38 39 -.0015 -.003 .0195 29 38 84 0 28 40 29 -.0015 -.003 .0175 29 39 2
16 0 41 29 42 -.0025 0 .035 18 41 183 0 43 44 0 39 ?1 29 42 215 0 44 39 45 -.002
5 0 -.035 18 44 182 0 46 47 41 42 ?1 29 45 213 0 47 42 48 .0025 0 -.035 18 47 18
0 0 49 50 44 45 ?1 29 48 212 0 50 45 51 .0025 0 .035 18 50 179 0 52 53 47 48 ?1
 29 51 211 0 53 48 54 .0015 0 .035 18 53 178 0 55 56 50 51 ?1 29 54 210 0 56 51
 57 .0015 0 .038 18 56 177 0 58 59 53 54 ?1 29 57 208 0 59 54 60 -.0015 0 .038 1
8 59 175 0 61 62 56 57 ?1 29 60 207 0 62 57 63 -.0015 0 .035 18 62 174 0 64 65 5
9 60 ?1 29 63 206 0 65 60 66 .0015 0 .0195 18 65 173 0 67 68 62 63 ?1 29 66 204
 0 68 63 23 .0015 0 .0175 18 68 171 0 69 70 65 66 ?1 29 23 202 0 70 66 8 -.0015
 0 .0175 18 70 169 0 71 22 68 23 ?1 17 71 0 72 73 74 70 75 76 0 77 +18 22 168 0
 31 78 70 8 ?1 17 31 0 30 67 27 22 35 79 0 73 +18 78 2 0 80 81 22 82 ?1 17 80 0
 83 25 84 78 85 86 0 87 -18 81 5 0 85 88 78 89 ?1 29 82 4 0 78 0 89 -.0025 -.003
 .035 29 89 8 0 81 82 90 -.0025 -.003 -.035 29 90 20 0 88 89 91 .0025 -.003 -.03
5 18 88 17 0 92 93 81 90 ?1 29 91 26 0 93 90 94 .0025 -.003 .035 18 93 23 0 95 9
6 88 91 ?1 29 94 32 0 96 91 97 .0015 -.003 .035 18 96 29 0 98 99 93 94 ?1 29 97
 38 0 99 94 100 .0015 -.003 .038 18 99 35 0 101 102 96 97 ?1 29 100 50 0 102 97
 103 -.0015 -.003 .038 18 102 47 0 104 105 99 100 ?1 29 103 56 0 105 100 106 -.0
015 -.003 .035 18 105 53 0 107 108 102 103 ?1 29 106 72 0 108 103 40 .0015 -.003
 .0195 18 108 70 0 32 37 105 106 ?1 29 40 78 0 37 106 38 .0015 -.003 .0175 18 37
 76 0 109 28 108 40 ?1 17 109 0 110 111 112 37 113 114 0 115 -15 255 110 241 0 1
12 116 0 17 111 0 110 117 109 108 115 118 0 0 +17 112 0 110 109 117 68 119 120 0
 0 -17 113 0 121 77 122 68 109 114 0 112 +16 114 220 0 ?113 123 76 124 0 0 1 17
 115 0 125 36 33 37 111 118 0 122 -15 125 89 0 126 127 128 17 36 0 125 126 115 2
8 122 129 0 75 -17 33 0 125 115 126 108 27 34 0 111 -16 118 77 0 ?111 129 34 130
 0 0 1 17 122 0 121 113 75 37 36 129 0 0 +15 121 237 0 77 131 0 17 75 0 121 122
 77 28 71 76 0 74 -16 129 80 0 ?122 132 118 133 0 0 1 16 132 86 0 ?74 79 129 134
 0 0 1 30 133 93 0 129 130 134 0 +0 -.003 .0175 1 0 0 30 130 92 0 118 135 133 0
 +.0015 -.003 .0195 0 0 1 30 134 95 0 132 133 136 0 +-.0015 -.003 .0195 0 0 -1 3
0 136 200 0 137 134 138 0 +-.0025 0 .035 0 0 -1 16 137 162 139 ?140 141 142 136
 0 0 1 30 138 198 0 141 136 143 0 +0 0 -.035 1 0 0 16 141 156 144 ?49 145 137 13
8 0 0 1 30 143 197 0 145 138 146 0 +.0025 0 .035 0 0 1 16 145 153 147 ?52 148 14
1 143 0 0 1 30 146 196 0 148 143 149 0 +.0015 0 .035 -1 0 0 16 148 150 150 ?55 1
51 145 146 0 0 1 30 149 195 0 151 146 152 0 +.0015 0 .038 0 0 1 16 151 147 153 ?
154 155 148 149 0 0 1 30 152 193 0 155 149 156 0 +0 0 .038 -1 0 0 16 155 141 157
 ?61 158 151 152 0 0 1 30 156 192 0 158 152 159 0 +-.0015 0 .038 0 0 -1 16 158 1
38 160 ?64 120 155 156 0 0 1 30 159 191 0 142 156 161 0 +-.0015 0 .035 -1 0 0 16
 142 165 162 ?163 137 0 159 0 0 1 30 161 189 0 120 159 164 0 +.0015 0 .0195 0 0
 1 16 120 132 165 ?119 166 158 161 0 0 1 30 164 187 0 166 161 167 0 +-.0015 0 .0
175 1 0 0 16 166 126 168 ?69 169 120 164 0 0 1 30 167 186 0 169 164 170 0 +-.001
5 0 .0195 0 0 -1 16 169 123 171 ?172 173 166 167 0 0 1 30 170 185 0 173 167 174
 0 +0 0 .0195 -1 0 0 16 173 120 175 ?176 177 169 170 0 0 1 30 174 281 0 79 170 1
78 0 +-.0015 -.003 .0195 0 1 0 16 79 217 0 ?31 76 132 174 0 0 1 30 178 282 0 76
 174 124 0 +-.0015 -.003 .0175 0 1 0 16 76 218 0 ?71 114 79 178 0 0 1 30 124 284
 0 114 178 179 0 +.0015 -.003 .0175 0 1 0 30 179 286 0 123 124 180 0 +.0015 -.00
3 .0195 0 1 0 16 123 222 0 ?117 181 114 179 0 0 1 30 180 287 0 181 179 182 0 +-.
0015 -.003 .035 0 1 0 16 181 223 0 ?183 184 123 180 0 0 1 30 182 288 0 184 180 1
85 0 +-.0015 -.003 .038 0 1 0 16 184 224 0 ?186 187 181 182 0 0 1 30 185 290 0 1
87 182 188 0 +.0015 -.003 .038 0 1 0 16 187 226 0 ?189 190 184 185 0 0 1 30 188
 291 0 190 185 191 0 +.0015 -.003 .035 0 1 0 16 190 227 0 ?192 193 187 188 0 0 1
 30 191 292 0 193 188 194 0 +.0025 -.003 .035 0 1 0 16 193 228 0 ?195 196 190 19
1 0 0 1 30 194 293 0 196 191 21 0 +.0025 -.003 -.035 0 1 0 16 196 229 0 ?197 26
 193 194 0 0 1 30 21 295 0 26 194 7 0 +-.0025 -.003 -.035 0 1 0 16 26 231 0 ?198
 10 196 21 0 0 1 17 198 0 199 49 200 44 84 26 0 0 +15 199 257 0 49 201 0 17 49 0
 199 202 198 47 46 141 0 197 +17 200 0 199 198 202 81 92 203 0 0 -17 84 0 83 80
 140 81 198 26 0 200 -15 83 261 0 140 204 0 17 140 0 83 84 25 44 43 137 0 198 +1
7 25 0 83 140 80 41 205 10 0 163 +17 43 0 206 207 46 41 140 137 0 25 -15 206 119
 0 207 208 0 17 207 0 206 209 43 62 163 142 0 0 -17 46 0 206 43 210 44 49 141 0
 140 -17 210 0 206 46 211 47 52 145 0 0 -17 211 0 206 210 212 50 55 148 0 0 -17
 52 0 213 214 197 50 210 145 0 195 +15 213 255 0 52 215 0 17 214 0 213 216 52 93
 195 193 0 217 -17 197 0 213 52 216 47 202 196 0 210 +17 195 0 218 55 217 50 214
 193 0 211 +15 218 253 0 55 219 0 17 55 0 218 220 195 53 211 148 0 192 +17 217 0
 218 195 220 93 98 221 0 0 -17 220 0 218 217 55 96 192 190 0 222 -17 98 0 128 10
1 95 96 217 221 0 220 +16 221 30 0 ?98 223 224 225 0 0 1 16 223 36 0 ?101 226 22
1 227 0 0 1 16 224 24 0 ?95 221 203 228 0 0 1 30 225 31 0 221 228 227 0 +.0015 -
.003 .035 -1 0 0 30 228 25 0 224 229 225 0 +.0025 -.003 .035 0 0 1 30 227 37 0 2
23 225 230 0 +.0015 -.003 .038 0 0 1 30 230 43 0 226 227 231 0 +0 -.003 .038 -1
 0 0 16 226 42 0 ?104 232 223 230 0 0 1 30 231 55 0 232 230 233 0 +-.0015 -.003
 .038 0 0 -1 16 232 54 0 ?107 34 226 231 0 0 1 30 233 60 0 177 231 135 0 +-.0015
 -.003 .035 -1 0 0 16 177 59 0 ?87 86 173 233 0 0 1 30 135 91 0 34 233 130 0 +0
 -.003 .0195 -1 0 0 16 34 74 0 ?27 118 232 135 0 0 1 17 87 0 128 85 107 78 234 1
77 0 205 +16 86 6 0 ?85 203 177 235 0 0 1 17 85 0 128 92 87 81 80 86 0 84 +16 20
3 12 0 ?92 224 86 229 0 0 1 30 235 7 0 86 0 229 0 +-.0025 -.003 .035 0 0 -1 30 2
29 13 0 203 235 228 0 +-.0025 -.003 -.035 1 0 0 17 92 0 128 95 85 88 200 203 0 2
02 +15 128 61 0 87 127 0 17 95 0 128 98 92 93 216 224 0 214 +17 202 0 199 200 49
 88 197 196 0 216 -17 216 0 213 197 214 88 95 224 0 0 -14 255 127 62 236 ?208 23
7 125 5 238 +0 0 208 237 24 81 2 236 434 239 127 240 0 241 242 243 244 14 208 11
7 242 ?0 127 245 5 246 -0 0 0 127 24 14 237 246 241 ?127 247 248 5 249 -0 0 127
 247 24 50 238 65 0 127 0 246 0 +0 -.003 0 0 -1 0 0 0 -1 13 24 3 0 0 0 0 0 0 9 1
8 14 18 264 250 ?204 0 251 5 6 -0 0 204 0 24 81 2 250 398 239 18 252 0 0 253 254
 255 14 204 262 253 ?201 18 83 5 20 -0 0 201 18 24 15 251 263 0 163 18 0 17 163
 0 251 205 183 41 207 142 0 0 +17 205 0 251 234 163 78 25 10 0 0 -17 183 0 251 1
63 234 62 256 181 0 207 +17 234 0 251 183 205 105 87 177 0 0 -17 256 0 248 257 6
4 105 183 181 0 234 -15 248 245 0 64 237 0 17 257 0 248 186 256 102 107 232 0 0
 -17 64 0 248 256 186 62 209 158 0 183 +17 186 0 248 64 257 59 258 184 0 209 +17
 209 0 206 58 207 59 64 158 0 0 -17 58 0 206 212 209 56 61 155 0 154 -17 212 0 2
06 211 58 53 154 151 0 0 -17 61 0 259 258 189 59 58 155 0 186 +17 154 0 260 261
 192 56 212 151 0 189 +15 260 251 0 154 262 0 17 261 0 260 222 154 99 189 187 0
 263 -17 192 0 260 154 222 53 220 190 0 212 +17 189 0 259 61 263 56 261 187 0 0
 +15 259 247 0 61 264 0 17 263 0 259 189 258 99 104 226 0 0 -17 258 0 259 263 61
 102 186 184 0 257 -17 104 0 128 107 101 102 263 226 0 258 +17 107 0 128 87 104
 105 257 232 0 256 +17 101 0 128 104 98 99 222 223 0 261 +17 222 0 260 192 261 9
6 101 223 0 0 -14 264 248 265 ?266 262 259 5 267 -0 0 266 262 24 81 2 265 416 23
9 264 268 0 269 270 271 272 14 266 234 270 ?116 264 30 5 273 +0 0 116 264 24 14
 262 252 269 ?264 219 260 5 274 -0 0 264 219 24 50 267 272 0 264 249 274 0 +0 -.
003 .038 0 0 -1 -1 0 0 50 249 271 0 237 275 267 0 +-.0015 -.003 .038 1 0 0 0 0 -
1 50 274 274 0 262 267 276 0 +.0015 -.003 .038 -1 0 0 0 0 1 50 276 275 0 219 274
 277 0 +.0015 -.003 .035 0 0 -1 -1 0 0 14 219 254 278 ?262 215 218 5 276 -0 0 26
2 215 24 50 277 276 0 215 276 279 0 +.0025 -.003 .035 -1 0 0 0 0 1 14 215 256 28
0 ?219 201 213 5 277 -0 0 219 201 24 50 279 277 0 201 277 20 0 +0 -.003 -.035 0
 0 1 1 0 0 14 201 258 281 ?215 204 199 5 279 -0 0 215 204 24 50 20 279 0 204 279
 6 0 +-.0025 -.003 .035 1 0 0 0 0 -1 81 2 281 404 239 201 282 0 253 280 283 284
 80 7 CCCCCDI12 legal_owners0 16 1 lCZ2 239 285 286 8014 0 0 0 0 3 5 0 0 0 FFFFT
FFFFFFFFFFF2 1 81 1 282 403 287 201 288 281 289 290 291 81 2 253 401 239 204 289
 0 250 281 292 293 81 2 280 407 239 215 290 0 281 278 294 295 83 255 1 283 0 82
 255 1 284 0 81 1 290 406 287 215 296 280 282 297 298 81 2 278 410 239 219 297 0
 280 269 299 300 83 1 294 0 82 1 295 0 81 1 297 409 287 219 301 278 290 302 303
 81 2 269 413 239 262 302 0 278 265 304 305 83 1 299 0 82 1 300 0 81 1 302 412 2
87 262 306 269 297 268 307 83 1 304 0 82 1 305 0 80 1 287 239 308 8015 0 0 0 0 3
 5 0 0 0 FFFFTFFFFFFFFFFF2 81 1 306 411 309 262 310 302 301 311 312 81 1 268 415
 287 264 311 265 302 313 314 83 1 307 0 81 1 311 414 309 264 315 268 306 316 317
 81 1 313 418 287 266 316 270 268 318 319 83 1 314 0 81 1 316 417 309 266 320 31
3 311 321 322 81 2 270 419 239 266 313 0 265 323 324 325 81 1 318 421 287 116 32
1 323 313 326 327 83 1 319 0 14 116 242 323 ?131 266 110 5 275 +0 0 131 266 24 8
1 1 321 420 309 116 328 318 316 329 330 81 2 323 422 239 116 318 0 270 331 332 3
33 81 1 326 424 287 131 329 331 318 334 335 83 1 327 0 14 131 238 331 ?247 116 1
21 5 336 +0 0 247 116 24 81 1 329 423 309 131 337 326 321 338 339 81 2 331 425 2
39 131 326 0 323 340 341 342 81 1 334 427 287 247 338 340 326 343 344 83 1 335 0
 14 247 236 340 ?237 131 72 5 345 +0 0 237 131 24 81 1 338 426 309 247 346 334 3
29 347 348 81 2 340 428 239 247 334 0 331 241 349 350 81 1 343 430 287 237 347 2
41 334 240 351 83 1 344 0 81 1 347 429 309 237 352 343 338 353 354 81 2 241 431
 239 237 343 0 340 236 355 356 81 1 240 433 287 127 353 236 343 357 358 83 1 351
 0 81 1 353 432 309 127 359 240 347 360 361 81 1 357 436 287 208 360 242 240 0 3
62 83 1 358 0 81 1 360 435 309 208 363 357 353 0 364 81 2 242 437 239 208 357 0
 236 0 365 366 83 1 362 0 83 1 365 0 82 1 366 0 80 1 309 0 367 8001 0 0 0 0 3 5
 0 0 0 FFFFTFTFFFFFFFFF2 81 2 363 395 368 208 369 360 359 0 370 0 83 3 364 .5058
82382392883 .529411792755127 .549019634723663 80 2 368 371 372 9000 0 0 0 0 3 6
 0 0 0 FFTFTFTTFFFFFTFF1 2 81 1 369 381 373 208 374 363 375 0 0 81 2 359 394 368
 127 375 353 352 363 376 0 82 2 370 1 13 81 1 375 380 373 127 377 359 378 369 0
 81 2 352 393 368 237 378 347 346 359 379 0 82 2 376 1 12 81 1 378 379 373 237 3
80 352 381 375 0 81 2 346 392 368 247 381 338 337 352 382 0 82 2 379 1 11 81 1 3
81 378 373 247 383 346 384 378 0 81 2 337 391 368 131 384 329 328 346 385 0 82 2
 382 1 10 81 1 384 377 373 131 386 337 387 381 0 81 2 328 390 368 116 387 321 32
0 337 388 0 82 2 385 1 9 81 1 387 376 373 116 389 328 390 384 0 81 2 320 389 368
 266 390 316 315 328 391 0 82 2 388 1 8 81 1 390 375 373 266 392 320 393 387 0 8
1 2 315 388 368 264 393 311 310 320 394 0 82 2 391 1 7 81 1 393 374 373 264 395
 315 396 390 0 81 2 310 387 368 262 396 306 397 315 398 0 82 2 394 1 6 81 1 396
 373 373 262 399 310 400 393 0 81 2 397 386 368 219 400 301 401 310 402 0 82 2 3
98 1 5 81 1 400 372 373 219 403 397 404 396 0 81 1 301 408 309 219 397 297 296 3
06 405 81 2 401 385 368 215 404 296 406 397 407 0 82 2 402 1 4 81 1 404 371 373
 215 408 401 409 400 0 81 1 296 405 309 215 401 290 288 301 410 81 2 406 384 368
 201 409 288 411 401 412 0 82 2 407 1 3 81 1 409 370 373 201 413 406 414 404 0 8
1 1 288 402 309 201 406 282 415 296 416 81 2 411 383 368 204 414 415 417 406 418
 0 82 2 412 1 2 81 1 414 369 373 204 419 411 420 409 0 81 1 415 399 309 204 411
 289 421 288 422 81 2 417 382 368 18 420 421 0 411 423 0 82 2 418 1 1 81 1 420 3
68 373 18 424 417 0 414 0 81 1 421 396 309 18 417 252 0 415 425 82 2 423 1 0 81
 1 252 397 287 18 421 250 0 289 426 83 3 425 .505882382392883 .529411792755127 .
549019634723663 81 1 289 400 287 204 415 253 252 282 427 83 1 426 0 83 1 427 0 8
0 1 373 428 429 9000 1 1 1 1 1 1 1 1 0 FFFFTFTTFFFFFFFF1 81 1 424 353 430 18 431
 420 0 419 432 80 1 430 433 434 9000 0 0 0 0 3 6 0 0 0 FFFFTFFFFFFFFFFF1 81 3 43
1 324 435 18 0 424 0 436 437 438 0 81 1 419 354 430 204 436 414 424 413 439 82 1
 432 1177 81 3 436 327 435 204 0 419 431 440 441 442 0 81 1 413 355 430 201 440
 409 419 408 443 82 1 439 1177 81 3 440 329 435 201 0 413 436 444 445 446 0 81 1
 408 356 430 215 444 404 413 403 447 82 1 443 1177 81 3 444 331 435 215 0 408 44
0 448 449 450 0 81 1 403 357 430 219 448 400 408 399 451 82 1 447 1177 81 3 448
 333 435 219 0 403 444 452 453 454 0 81 1 399 358 430 262 452 396 403 395 455 82
 1 451 1177 81 3 452 335 435 262 0 399 448 456 457 458 0 81 1 395 359 430 264 45
6 393 399 392 459 82 1 455 1177 81 3 456 337 435 264 0 395 452 460 461 462 0 81
 1 392 360 430 266 460 390 395 389 463 82 1 459 1177 81 3 460 339 435 266 0 392
 456 464 465 466 0 81 1 389 361 430 116 464 387 392 386 467 82 1 463 1177 81 3 4
64 341 435 116 0 389 460 468 469 470 0 81 1 386 362 430 131 468 384 389 383 471
 82 1 467 1177 81 3 468 343 435 131 0 386 464 472 473 474 0 81 1 383 363 430 247
 472 381 386 380 475 82 1 471 1177 81 3 472 345 435 247 0 383 468 476 477 478 0
 81 1 380 364 430 237 476 378 383 377 479 82 1 475 1177 81 3 476 347 435 237 0 3
80 472 480 481 482 0 81 1 377 365 430 127 480 375 380 374 483 82 1 479 1177 81 3
 480 349 435 127 0 377 476 484 485 486 0 81 1 374 366 430 208 484 369 377 0 487
 82 1 483 1177 81 3 484 351 435 208 0 374 480 0 488 489 0 82 1 487 1177 80 3 435
 490 491 9000 0 0 0 0 3 6 0 0 0 FFFFTFTTFFFFFFFF1 1 3 82 1 488 1 82 1 489 13 79
 255 27 491 MONIKER/MONIKER_DATA_ATTRIB82 1 485 1 82 1 486 12 82 1 481 1 82 1 48
2 11 82 1 477 1 82 1 478 10 82 1 473 1 82 1 474 9 82 1 469 1 82 1 470 8 82 1 465
 1 82 1 466 7 82 1 461 1 82 1 462 6 82 1 457 1 82 1 458 5 82 1 453 1 82 1 454 4
 82 1 449 1 82 1 450 3 82 1 445 1 82 1 446 2 82 1 441 1 82 1 442 1 82 1 437 1 82
 1 438 0 79 23 434 SolidEdge/MNKR_ATTR_CID79 17 429 SolidEdge/Display83 3 422 .5
05882382392883 .529411792755127 .549019634723663 83 3 416 .505882382392883 .5294
11792755127 .549019634723663 83 3 410 .505882382392883 .529411792755127 .5490196
34723663 83 3 405 .505882382392883 .529411792755127 .549019634723663 79 27 372 S
olidEdge/SYNCTOPOLOGY_ATTR79 15 367 SDL/TYSA_COLOUR83 3 361 .505882382392883 .52
9411792755127 .549019634723663 83 1 355 0 82 1 356 0 83 3 354 .505882382392883 .
529411792755127 .549019634723663 83 1 349 0 82 1 350 0 83 3 348 .505882382392883
 .529411792755127 .549019634723663 15 72 235 0 73 247 0 50 345 266 0 247 273 336
 0 +-.0015 -.003 .0195 1 0 0 0 0 -1 50 273 265 0 266 246 345 0 +0 -.003 .0195 0
 0 -1 -1 0 0 50 336 267 0 131 345 275 0 +-.0015 -.003 .0175 0 0 1 1 0 0 50 275 2
69 0 116 336 249 0 +.0015 -.003 .0195 -1 0 0 0 0 1 50 246 184 0 208 238 273 0 +0
 0 0 0 -1 0 0 0 -1 17 73 0 72 35 71 22 172 169 0 176 -17 35 0 72 74 73 11 31 79
 0 126 -17 172 0 245 69 176 70 73 169 0 0 +17 176 0 245 172 119 22 67 173 0 0 +1
5 245 118 0 176 208 206 17 119 0 245 176 69 65 112 120 0 0 +17 67 0 30 32 31 65
 176 173 0 117 -15 30 233 0 67 266 0 17 32 0 30 27 67 108 117 123 0 33 -17 117 0
 110 112 111 65 32 123 0 119 +17 69 0 245 119 172 68 77 166 0 113 +17 77 0 121 7
5 113 70 69 166 0 172 -17 74 0 72 71 35 28 126 132 0 0 +17 126 0 125 33 36 11 74
 132 0 0 -83 1 341 0 82 1 342 0 83 3 339 .505882382392883 .529411792755127 .5490
19634723663 83 1 332 0 82 1 333 0 83 3 330 .505882382392883 .529411792755127 .54
9019634723663 83 1 324 0 82 1 325 0 83 3 322 .505882382392883 .529411792755127 .
549019634723663 83 3 317 .505882382392883 .529411792755127 .549019634723663 83 3
 312 .505882382392883 .529411792755127 .549019634723663 79 21 308 SDL/TYSA_TRANS
LUCENCY83 1 303 0 83 1 298 0 83 1 292 0 82 1 293 0 83 1 291 0 79 21 286 SDL/TYSA
_REFLECTIVITY83 1 271 0 82 1 272 0 83 1 254 0 82 1 255 0 83 1 243 0 82 1 244 0 8
1 1 175 121 428 173 0 0 0 171 492 80 1 428 493 494 9000 0 0 0 0 3 6 0 0 0 FFFFTF
TTFFFFFFFF1 81 1 171 124 428 169 0 0 175 168 495 82 1 492 17 81 1 168 127 428 16
6 0 0 171 165 496 82 1 495 17 81 1 165 133 428 120 0 0 168 160 497 82 1 496 17 8
1 1 160 140 428 158 0 0 165 157 498 82 1 497 17 81 1 157 143 428 155 0 0 160 153
 499 82 1 498 17 81 1 153 149 428 151 0 0 157 150 500 82 1 499 17 81 1 150 152 4
28 148 0 0 153 147 501 82 1 500 17 81 1 147 155 428 145 0 0 150 144 502 82 1 501
 17 81 1 144 158 428 141 0 0 147 139 503 82 1 502 17 81 1 139 164 428 137 0 0 14
4 162 504 82 1 503 17 81 1 162 167 428 142 0 0 139 0 505 82 1 504 17 82 1 505 17
 79 27 494 SolidEdge/MNKR_ATTR_TYPE_EX19 19 298 0 1 0 9 5 0 S0 74 4 CI16 index_m
ap_offset0 0 1 dCCZ20 17 10 0 0 162 13 484 374 2 369 363 360 357 242 0 0 0 0 0 0
 0 0 0 0 81 2 13 323 506 1 0 2 0 0 507 508 80 2 506 12 509 9000 2 2 2 2 3 6 0 0
 0 FFTFFFFFFFFFFFFF2 3 83 2 507 1 115 84 255 19 508 SE 222.0.2.3 Type8679 22 509
 MONIKER/BODY_ID_ATTRIB80 3 12 510 511 9000 0 0 0 0 3 6 0 0 0 FFTFFFFFFFFFFFFF3
 3 1 84 38 14 {576e8542-76d6-4ba0-8cf2-012e93d03276}84 2 15 SE82 1 16 1 79 25 51
1 MONIKER/GUID_TABLE_ATTRIB1 0 
