**ABCDEFGHIJKLMNOPQRSTUVWXYZabcdefghijklmnopqrstuvwxyz**************************
**PARASOLID !"#$%&'()*+,-./:;<=>?@[\]^_`{|}~0123456789**************************
**PART1;
MC=KTH-12182;
MC_MODEL=unknown;
MC_ID=unknown;
OS=Windows NT;
OS_RELEASE=6.2;
FRU=Unigraphics Solutions;
APPL=SolidEdge;
SITE=Huntsville, AL;
USER=rimmie
FORMAT=text;
GUISE=transmit;
KEY=C:\Users\rimmie\OneDrive - KTH\PhD\Course work\MF2104- Mechatronics\mechatronic-project\CAD_files-frame\structure_v2;
FILE=C:\Users\rimmie\OneDrive - KTH\PhD\Course work\MF2104- Mechatronics\mechatronic-project\CAD_files-frame\structure_v2.x_t;
DATE=tor, dec 01 22;
**PART2;
SCH=SCH_3400153_34001;
USFLD_SIZE=0;
**PART3;
**END_OF_HEADER*****************************************************************
T51 : TRANSMIT FILE created by modeller version 340015323 SCH_3400153_34001_1300
6231 0 12 36 CCCI7 lattice222 0 CCCI4 mesh1006 0 I8 polyline1008 0 CCCCCCCDI5 ow
ner1040 0 CCCI16 boundary_lattice222 0 CCCI13 boundary_mesh1006 0 I17 boundary_p
olyline1008 0 CCCA16 index_map_offset0 0 1 dA9 index_map82 0 A17 node_id_index_m
ap82 0 A20 schema_embedding_map82 0 A5 child12 0 A14 lowest_node_id0 0 1 dA16 me
sh_offset_data206 0 Z1 814 2 3 0 0 0 0 0 0 0 1e3 1e-8 0 0 0 1 0 1 1 4 0 5 6 7 0
 0 8 9 10 0 0 0 0 0 0 0 81 255 3 2 654 11 1 12 0 0 0 13 14 15 70 11 CI9 list_typ
e0 0 1 uI10 notransmit0 0 1 lCCCDCCDI12 finger_index0 0 1 dI12 finger_block1012
 0 CZ3 0 4 T1 0 0 10 20 1 16 16 13 255 4 3 0 1 0 17 0 0 18 0 50 255 5 493 0 17 1
9 0 0 +-.0492587875612037 -.0217788067144346 .003 1 0 0 0 0 -1 30 255 6 523 0 9
 20 0 0 +-.0492587875612037 -.0217788067144346 .003 0 0 -1 29 255 7 344 0 21 22
 0 -.0492587875612037 0 0 19 9 CCCCCCI5 frame230 0 CA5 owner12 0 Z8 1 0 1 18 0 2
3 0 V0 16 255 9 403 0 ?24 0 25 6 0 0 1 18 255 10 173 0 26 0 27 28 ?1 17 255 26 0
 29 30 31 10 32 33 0 34 -18 27 167 0 35 10 36 37 ?1 29 28 176 0 10 37 38 -.04925
87875612037 0 .003 29 37 170 0 27 39 28 -.0507587875612037 0 .003 29 38 373 0 40
 28 41 -.0492587875612037 -.0217788067144346 0 18 40 312 0 24 42 0 38 ?1 29 41 3
72 0 42 38 43 -.03257247535360095 693889390390723e-32 0 18 42 311 0 44 45 40 41
 ?1 29 43 371 0 45 41 46 -.0262736271347465 0 0 18 45 310 0 47 48 42 43 ?1 29 46
 370 0 48 43 49 -.0492587875612037 -.03 0 18 48 309 0 50 51 45 46 ?1 29 49 369 0
 51 46 52 -.0517587875612037 -.03 0 18 51 308 0 53 54 48 49 ?1 29 52 368 0 54 49
 55 -.0517587875612037 -.04 0 18 54 307 0 56 57 51 52 ?1 29 55 367 0 57 52 58 -.
0542587875612037 -.04 0 18 57 306 0 59 60 54 55 ?1 29 58 366 0 60 55 61 -.054258
7875612037 -.03 0 18 60 305 0 62 63 57 58 ?1 29 61 365 0 63 58 64 -.108748787561
2036 -.03 0 18 63 304 0 65 66 60 61 ?1 29 64 364 0 66 61 67 -.1087487875612036 -
.04 0 18 66 303 0 68 69 63 64 ?1 29 67 363 0 69 64 70 -.1112487875612036 -.04 0
 18 69 302 0 71 72 66 67 ?1 29 70 362 0 72 67 73 -.1112487875612036 -.03 0 18 72
 301 0 74 75 69 70 ?1 29 73 361 0 75 70 76 -.1137487875612036 -.03 0 18 75 300 0
 77 78 72 73 ?1 29 76 360 0 78 73 79 -.1367339479876608 3469446951953615e-33 0 1
8 78 299 0 80 81 75 76 ?1 29 79 359 0 81 76 82 -.1304350997688064 0 0 18 81 298
 0 83 84 78 79 ?1 29 82 358 0 84 79 85 -.1137487875612036 -.0217788067144346 0 1
8 84 297 0 86 87 81 82 ?1 29 85 357 0 87 82 88 -.1137487875612036 0 0 18 87 296
 0 89 90 84 85 ?1 29 88 356 0 90 85 91 -.1122487875612036 -18702487475375e-32 0
 18 90 295 0 92 93 87 88 ?1 29 91 355 0 93 88 94 -.1122487875612036 .003 0 18 93
 294 0 95 96 90 91 ?1 29 94 354 0 96 91 97 -.1102487875612036 .003 0 18 96 293 0
 98 99 93 94 ?1 29 97 353 0 99 94 100 -.1102487875612036 -433680868994202e-33 0
 18 99 292 0 101 102 96 97 ?1 29 100 352 0 102 97 103 -.1087487875612036 -623416
249179165e-33 0 18 102 291 0 104 105 99 100 ?1 29 103 351 0 105 100 106 -.108748
7875612036 -.025 0 18 105 290 0 107 108 102 103 ?1 29 106 350 0 108 103 109 -.05
42587875612037 -.025 0 18 108 289 0 110 111 105 106 ?1 29 109 349 0 111 106 112
 -.0542587875612037 -623416249179165e-33 0 18 111 288 0 113 114 108 109 ?1 29 11
2 348 0 114 109 115 -.0527587875612037 -436391374425416e-33 0 18 114 287 0 116 1
17 111 112 ?1 29 115 347 0 117 112 118 -.0527587875612037 .003 0 18 117 286 0 11
9 120 114 115 ?1 29 118 346 0 120 115 22 -.0507587875612037 .003 0 18 120 285 0
 121 122 117 118 ?1 29 22 345 0 122 118 7 -.0507587875612037 0 0 18 122 284 0 12
3 21 120 22 ?1 17 123 0 124 125 126 122 35 127 0 128 +18 21 283 0 32 129 122 7 ?
1 17 32 0 130 128 34 21 26 33 0 131 +18 129 2 0 132 133 21 134 ?1 17 132 0 135 1
36 137 129 24 9 0 138 -18 133 5 0 139 140 129 141 ?1 29 134 4 0 129 0 141 -.0492
587875612037 -.0217788067144346 .003 29 141 8 0 133 134 142 -.03257247535360095
 693889390390723e-32 .003 29 142 14 0 140 141 143 -.0262736271347465 0 .003 18 1
40 11 0 144 145 133 142 ?1 29 143 20 0 145 142 146 -.0492587875612037 -.03 .003
 18 145 17 0 147 148 140 143 ?1 29 146 26 0 148 143 149 -.0517587875612037 -.03
 .003 18 148 23 0 150 151 145 146 ?1 29 149 32 0 151 146 152 -.0517587875612037
 -.04 .003 18 151 29 0 153 154 148 149 ?1 29 152 38 0 154 149 155 -.054258787561
2037 -.04 .003 18 154 35 0 156 157 151 152 ?1 29 155 44 0 157 152 158 -.05425878
75612037 -.03 .003 18 157 41 0 159 160 154 155 ?1 29 158 50 0 160 155 161 -.1087
487875612036 -.03 .003 18 160 47 0 162 163 157 158 ?1 29 161 56 0 163 158 164 -.
1087487875612036 -.04 .003 18 163 53 0 165 166 160 161 ?1 29 164 62 0 166 161 16
7 -.1112487875612036 -.04 .003 18 166 59 0 168 169 163 164 ?1 29 167 68 0 169 16
4 170 -.1112487875612036 -.03 .003 18 169 65 0 171 172 166 167 ?1 29 170 74 0 17
2 167 173 -.1137487875612036 -.03 .003 18 172 71 0 174 175 169 170 ?1 29 173 80
 0 175 170 176 -.1367339479876608 3469446951953615e-33 .003 18 175 77 0 177 178
 172 173 ?1 29 176 86 0 178 173 179 -.1304350997688064 0 .003 18 178 83 0 180 18
1 175 176 ?1 29 179 92 0 181 176 182 -.1137487875612036 -.0217788067144346 .003
 18 181 89 0 183 184 178 179 ?1 29 182 98 0 184 179 185 -.1137487875612036 0 .00
3 18 184 95 0 186 187 181 182 ?1 29 185 104 0 187 182 188 -.1122487875612036 -18
702487475375e-32 .003 18 187 101 0 189 190 184 185 ?1 29 188 110 0 190 185 191 -
.1122487875612036 .003 .003 18 190 107 0 192 193 187 188 ?1 29 191 116 0 193 188
 194 -.1102487875612036 .003 .003 18 193 113 0 195 196 190 191 ?1 29 194 122 0 1
96 191 197 -.1102487875612036 -433680868994202e-33 .003 18 196 119 0 198 199 193
 194 ?1 29 197 128 0 199 194 200 -.1087487875612036 -623416249179165e-33 .003 18
 199 125 0 201 202 196 197 ?1 29 200 134 0 202 197 203 -.1087487875612036 -.025
 .003 18 202 131 0 204 205 199 200 ?1 29 203 140 0 205 200 206 -.054258787561203
7 -.025 .003 18 205 137 0 207 208 202 203 ?1 29 206 146 0 208 203 209 -.05425878
75612037 -623416249179165e-33 .003 18 208 143 0 210 211 205 206 ?1 29 209 152 0
 211 206 212 -.0527587875612037 -436391374425416e-33 .003 18 211 149 0 213 214 2
08 209 ?1 29 212 158 0 214 209 39 -.0527587875612037 .003 .003 18 214 155 0 215
 36 211 212 ?1 29 39 164 0 36 212 37 -.0507587875612037 .003 .003 18 36 161 0 21
6 27 214 39 ?1 17 216 0 124 126 125 36 121 217 0 218 -15 255 124 406 0 125 219 0
 17 126 0 124 123 216 27 220 221 0 222 +17 125 0 124 216 123 120 223 224 0 225 -
17 121 0 226 227 218 120 216 217 0 125 +16 217 376 0 ?121 228 127 229 0 0 1 17 2
18 0 226 121 215 36 230 231 0 220 +15 226 408 0 227 232 0 17 215 0 226 218 227 2
14 119 228 0 233 -17 230 0 234 235 220 214 218 231 0 0 -16 231 162 0 ?218 221 23
6 237 0 0 1 17 220 0 234 230 222 36 126 221 0 0 -15 234 181 0 238 239 0 17 222 0
 234 220 238 27 34 240 0 0 -16 221 168 0 ?126 240 231 241 0 0 1 16 240 174 0 ?34
 33 221 242 0 0 1 30 241 169 0 221 237 242 0 +-.0507587875612037 0 .003 0 -1 0 3
0 237 163 0 231 243 241 0 +-.0507587875612037 .003 .003 1 0 0 30 242 175 0 240 2
41 244 0 +-.0492587875612037 0 .003 1 0 0 30 244 180 0 245 242 246 0 +-.04925878
75612037 -.0217788067144346 .003 0 -1 0 16 245 179 0 ?30 247 248 244 0 0 1 30 24
6 343 0 249 244 250 0 +-.0492587875612037 -.0217788067144346 0 .608184216855586
 .793795917328729 0 16 249 277 251 ?252 253 254 246 0 0 1 30 250 342 0 253 246 2
55 0 +-.03257247535360095 0 0 1 0 0 16 253 274 256 ?257 258 249 250 0 0 1 30 255
 341 0 258 250 259 0 +-.0492587875612037 -.03 0 -.608184216855586 -.793795917328
729 0 16 258 271 260 ?261 262 253 255 0 0 1 30 259 340 0 262 255 263 0 +-.051758
7875612037 -.03 0 -1 0 0 16 262 268 264 ?265 266 258 259 0 0 1 30 263 339 0 266
 259 267 0 +-.0517587875612037 -.03 0 0 -1 0 16 266 265 268 ?269 270 262 263 0 0
 1 30 267 338 0 270 263 271 0 +-.0542587875612037 -.04 0 -1 0 0 16 270 262 272 ?
273 274 266 267 0 0 1 30 271 337 0 274 267 275 0 +-.0542587875612037 -.03 0 0 1
 0 16 274 259 276 ?277 278 270 271 0 0 1 30 275 336 0 278 271 279 0 +-.108748787
5612036 -.03 0 -1 0 0 16 278 256 280 ?281 282 274 275 0 0 1 30 279 335 0 282 275
 283 0 +-.1087487875612036 -.03 0 0 -1 0 16 282 253 284 ?285 286 278 279 0 0 1 3
0 283 334 0 286 279 287 0 +-.1087487875612036 -.04 0 -1 0 0 16 286 250 288 ?289
 290 282 283 0 0 1 30 287 333 0 290 283 291 0 +-.1112487875612036 -.03 0 0 1 0 1
6 290 247 292 ?293 294 286 287 0 0 1 30 291 332 0 294 287 295 0 +-.1112487875612
036 -.03 0 -1 0 0 16 294 244 296 ?297 298 290 291 0 0 1 30 295 331 0 298 291 299
 0 +-.1137487875612036 -.03 0 -.608184216855586 .793795917328729 0 16 298 241 30
0 ?301 302 294 295 0 0 1 30 299 330 0 302 295 303 0 +-.1304350997688064 0 0 1 -5
50806565169876e-30 0 16 302 238 304 ?305 306 298 299 0 0 1 30 303 329 0 306 299
 307 0 +-.1137487875612036 -.0217788067144346 0 .608184216855586 -.7937959173287
29 0 16 306 235 308 ?309 310 302 303 0 0 1 30 307 328 0 310 303 311 0 +-.1137487
875612036 -.0217788067144346 0 0 1 0 16 310 232 312 ?313 314 306 307 0 0 1 30 31
1 327 0 314 307 315 0 +-.1137487875612036 0 0 1 -124683249835833e-30 0 16 314 22
9 316 ?317 318 310 311 0 0 1 30 315 326 0 318 311 319 0 +-.1122487875612036 -187
02487475375e-32 0 0 1 0 16 318 226 320 ?321 322 314 315 0 0 1 30 319 325 0 322 3
15 323 0 +-.1122487875612036 .003 0 1 0 0 16 322 223 324 ?325 326 318 319 0 0 1
 30 323 324 0 326 319 327 0 +-.1102487875612036 .003 0 0 -1 0 16 326 220 328 ?32
9 330 322 323 0 0 1 30 327 323 0 330 323 331 0 +-.1102487875612036 -433680868994
202e-33 0 1 -1264902534566422e-31 0 16 330 217 332 ?333 334 326 327 0 0 1 30 331
 322 0 334 327 335 0 +-.1087487875612036 -623416249179165e-33 0 0 -1 0 16 334 21
4 336 ?337 338 330 331 0 0 1 30 335 321 0 338 331 339 0 +-.1087487875612036 -.02
5 0 1 0 0 16 338 211 340 ?341 342 334 335 0 0 1 30 339 320 0 342 335 343 0 +-.05
42587875612037 -623416249179165e-33 0 -277555756156289e-30 1 0 16 342 208 344 ?3
45 346 338 339 0 0 1 30 343 319 0 346 339 347 0 +-.0527587875612037 -43639137442
5416e-33 0 1 124683249835833e-30 0 16 346 205 348 ?349 350 342 343 0 0 1 30 347
 318 0 350 343 351 0 +-.0527587875612037 .003 0 0 1 0 16 350 202 352 ?353 354 34
6 347 0 0 1 30 351 317 0 354 347 355 0 +-.0507587875612037 .003 0 1 0 0 16 354 1
99 356 ?225 224 350 351 0 0 1 30 355 316 0 224 351 357 0 +-.0507587875612037 0 0
 0 -1 0 16 224 196 358 ?223 248 354 355 0 0 1 30 357 315 0 248 355 359 0 +-.0492
587875612037 0 0 1 0 0 16 248 193 360 ?131 245 224 357 0 0 1 30 359 314 0 254 35
7 361 0 +-.0492587875612037 -.0217788067144346 0 0 -1 0 16 254 280 362 ?363 249
 0 359 0 0 1 30 361 494 0 33 359 364 0 +-.0492587875612037 0 .003 0 0 -1 16 33 3
74 0 ?32 127 240 361 0 0 1 30 364 495 0 127 361 229 0 +-.0507587875612037 0 .003
 0 0 -1 16 127 375 0 ?123 217 33 364 0 0 1 30 229 496 0 217 364 365 0 +-.0507587
875612037 .003 .003 0 0 -1 30 365 497 0 228 229 366 0 +-.0527587875612037 .003 .
003 0 0 -1 16 228 377 0 ?119 367 217 365 0 0 1 30 366 498 0 367 365 368 0 +-.052
7587875612037 -436391374425416e-33 .003 0 0 -1 16 367 378 0 ?116 369 228 366 0 0
 1 30 368 499 0 369 366 370 0 +-.0542587875612037 -623416249179165e-33 .003 0 0
 -1 16 369 379 0 ?113 371 367 368 0 0 1 30 370 500 0 371 368 372 0 +-.0542587875
612037 -.025 .003 0 0 -1 16 371 380 0 ?110 373 369 370 0 0 1 30 372 501 0 373 37
0 374 0 +-.1087487875612036 -.025 .003 0 0 -1 16 373 381 0 ?107 375 371 372 0 0
 1 30 374 502 0 375 372 376 0 +-.1087487875612036 -623416249179165e-33 .003 0 0
 -1 16 375 382 0 ?104 377 373 374 0 0 1 30 376 503 0 377 374 378 0 +-.1102487875
612036 -433680868994202e-33 .003 0 0 -1 16 377 383 0 ?101 379 375 376 0 0 1 30 3
78 504 0 379 376 380 0 +-.1102487875612036 .003 .003 0 0 -1 16 379 384 0 ?98 381
 377 378 0 0 1 30 380 505 0 381 378 382 0 +-.1122487875612036 .003 .003 0 0 -1 1
6 381 385 0 ?95 383 379 380 0 0 1 30 382 506 0 383 380 384 0 +-.1122487875612036
 -18702487475375e-32 .003 0 0 -1 16 383 386 0 ?92 385 381 382 0 0 1 30 384 507 0
 385 382 386 0 +-.1137487875612036 0 .003 0 0 -1 16 385 387 0 ?89 387 383 384 0
 0 1 30 386 508 0 387 384 388 0 +-.1137487875612036 -.0217788067144346 .003 0 0
 -1 16 387 388 0 ?86 389 385 386 0 0 1 30 388 509 0 389 386 390 0 +-.13043509976
88064 0 .003 0 0 -1 16 389 389 0 ?83 391 387 388 0 0 1 30 390 510 0 391 388 392
 0 +-.1367339479876608 3469446951953615e-33 .003 0 0 -1 16 391 390 0 ?80 393 389
 390 0 0 1 30 392 511 0 393 390 394 0 +-.1137487875612036 -.03 .003 0 0 -1 16 39
3 391 0 ?77 395 391 392 0 0 1 30 394 512 0 395 392 396 0 +-.1112487875612036 -.0
3 .003 0 0 -1 16 395 392 0 ?74 397 393 394 0 0 1 30 396 513 0 397 394 398 0 +-.1
112487875612036 -.04 .003 0 0 -1 16 397 393 0 ?71 399 395 396 0 0 1 30 398 514 0
 399 396 400 0 +-.1087487875612036 -.04 .003 0 0 -1 16 399 394 0 ?68 401 397 398
 0 0 1 30 400 515 0 401 398 402 0 +-.1087487875612036 -.03 .003 0 0 -1 16 401 39
5 0 ?65 403 399 400 0 0 1 30 402 516 0 403 400 404 0 +-.0542587875612037 -.03 .0
03 0 0 -1 16 403 396 0 ?62 405 401 402 0 0 1 30 404 517 0 405 402 406 0 +-.05425
87875612037 -.04 .003 0 0 -1 16 405 397 0 ?59 407 403 404 0 0 1 30 406 518 0 407
 404 408 0 +-.0517587875612037 -.04 .003 0 0 -1 16 407 398 0 ?56 409 405 406 0 0
 1 30 408 519 0 409 406 410 0 +-.0517587875612037 -.03 .003 0 0 -1 16 409 399 0
 ?53 411 407 408 0 0 1 30 410 520 0 411 408 412 0 +-.0492587875612037 -.03 .003
 0 0 -1 16 411 400 0 ?50 413 409 410 0 0 1 30 412 521 0 413 410 20 0 +-.02627362
71347465 0 .003 0 0 -1 16 413 401 0 ?47 25 411 412 0 0 1 30 20 522 0 25 412 6 0
 +-.03257247535360095 693889390390723e-32 .003 0 0 -1 16 25 402 0 ?44 9 413 20 0
 0 1 17 44 0 135 137 136 42 139 25 0 414 +15 135 460 0 137 415 0 17 137 0 135 13
2 44 40 252 249 0 363 -17 136 0 135 44 132 133 138 247 0 416 +17 139 0 417 418 4
14 133 44 25 0 136 -17 414 0 417 139 47 42 257 253 0 252 -15 417 458 0 414 419 0
 17 47 0 417 414 418 45 144 413 0 420 +17 257 0 421 261 252 45 414 253 0 0 +17 2
52 0 421 257 363 42 137 249 0 0 +15 421 192 0 363 422 0 17 363 0 421 252 131 40
 31 254 0 0 +17 131 0 421 363 223 21 128 248 0 31 +17 31 0 29 26 24 21 363 254 0
 0 -15 29 462 0 31 17 0 17 24 0 29 31 30 40 132 9 0 137 +17 30 0 29 24 26 129 23
8 245 0 0 +17 238 0 234 222 138 10 30 245 0 0 -17 138 0 234 238 416 129 136 247
 0 30 -17 416 0 234 138 423 133 418 424 0 0 -16 247 6 0 ?136 424 245 425 0 0 1 1
6 424 12 0 ?418 426 247 427 0 0 1 30 425 7 0 247 0 427 0 +-.0492587875612037 -.0
217788067144346 .003 .608184216855586 .793795917328729 0 30 427 13 0 424 425 428
 0 +-.03257247535360095 0 .003 1 0 0 30 428 19 0 426 427 429 0 +-.04925878756120
37 -.03 .003 -.608184216855586 -.793795917328729 0 16 426 18 0 ?430 431 424 428
 0 0 1 30 429 25 0 431 428 432 0 +-.0517587875612037 -.03 .003 -1 0 0 16 431 24
 0 ?433 434 426 429 0 0 1 30 432 31 0 434 429 435 0 +-.0517587875612037 -.03 .00
3 0 -1 0 16 434 30 0 ?436 437 431 432 0 0 1 30 435 37 0 437 432 438 0 +-.0542587
875612037 -.04 .003 -1 0 0 16 437 36 0 ?439 440 434 435 0 0 1 30 438 43 0 440 43
5 441 0 +-.0542587875612037 -.03 .003 0 1 0 16 440 42 0 ?442 443 437 438 0 0 1 3
0 441 49 0 443 438 444 0 +-.1087487875612036 -.03 .003 -1 0 0 16 443 48 0 ?445 4
46 440 441 0 0 1 30 444 55 0 446 441 447 0 +-.1087487875612036 -.03 .003 0 -1 0
 16 446 54 0 ?448 449 443 444 0 0 1 30 447 61 0 449 444 450 0 +-.108748787561203
6 -.04 .003 -1 0 0 16 449 60 0 ?451 452 446 447 0 0 1 30 450 67 0 452 447 453 0
 +-.1112487875612036 -.03 .003 0 1 0 16 452 66 0 ?454 455 449 450 0 0 1 30 453 7
3 0 455 450 456 0 +-.1112487875612036 -.03 .003 -1 0 0 16 455 72 0 ?457 458 452
 453 0 0 1 30 456 79 0 458 453 459 0 +-.1137487875612036 -.03 .003 -.60818421685
5586 .793795917328729 0 16 458 78 0 ?460 461 455 456 0 0 1 30 459 85 0 461 456 4
62 0 +-.1304350997688064 0 .003 1 -550806565169876e-30 0 16 461 84 0 ?463 464 45
8 459 0 0 1 30 462 91 0 464 459 465 0 +-.1137487875612036 -.0217788067144346 .00
3 .608184216855586 -.793795917328729 0 16 464 90 0 ?466 467 461 462 0 0 1 30 465
 97 0 467 462 468 0 +-.1137487875612036 -.0217788067144346 .003 0 1 0 16 467 96
 0 ?469 470 464 465 0 0 1 30 468 103 0 470 465 471 0 +-.1137487875612036 0 .003
 1 -124683249835833e-30 0 16 470 102 0 ?472 473 467 468 0 0 1 30 471 109 0 473 4
68 474 0 +-.1122487875612036 -18702487475375e-32 .003 0 1 0 16 473 108 0 ?475 47
6 470 471 0 0 1 30 474 115 0 476 471 477 0 +-.1122487875612036 .003 .003 1 0 0 1
6 476 114 0 ?478 479 473 474 0 0 1 30 477 121 0 479 474 480 0 +-.110248787561203
6 .003 .003 0 -1 0 16 479 120 0 ?481 482 476 477 0 0 1 30 480 127 0 482 477 483
 0 +-.1102487875612036 -433680868994202e-33 .003 1 -1264902534566422e-31 0 16 48
2 126 0 ?484 485 479 480 0 0 1 30 483 133 0 485 480 486 0 +-.1087487875612036 -6
23416249179165e-33 .003 0 -1 0 16 485 132 0 ?487 488 482 483 0 0 1 30 486 139 0
 488 483 489 0 +-.1087487875612036 -.025 .003 1 0 0 16 488 138 0 ?490 491 485 48
6 0 0 1 30 489 145 0 491 486 492 0 +-.0542587875612037 -623416249179165e-33 .003
 -277555756156289e-30 1 0 16 491 144 0 ?493 494 488 489 0 0 1 30 492 151 0 494 4
89 243 0 +-.0527587875612037 -436391374425416e-33 .003 1 124683249835833e-30 0 1
6 494 150 0 ?495 236 491 492 0 0 1 30 243 157 0 236 492 237 0 +-.052758787561203
7 .003 .003 0 1 0 16 236 156 0 ?233 231 494 243 0 0 1 17 233 0 496 119 213 214 2
35 236 0 230 +15 496 410 0 497 498 0 17 119 0 496 497 233 117 215 228 0 227 +17
 213 0 496 233 497 211 116 367 0 495 -17 235 0 234 499 230 211 233 236 0 0 -17 4
99 0 234 500 235 208 495 494 0 0 -17 500 0 234 501 499 205 493 491 0 0 -17 495 0
 502 116 210 211 499 494 0 235 +15 502 412 0 503 504 0 17 116 0 502 503 495 114
 213 367 0 497 +17 210 0 502 495 503 208 113 369 0 493 -17 503 0 502 210 116 111
 349 346 0 345 -17 113 0 505 506 493 111 210 369 0 503 +17 493 0 505 113 207 208
 500 491 0 499 +15 505 414 0 506 507 0 17 207 0 505 493 506 205 110 371 0 490 -1
7 506 0 505 207 113 108 345 342 0 341 -17 110 0 508 509 490 108 207 371 0 506 +1
7 490 0 508 110 204 205 501 488 0 500 +15 508 416 0 509 510 0 17 204 0 508 490 5
09 202 107 373 0 487 -17 501 0 234 511 500 202 490 488 0 0 -17 511 0 234 512 501
 199 487 485 0 0 -17 512 0 234 513 511 196 484 482 0 0 -17 487 0 514 107 201 202
 511 485 0 501 +15 514 418 0 515 516 0 17 107 0 514 515 487 105 204 373 0 509 +1
7 201 0 514 487 515 199 104 375 0 484 -17 515 0 514 201 107 102 337 334 0 333 -1
7 104 0 517 518 484 102 201 375 0 515 +17 484 0 517 104 198 199 512 482 0 511 +1
5 517 420 0 518 519 0 17 198 0 517 484 518 196 101 377 0 481 -17 518 0 517 198 1
04 99 333 330 0 329 -17 101 0 520 521 481 99 198 377 0 518 +17 481 0 520 101 195
 196 513 479 0 512 +15 520 422 0 521 522 0 17 195 0 520 481 521 193 98 379 0 478
 -17 513 0 234 523 512 193 481 479 0 0 -17 523 0 234 524 513 190 478 476 0 0 -17
 524 0 234 525 523 187 475 473 0 0 -17 478 0 526 98 192 193 523 476 0 513 +15 52
6 424 0 527 528 0 17 98 0 526 527 478 96 195 379 0 521 +17 192 0 526 478 527 190
 95 381 0 475 -17 527 0 526 192 98 93 325 322 0 321 -17 95 0 529 530 475 93 192
 381 0 527 +17 475 0 529 95 189 190 524 473 0 523 +15 529 426 0 530 531 0 17 189
 0 529 475 530 187 92 383 0 472 -17 530 0 529 189 95 90 321 318 0 317 -17 92 0 5
32 533 472 90 189 383 0 530 +17 472 0 532 92 186 187 525 470 0 524 +15 532 428 0
 533 534 0 17 186 0 532 472 533 184 89 385 0 469 -17 525 0 234 535 524 184 472 4
70 0 0 -17 535 0 234 536 525 181 469 467 0 0 -17 536 0 234 537 535 178 466 464 0
 0 -17 469 0 538 89 183 184 535 467 0 525 +15 538 430 0 539 540 0 17 89 0 538 53
9 469 87 186 385 0 533 +17 183 0 538 469 539 181 86 387 0 466 -17 539 0 538 183
 89 84 313 310 0 309 -17 86 0 541 542 466 84 183 387 0 539 +17 466 0 541 86 180
 181 536 464 0 535 +15 541 432 0 542 543 0 17 180 0 541 466 542 178 83 389 0 463
 -17 542 0 541 180 86 81 309 306 0 305 -17 83 0 544 545 463 81 180 389 0 542 +17
 463 0 544 83 177 178 537 461 0 536 +15 544 434 0 545 546 0 17 177 0 544 463 545
 175 80 391 0 460 -17 537 0 234 547 536 175 463 461 0 0 -17 547 0 234 548 537 17
2 460 458 0 0 -17 548 0 234 549 547 169 457 455 0 0 -17 460 0 550 80 174 175 547
 458 0 537 +15 550 436 0 551 552 0 17 80 0 550 551 460 78 177 391 0 545 +17 174
 0 550 460 551 172 77 393 0 457 -17 551 0 550 174 80 75 301 298 0 297 -17 77 0 5
53 554 457 75 174 393 0 551 +17 457 0 553 77 171 172 548 455 0 547 +15 553 438 0
 554 555 0 17 171 0 553 457 554 169 74 395 0 454 -17 554 0 553 171 77 72 297 294
 0 293 -17 74 0 556 557 454 72 171 395 0 554 +17 454 0 556 74 168 169 549 452 0
 548 +15 556 440 0 557 558 0 17 168 0 556 454 557 166 71 397 0 451 -17 549 0 234
 559 548 166 454 452 0 0 -17 559 0 234 560 549 163 451 449 0 0 -17 560 0 234 561
 559 160 448 446 0 0 -17 451 0 562 71 165 166 559 449 0 549 +15 562 442 0 563 56
4 0 17 71 0 562 563 451 69 168 397 0 557 +17 165 0 562 451 563 163 68 399 0 448
 -17 563 0 562 165 71 66 289 286 0 285 -17 68 0 565 566 448 66 165 399 0 563 +17
 448 0 565 68 162 163 560 446 0 559 +15 565 444 0 566 567 0 17 162 0 565 448 566
 160 65 401 0 445 -17 566 0 565 162 68 63 285 282 0 281 -17 65 0 568 569 445 63
 162 401 0 566 +17 445 0 568 65 159 160 561 443 0 560 +15 568 446 0 569 570 0 17
 159 0 568 445 569 157 62 403 0 442 -17 561 0 234 571 560 157 445 443 0 0 -17 57
1 0 234 572 561 154 442 440 0 0 -17 572 0 234 573 571 151 439 437 0 0 -17 442 0
 574 62 156 157 571 440 0 561 +15 574 448 0 575 576 0 17 62 0 574 575 442 60 159
 403 0 569 +17 156 0 574 442 575 154 59 405 0 439 -17 575 0 574 156 62 57 277 27
4 0 273 -17 59 0 577 578 439 57 156 405 0 575 +17 439 0 577 59 153 154 572 437 0
 571 +15 577 450 0 578 579 0 17 153 0 577 439 578 151 56 407 0 436 -17 578 0 577
 153 59 54 273 270 0 269 -17 56 0 580 581 436 54 153 407 0 578 +17 436 0 580 56
 150 151 573 434 0 572 +15 580 452 0 581 582 0 17 150 0 580 436 581 148 53 409 0
 433 -17 573 0 234 583 572 148 436 434 0 0 -17 583 0 234 423 573 145 433 431 0 0
 -17 423 0 234 416 583 140 430 426 0 0 -17 433 0 584 53 147 148 583 431 0 573 +1
5 584 454 0 585 586 0 17 53 0 584 585 433 51 150 409 0 581 +17 147 0 584 433 585
 145 50 411 0 430 -17 585 0 584 147 53 48 265 262 0 261 -17 50 0 587 420 430 48
 147 411 0 585 +17 430 0 587 50 144 145 423 426 0 583 +15 587 456 0 420 588 0 17
 144 0 587 430 420 140 47 413 0 418 -17 420 0 587 144 50 45 261 258 0 257 -17 41
8 0 417 47 139 140 416 424 0 423 +17 261 0 421 265 257 48 420 258 0 0 +17 265 0
 421 269 261 51 585 262 0 0 +17 269 0 421 273 265 54 581 266 0 0 +17 273 0 421 2
77 269 57 578 270 0 0 +17 581 0 580 150 56 51 269 266 0 265 -17 277 0 421 281 27
3 60 575 274 0 0 +17 281 0 421 285 277 63 569 278 0 0 +17 285 0 421 289 281 66 5
66 282 0 0 +17 569 0 568 159 65 60 281 278 0 277 -17 289 0 421 293 285 69 563 28
6 0 0 +17 293 0 421 297 289 72 557 290 0 0 +17 297 0 421 301 293 75 554 294 0 0
 +17 557 0 556 168 74 69 293 290 0 289 -17 301 0 421 305 297 78 551 298 0 0 +17
 305 0 421 309 301 81 545 302 0 0 +17 309 0 421 313 305 84 542 306 0 0 +17 545 0
 544 177 83 78 305 302 0 301 -17 313 0 421 317 309 87 539 310 0 0 +17 317 0 421
 321 313 90 533 314 0 0 +17 321 0 421 325 317 93 530 318 0 0 +17 533 0 532 186 9
2 87 317 314 0 313 -17 325 0 421 329 321 96 527 322 0 0 +17 329 0 421 333 325 99
 521 326 0 0 +17 333 0 421 337 329 102 518 330 0 0 +17 521 0 520 195 101 96 329
 326 0 325 -17 337 0 421 341 333 105 515 334 0 0 +17 341 0 421 345 337 108 509 3
38 0 0 +17 345 0 421 349 341 111 506 342 0 0 +17 509 0 508 204 110 105 341 338 0
 337 -17 349 0 421 353 345 114 503 346 0 0 +17 353 0 421 225 349 117 497 350 0 0
 +17 225 0 421 223 353 120 227 354 0 0 +17 497 0 496 213 119 114 353 350 0 349 -
17 223 0 421 131 225 122 125 224 0 0 +17 227 0 226 215 121 117 225 354 0 353 -14
 255 588 457 589 ?586 419 587 4 590 +0 0 586 419 23 81 2 589 730 591 588 592 0 5
93 594 595 596 14 586 455 594 ?582 588 584 4 597 +0 0 582 588 23 14 419 459 593
 ?588 415 417 4 598 +0 0 588 415 23 50 590 490 0 588 597 598 0 +-.04925878756120
37 -.03 .003 .793795917328729 -.608184216855586 0 .608184216855586 .793795917328
729 0 13 23 524 0 0 0 0 0 0 8 17 14 17 463 599 ?415 0 29 4 5 +0 0 415 0 23 81 2
 599 721 591 17 600 0 0 601 602 603 14 415 461 601 ?419 17 135 4 19 +0 0 419 17
 23 81 2 601 724 591 415 604 0 599 593 605 606 50 19 492 0 415 598 5 0 +-.049258
7875612037 -.0217788067144346 .003 -.793795917328729 .608184216855586 0 -.608184
216855586 -.793795917328729 0 50 598 491 0 419 590 19 0 +-.03257247535360095 0 .
003 0 1 0 0 0 1 80 7 CCCCCDI12 legal_owners0 16 1 lCZ2 591 607 608 8014 0 0 0 0
 3 5 0 0 0 FFFFTFFFFFFFFFFF2 1 81 1 604 723 609 415 610 601 600 611 612 81 2 593
 727 591 419 611 0 601 589 613 614 83 255 1 605 0 82 255 1 606 0 81 1 611 726 60
9 419 615 593 604 592 616 83 1 613 0 82 1 614 0 80 1 609 591 617 8015 0 0 0 0 3
 5 0 0 0 FFFFTFFFFFFFFFFF2 81 1 615 725 618 419 619 611 610 620 621 81 1 592 729
 609 588 620 589 611 622 623 83 1 616 0 81 1 620 728 618 588 624 592 615 625 626
 81 1 622 732 609 586 625 594 592 627 628 83 1 623 0 81 1 625 731 618 586 629 62
2 620 630 631 81 2 594 733 591 586 622 0 589 632 633 634 81 1 627 735 609 582 63
0 632 622 635 636 83 1 628 0 14 582 453 632 ?579 586 580 4 637 +0 0 579 586 23 8
1 1 630 734 618 582 638 627 625 639 640 81 2 632 736 591 582 627 0 594 641 642 6
43 81 1 635 738 609 579 639 641 627 644 645 83 1 636 0 14 579 451 641 ?576 582 5
77 4 646 +0 0 576 582 23 81 1 639 737 618 579 647 635 630 648 649 81 2 641 739 5
91 579 635 0 632 650 651 652 81 1 644 741 609 576 648 650 635 653 654 83 1 645 0
 14 576 449 650 ?570 579 574 4 655 +0 0 570 579 23 81 1 648 740 618 576 656 644
 639 657 658 81 2 650 742 591 576 644 0 641 659 660 661 81 1 653 744 609 570 657
 659 644 662 663 83 1 654 0 14 570 447 659 ?567 576 568 4 664 +0 0 567 576 23 81
 1 657 743 618 570 665 653 648 666 667 81 2 659 745 591 570 653 0 650 668 669 67
0 81 1 662 747 609 567 666 668 653 671 672 83 1 663 0 14 567 445 668 ?564 570 56
5 4 673 +0 0 564 570 23 81 1 666 746 618 567 674 662 657 675 676 81 2 668 748 59
1 567 662 0 659 677 678 679 81 1 671 750 609 564 675 677 662 680 681 83 1 672 0
 14 564 443 677 ?558 567 562 4 682 +0 0 558 567 23 81 1 675 749 618 564 683 671
 666 684 685 81 2 677 751 591 564 671 0 668 686 687 688 81 1 680 753 609 558 684
 686 671 689 690 83 1 681 0 14 558 441 686 ?555 564 556 4 691 +0 0 555 564 23 81
 1 684 752 618 558 692 680 675 693 694 81 2 686 754 591 558 680 0 677 695 696 69
7 81 1 689 756 609 555 693 695 680 698 699 83 1 690 0 14 555 439 695 ?552 558 55
3 4 700 +0 0 552 558 23 81 1 693 755 618 555 701 689 684 702 703 81 2 695 757 59
1 555 689 0 686 704 705 706 81 1 698 759 609 552 702 704 689 707 708 83 1 699 0
 14 552 437 704 ?546 555 550 4 709 +0 0 546 555 23 81 1 702 758 618 552 710 698
 693 711 712 81 2 704 760 591 552 698 0 695 713 714 715 81 1 707 762 609 546 711
 713 698 716 717 83 1 708 0 14 546 435 713 ?543 552 544 4 718 +0 0 543 552 23 81
 1 711 761 618 546 719 707 702 720 721 81 2 713 763 591 546 707 0 704 722 723 72
4 81 1 716 765 609 543 720 722 707 725 726 83 1 717 0 14 543 433 722 ?540 546 54
1 4 727 +0 0 540 546 23 81 1 720 764 618 543 728 716 711 729 730 81 2 722 766 59
1 543 716 0 713 731 732 733 81 1 725 768 609 540 729 731 716 734 735 83 1 726 0
 14 540 431 731 ?534 543 538 4 736 +0 0 534 543 23 81 1 729 767 618 540 737 725
 720 738 739 81 2 731 769 591 540 725 0 722 740 741 742 81 1 734 771 609 534 738
 740 725 743 744 83 1 735 0 14 534 429 740 ?531 540 532 4 745 +0 0 531 540 23 81
 1 738 770 618 534 746 734 729 747 748 81 2 740 772 591 534 734 0 731 749 750 75
1 81 1 743 774 609 531 747 749 734 752 753 83 1 744 0 14 531 427 749 ?528 534 52
9 4 754 +0 0 528 534 23 81 1 747 773 618 531 755 743 738 756 757 81 2 749 775 59
1 531 743 0 740 758 759 760 81 1 752 777 609 528 756 758 743 761 762 83 1 753 0
 14 528 425 758 ?522 531 526 4 763 +0 0 522 531 23 81 1 756 776 618 528 764 752
 747 765 766 81 2 758 778 591 528 752 0 749 767 768 769 81 1 761 780 609 522 765
 767 752 770 771 83 1 762 0 14 522 423 767 ?519 528 520 4 772 +0 0 519 528 23 81
 1 765 779 618 522 773 761 756 774 775 81 2 767 781 591 522 761 0 758 776 777 77
8 81 1 770 783 609 519 774 776 761 779 780 83 1 771 0 14 519 421 776 ?516 522 51
7 4 781 +0 0 516 522 23 81 1 774 782 618 519 782 770 765 783 784 81 2 776 784 59
1 519 770 0 767 785 786 787 81 1 779 786 609 516 783 785 770 788 789 83 1 780 0
 14 516 419 785 ?510 519 514 4 790 +0 0 510 519 23 81 1 783 785 618 516 791 779
 774 792 793 81 2 785 787 591 516 779 0 776 794 795 796 81 1 788 789 609 510 792
 794 779 797 798 83 1 789 0 14 510 417 794 ?507 516 508 4 799 +0 0 507 516 23 81
 1 792 788 618 510 800 788 783 801 802 81 2 794 790 591 510 788 0 785 803 804 80
5 81 1 797 792 609 507 801 803 788 806 807 83 1 798 0 14 507 415 803 ?504 510 50
5 4 808 +0 0 504 510 23 81 1 801 791 618 507 809 797 792 810 811 81 2 803 793 59
1 507 797 0 794 812 813 814 81 1 806 795 609 504 810 812 797 815 816 83 1 807 0
 14 504 413 812 ?498 507 502 4 817 +0 0 498 507 23 81 1 810 794 618 504 818 806
 801 819 820 81 2 812 796 591 504 806 0 803 821 822 823 81 1 815 798 609 498 819
 821 806 824 825 83 1 816 0 14 498 411 821 ?232 504 496 4 826 +0 0 232 504 23 81
 1 819 797 618 498 827 815 810 828 829 81 2 821 799 591 498 815 0 812 830 831 83
2 81 1 824 801 609 232 828 830 815 833 834 83 1 825 0 14 232 409 830 ?219 498 22
6 4 835 +0 0 219 498 23 81 1 828 800 618 232 836 824 819 837 838 81 2 830 802 59
1 232 824 0 821 839 840 841 81 1 833 804 609 219 837 839 824 842 843 83 1 834 0
 14 219 407 839 ?844 232 124 4 845 +0 0 844 232 23 81 1 837 803 618 219 846 833
 828 847 848 81 2 839 805 591 219 833 0 830 849 850 851 81 1 842 807 609 844 847
 849 833 852 853 83 1 843 0 14 844 405 849 ?239 219 130 4 854 +0 0 239 219 23 81
 1 847 806 618 844 855 842 837 856 857 81 2 849 808 591 844 842 0 839 858 859 86
0 81 1 852 810 609 239 856 858 842 861 862 83 1 853 0 14 239 182 858 ?422 844 23
4 4 863 +0 0 422 844 23 81 1 856 809 618 239 864 852 847 865 866 81 2 858 811 59
1 239 852 0 849 867 868 869 81 1 861 813 609 422 865 867 852 0 870 83 1 862 0 14
 422 191 867 ?0 239 421 4 871 -0 0 0 239 23 81 1 865 812 618 422 872 861 856 0 8
73 81 2 867 814 591 422 861 0 858 0 874 875 83 1 870 0 83 1 874 0 82 1 875 0 80
 1 618 0 876 8001 0 0 0 0 3 5 0 0 0 FFFFTFTFFFFFFFFF2 81 2 872 718 877 422 878 8
65 864 0 879 0 83 3 873 .505882382392883 .529411792755127 .549019634723663 80 2
 877 880 881 9000 0 0 0 0 3 6 0 0 0 FFTFTFTTFFFFFTFF1 2 81 1 878 686 882 422 883
 872 884 0 0 81 2 864 717 877 239 884 856 855 872 885 0 82 2 879 1 31 81 1 884 6
85 882 239 886 864 887 878 0 81 2 855 716 877 844 887 847 846 864 888 0 82 2 885
 1 30 81 1 887 684 882 844 889 855 890 884 0 81 2 846 715 877 219 890 837 836 85
5 891 0 82 2 888 1 29 81 1 890 683 882 219 892 846 893 887 0 81 2 836 714 877 23
2 893 828 827 846 894 0 82 2 891 1 28 81 1 893 682 882 232 895 836 896 890 0 81
 2 827 713 877 498 896 819 818 836 897 0 82 2 894 1 27 81 1 896 681 882 498 898
 827 899 893 0 81 2 818 712 877 504 899 810 809 827 900 0 82 2 897 1 26 81 1 899
 680 882 504 901 818 902 896 0 81 2 809 711 877 507 902 801 800 818 903 0 82 2 9
00 1 25 81 1 902 679 882 507 904 809 905 899 0 81 2 800 710 877 510 905 792 791
 809 906 0 82 2 903 1 24 81 1 905 678 882 510 907 800 908 902 0 81 2 791 709 877
 516 908 783 782 800 909 0 82 2 906 1 23 81 1 908 677 882 516 910 791 911 905 0
 81 2 782 708 877 519 911 774 773 791 912 0 82 2 909 1 22 81 1 911 676 882 519 9
13 782 914 908 0 81 2 773 707 877 522 914 765 764 782 915 0 82 2 912 1 21 81 1 9
14 675 882 522 916 773 917 911 0 81 2 764 706 877 528 917 756 755 773 918 0 82 2
 915 1 20 81 1 917 674 882 528 919 764 920 914 0 81 2 755 705 877 531 920 747 74
6 764 921 0 82 2 918 1 19 81 1 920 673 882 531 922 755 923 917 0 81 2 746 704 87
7 534 923 738 737 755 924 0 82 2 921 1 18 81 1 923 672 882 534 925 746 926 920 0
 81 2 737 703 877 540 926 729 728 746 927 0 82 2 924 1 17 81 1 926 671 882 540 9
28 737 929 923 0 81 2 728 702 877 543 929 720 719 737 930 0 82 2 927 1 16 81 1 9
29 670 882 543 931 728 932 926 0 81 2 719 701 877 546 932 711 710 728 933 0 82 2
 930 1 15 81 1 932 669 882 546 934 719 935 929 0 81 2 710 700 877 552 935 702 70
1 719 936 0 82 2 933 1 14 81 1 935 668 882 552 937 710 938 932 0 81 2 701 699 87
7 555 938 693 692 710 939 0 82 2 936 1 13 81 1 938 667 882 555 940 701 941 935 0
 81 2 692 698 877 558 941 684 683 701 942 0 82 2 939 1 12 81 1 941 666 882 558 9
43 692 944 938 0 81 2 683 697 877 564 944 675 674 692 945 0 82 2 942 1 11 81 1 9
44 665 882 564 946 683 947 941 0 81 2 674 696 877 567 947 666 665 683 948 0 82 2
 945 1 10 81 1 947 664 882 567 949 674 950 944 0 81 2 665 695 877 570 950 657 65
6 674 951 0 82 2 948 1 9 81 1 950 663 882 570 952 665 953 947 0 81 2 656 694 877
 576 953 648 647 665 954 0 82 2 951 1 8 81 1 953 662 882 576 955 656 956 950 0 8
1 2 647 693 877 579 956 639 638 656 957 0 82 2 954 1 7 81 1 956 661 882 579 958
 647 959 953 0 81 2 638 692 877 582 959 630 629 647 960 0 82 2 957 1 6 81 1 959
 660 882 582 961 638 962 956 0 81 2 629 691 877 586 962 625 624 638 963 0 82 2 9
60 1 5 81 1 962 659 882 586 964 629 965 959 0 81 2 624 690 877 588 965 620 619 6
29 966 0 82 2 963 1 4 81 1 965 658 882 588 967 624 968 962 0 81 2 619 689 877 41
9 968 615 969 624 970 0 82 2 966 1 3 81 1 968 657 882 419 971 619 972 965 0 81 2
 969 688 877 415 972 610 973 619 974 0 82 2 970 1 2 81 1 972 656 882 415 975 969
 976 968 0 81 1 610 722 618 415 969 604 977 615 978 81 2 973 687 877 17 976 977
 0 969 979 0 82 2 974 1 1 81 1 976 655 882 17 980 973 0 972 0 81 1 977 719 618 1
7 973 600 0 610 981 82 2 979 1 0 81 1 600 720 609 17 977 599 0 604 982 83 3 981
 .505882382392883 .529411792755127 .549019634723663 83 1 982 0 80 1 882 983 984
 9000 1 1 1 1 1 1 1 1 0 FFFFTFTTFFFFFFFF1 81 1 980 622 985 17 986 976 0 975 987
 80 1 985 988 989 9000 0 0 0 0 3 6 0 0 0 FFFFTFFFFFFFFFFF1 81 3 986 557 990 17 0
 980 0 991 992 993 0 81 1 975 623 985 415 991 972 980 971 994 82 1 987 2179 81 3
 991 560 990 415 0 975 986 995 996 997 0 81 1 971 624 985 419 995 968 975 967 99
8 82 1 994 2179 81 3 995 562 990 419 0 971 991 999 1000 1001 0 81 1 967 625 985
 588 999 965 971 964 1002 82 1 998 2179 81 3 999 564 990 588 0 967 995 1003 1004
 1005 0 81 1 964 626 985 586 1003 962 967 961 1006 82 1 1002 2179 81 3 1003 566
 990 586 0 964 999 1007 1008 1009 0 81 1 961 627 985 582 1007 959 964 958 1010 8
2 1 1006 2179 81 3 1007 568 990 582 0 961 1003 1011 1012 1013 0 81 1 958 628 985
 579 1011 956 961 955 1014 82 1 1010 2179 81 3 1011 570 990 579 0 958 1007 1015
 1016 1017 0 81 1 955 629 985 576 1015 953 958 952 1018 82 1 1014 2179 81 3 1015
 572 990 576 0 955 1011 1019 1020 1021 0 81 1 952 630 985 570 1019 950 955 949 1
022 82 1 1018 2179 81 3 1019 574 990 570 0 952 1015 1023 1024 1025 0 81 1 949 63
1 985 567 1023 947 952 946 1026 82 1 1022 2179 81 3 1023 576 990 567 0 949 1019
 1027 1028 1029 0 81 1 946 632 985 564 1027 944 949 943 1030 82 1 1026 2179 81 3
 1027 578 990 564 0 946 1023 1031 1032 1033 0 81 1 943 633 985 558 1031 941 946
 940 1034 82 1 1030 2179 81 3 1031 580 990 558 0 943 1027 1035 1036 1037 0 81 1
 940 634 985 555 1035 938 943 937 1038 82 1 1034 2179 81 3 1035 582 990 555 0 94
0 1031 1039 1040 1041 0 81 1 937 635 985 552 1039 935 940 934 1042 82 1 1038 217
9 81 3 1039 584 990 552 0 937 1035 1043 1044 1045 0 81 1 934 636 985 546 1043 93
2 937 931 1046 82 1 1042 2179 81 3 1043 586 990 546 0 934 1039 1047 1048 1049 0
 81 1 931 637 985 543 1047 929 934 928 1050 82 1 1046 2179 81 3 1047 588 990 543
 0 931 1043 1051 1052 1053 0 81 1 928 638 985 540 1051 926 931 925 1054 82 1 105
0 2179 81 3 1051 590 990 540 0 928 1047 1055 1056 1057 0 81 1 925 639 985 534 10
55 923 928 922 1058 82 1 1054 2179 81 3 1055 592 990 534 0 925 1051 1059 1060 10
61 0 81 1 922 640 985 531 1059 920 925 919 1062 82 1 1058 2179 81 3 1059 594 990
 531 0 922 1055 1063 1064 1065 0 81 1 919 641 985 528 1063 917 922 916 1066 82 1
 1062 2179 81 3 1063 596 990 528 0 919 1059 1067 1068 1069 0 81 1 916 642 985 52
2 1067 914 919 913 1070 82 1 1066 2179 81 3 1067 598 990 522 0 916 1063 1071 107
2 1073 0 81 1 913 643 985 519 1071 911 916 910 1074 82 1 1070 2179 81 3 1071 600
 990 519 0 913 1067 1075 1076 1077 0 81 1 910 644 985 516 1075 908 913 907 1078
 82 1 1074 2179 81 3 1075 602 990 516 0 910 1071 1079 1080 1081 0 81 1 907 645 9
85 510 1079 905 910 904 1082 82 1 1078 2179 81 3 1079 604 990 510 0 907 1075 108
3 1084 1085 0 81 1 904 646 985 507 1083 902 907 901 1086 82 1 1082 2179 81 3 108
3 606 990 507 0 904 1079 1087 1088 1089 0 81 1 901 647 985 504 1087 899 904 898
 1090 82 1 1086 2179 81 3 1087 608 990 504 0 901 1083 1091 1092 1093 0 81 1 898
 648 985 498 1091 896 901 895 1094 82 1 1090 2179 81 3 1091 610 990 498 0 898 10
87 1095 1096 1097 0 81 1 895 649 985 232 1095 893 898 892 1098 82 1 1094 2179 81
 3 1095 612 990 232 0 895 1091 1099 1100 1101 0 81 1 892 650 985 219 1099 890 89
5 889 1102 82 1 1098 2179 81 3 1099 614 990 219 0 892 1095 1103 1104 1105 0 81 1
 889 651 985 844 1103 887 892 886 1106 82 1 1102 2179 81 3 1103 616 990 844 0 88
9 1099 1107 1108 1109 0 81 1 886 652 985 239 1107 884 889 883 1110 82 1 1106 217
9 81 3 1107 618 990 239 0 886 1103 1111 1112 1113 0 81 1 883 653 985 422 1111 87
8 886 0 1114 82 1 1110 2179 81 3 1111 620 990 422 0 883 1107 0 1115 1116 0 82 1
 1114 2179 80 3 990 1117 1118 9000 0 0 0 0 3 6 0 0 0 FFFFTFTTFFFFFFFF1 1 3 82 1
 1115 0 82 1 1116 31 79 255 27 1118 MONIKER/MONIKER_DATA_ATTRIB82 1 1112 0 82 1
 1113 30 82 1 1108 0 82 1 1109 29 82 1 1104 0 82 1 1105 28 82 1 1100 0 82 1 1101
 27 82 1 1096 0 82 1 1097 26 82 1 1092 0 82 1 1093 25 82 1 1088 0 82 1 1089 24 8
2 1 1084 0 82 1 1085 23 82 1 1080 0 82 1 1081 22 82 1 1076 0 82 1 1077 21 82 1 1
072 0 82 1 1073 20 82 1 1068 0 82 1 1069 19 82 1 1064 0 82 1 1065 18 82 1 1060 0
 82 1 1061 17 82 1 1056 0 82 1 1057 16 82 1 1052 0 82 1 1053 15 82 1 1048 0 82 1
 1049 14 82 1 1044 0 82 1 1045 13 82 1 1040 0 82 1 1041 12 82 1 1036 0 82 1 1037
 11 82 1 1032 0 82 1 1033 10 82 1 1028 0 82 1 1029 9 82 1 1024 0 82 1 1025 8 82
 1 1020 0 82 1 1021 7 82 1 1016 0 82 1 1017 6 82 1 1012 0 82 1 1013 5 82 1 1008
 0 82 1 1009 4 82 1 1004 0 82 1 1005 3 82 1 1000 0 82 1 1001 2 82 1 996 0 82 1 9
97 1 82 1 992 0 82 1 993 0 79 23 989 SolidEdge/MNKR_ATTR_CID79 17 984 SolidEdge/
Display83 3 978 .505882382392883 .529411792755127 .549019634723663 79 27 881 Sol
idEdge/SYNCTOPOLOGY_ATTR79 15 876 SDL/TYSA_COLOUR50 871 313 0 422 863 854 0 +0 0
 0 0 0 1 1 0 0 50 863 185 0 239 0 871 0 +0 0 .003 0 0 1 1 0 0 50 854 464 0 844 8
71 845 0 +-.0492587875612037 0 .003 0 1 0 0 0 1 50 845 465 0 219 854 835 0 +-.05
07587875612037 0 .003 1 0 0 0 0 -1 50 835 466 0 232 845 826 0 +-.050758787561203
7 .003 .003 0 1 0 0 0 1 50 826 467 0 498 835 817 0 +-.0527587875612037 .003 .003
 -1 0 0 0 0 1 50 817 468 0 504 826 808 0 +-.0527587875612037 -436391374425416e-3
3 .003 -124683249835833e-30 1 0 -1 -124683249835833e-30 0 50 808 469 0 507 817 7
99 0 +-.0542587875612037 -623416249179165e-33 .003 -1 -277555756156289e-30 0 277
555756156289e-30 -1 0 50 799 470 0 510 808 790 0 +-.1087487875612036 -.025 .003
 0 1 0 0 0 1 50 790 471 0 516 799 781 0 +-.1087487875612036 -623416249179165e-33
 .003 1 0 0 0 0 -1 50 781 472 0 519 790 772 0 +-.1102487875612036 -4336808689942
02e-33 .003 1264902534566422e-31 1 0 -1 1264902534566422e-31 0 50 772 473 0 522
 781 763 0 +-.1102487875612036 .003 .003 1 0 0 0 0 -1 50 763 474 0 528 772 754 0
 +-.1122487875612036 .003 .003 0 1 0 0 0 1 50 754 475 0 531 763 745 0 +-.1122487
875612036 -18702487475375e-32 .003 -1 0 0 0 0 1 50 745 476 0 534 754 736 0 +-.11
37487875612036 0 .003 124683249835833e-30 1 0 -1 124683249835833e-30 0 50 736 47
7 0 540 745 727 0 +-.1137487875612036 -.0217788067144346 .003 -1 0 0 0 0 1 50 72
7 478 0 543 736 718 0 +-.1137487875612036 -.0217788067144346 .003 .7937959173287
29 .608184216855585 0 -.608184216855586 .793795917328729 0 50 718 479 0 546 727
 709 0 +-.1304350997688064 0 .003 550806565169876e-30 1 0 -1 550806565169876e-30
 0 50 709 480 0 552 718 700 0 +-.1137487875612036 -.03 .003 -.793795917328729 -.
608184216855586 0 .608184216855586 -.793795917328729 0 50 700 481 0 555 709 691
 0 +-.1112487875612036 -.03 .003 0 -1 0 0 0 -1 50 691 482 0 558 700 682 0 +-.111
2487875612036 -.03 .003 -1 0 0 0 0 1 50 682 483 0 564 691 673 0 +-.1087487875612
036 -.04 .003 0 -1 0 0 0 -1 50 673 484 0 567 682 664 0 +-.1087487875612036 -.03
 .003 1 0 0 0 0 -1 50 664 485 0 570 673 655 0 +-.1087487875612036 -.03 .003 0 -1
 0 0 0 -1 50 655 486 0 576 664 646 0 +-.0542587875612037 -.03 .003 -1 0 0 0 0 1
 50 646 487 0 579 655 637 0 +-.0542587875612037 -.04 .003 0 -1 0 0 0 -1 50 637 4
88 0 582 646 597 0 +-.0517587875612037 -.03 .003 1 0 0 0 0 -1 50 597 489 0 586 6
37 590 0 +-.0517587875612037 -.03 .003 0 -1 0 0 0 -1 83 1 868 0 82 1 869 0 83 3
 866 .505882382392883 .529411792755127 .549019634723663 83 1 859 0 82 1 860 0 83
 3 857 .505882382392883 .529411792755127 .549019634723663 15 130 404 0 128 844 0
 17 128 0 130 35 32 122 131 248 0 223 -17 35 0 130 34 128 27 123 127 0 126 -17 3
4 0 130 32 35 10 222 240 0 238 +83 1 850 0 82 1 851 0 83 3 848 .505882382392883
 .529411792755127 .549019634723663 83 1 840 0 82 1 841 0 83 3 838 .5058823823928
83 .529411792755127 .549019634723663 83 1 831 0 82 1 832 0 83 3 829 .50588238239
2883 .529411792755127 .549019634723663 83 1 822 0 82 1 823 0 83 3 820 .505882382
392883 .529411792755127 .549019634723663 83 1 813 0 82 1 814 0 83 3 811 .5058823
82392883 .529411792755127 .549019634723663 83 1 804 0 82 1 805 0 83 3 802 .50588
2382392883 .529411792755127 .549019634723663 83 1 795 0 82 1 796 0 83 3 793 .505
882382392883 .529411792755127 .549019634723663 83 1 786 0 82 1 787 0 83 3 784 .5
05882382392883 .529411792755127 .549019634723663 83 1 777 0 82 1 778 0 83 3 775
 .505882382392883 .529411792755127 .549019634723663 83 1 768 0 82 1 769 0 83 3 7
66 .505882382392883 .529411792755127 .549019634723663 83 1 759 0 82 1 760 0 83 3
 757 .505882382392883 .529411792755127 .549019634723663 83 1 750 0 82 1 751 0 83
 3 748 .505882382392883 .529411792755127 .549019634723663 83 1 741 0 82 1 742 0
 83 3 739 .505882382392883 .529411792755127 .549019634723663 83 1 732 0 82 1 733
 0 83 3 730 .505882382392883 .529411792755127 .549019634723663 83 1 723 0 82 1 7
24 0 83 3 721 .505882382392883 .529411792755127 .549019634723663 83 1 714 0 82 1
 715 0 83 3 712 .505882382392883 .529411792755127 .549019634723663 83 1 705 0 82
 1 706 0 83 3 703 .505882382392883 .529411792755127 .549019634723663 83 1 696 0
 82 1 697 0 83 3 694 .505882382392883 .529411792755127 .549019634723663 83 1 687
 0 82 1 688 0 83 3 685 .505882382392883 .529411792755127 .549019634723663 83 1 6
78 0 82 1 679 0 83 3 676 .505882382392883 .529411792755127 .549019634723663 83 1
 669 0 82 1 670 0 83 3 667 .505882382392883 .529411792755127 .549019634723663 83
 1 660 0 82 1 661 0 83 3 658 .505882382392883 .529411792755127 .549019634723663
 83 1 651 0 82 1 652 0 83 3 649 .505882382392883 .529411792755127 .5490196347236
63 83 1 642 0 82 1 643 0 83 3 640 .505882382392883 .529411792755127 .54901963472
3663 83 1 633 0 82 1 634 0 83 3 631 .505882382392883 .529411792755127 .549019634
723663 83 3 626 .505882382392883 .529411792755127 .549019634723663 83 3 621 .505
882382392883 .529411792755127 .549019634723663 79 21 617 SDL/TYSA_TRANSLUCENCY83
 1 612 0 79 21 608 SDL/TYSA_REFLECTIVITY83 1 602 0 82 1 603 0 83 1 595 0 82 1 59
6 0 81 1 362 282 983 254 0 0 251 0 1119 80 1 983 1120 1121 9000 0 0 0 0 3 6 0 0
 0 FFFFTFTTFFFFFFFF1 81 1 251 279 983 249 0 0 256 362 1122 82 1 1119 17 81 1 256
 276 983 253 0 0 260 251 1123 82 1 1122 17 81 1 260 273 983 258 0 0 264 256 1124
 82 1 1123 17 81 1 264 270 983 262 0 0 268 260 1125 82 1 1124 17 81 1 268 267 98
3 266 0 0 272 264 1126 82 1 1125 17 81 1 272 264 983 270 0 0 276 268 1127 82 1 1
126 17 81 1 276 261 983 274 0 0 280 272 1128 82 1 1127 17 81 1 280 258 983 278 0
 0 284 276 1129 82 1 1128 17 81 1 284 255 983 282 0 0 288 280 1130 82 1 1129 17
 81 1 288 252 983 286 0 0 292 284 1131 82 1 1130 17 81 1 292 249 983 290 0 0 296
 288 1132 82 1 1131 17 81 1 296 246 983 294 0 0 300 292 1133 82 1 1132 17 81 1 3
00 243 983 298 0 0 304 296 1134 82 1 1133 17 81 1 304 240 983 302 0 0 308 300 11
35 82 1 1134 17 81 1 308 237 983 306 0 0 312 304 1136 82 1 1135 17 81 1 312 234
 983 310 0 0 316 308 1137 82 1 1136 17 81 1 316 231 983 314 0 0 320 312 1138 82
 1 1137 17 81 1 320 228 983 318 0 0 324 316 1139 82 1 1138 17 81 1 324 225 983 3
22 0 0 328 320 1140 82 1 1139 17 81 1 328 222 983 326 0 0 332 324 1141 82 1 1140
 17 81 1 332 219 983 330 0 0 336 328 1142 82 1 1141 17 81 1 336 216 983 334 0 0
 340 332 1143 82 1 1142 17 81 1 340 213 983 338 0 0 344 336 1144 82 1 1143 17 81
 1 344 210 983 342 0 0 348 340 1145 82 1 1144 17 81 1 348 207 983 346 0 0 352 34
4 1146 82 1 1145 17 81 1 352 204 983 350 0 0 356 348 1147 82 1 1146 17 81 1 356
 201 983 354 0 0 358 352 1148 82 1 1147 17 81 1 358 198 983 224 0 0 360 356 1149
 82 1 1148 17 81 1 360 195 983 248 0 0 0 358 1150 82 1 1149 17 82 1 1150 17 79 2
7 1121 SolidEdge/MNKR_ATTR_TYPE_EX19 18 525 0 1 0 8 4 0 S0 74 4 CI16 index_map_o
ffset0 0 1 dCCZ20 16 10 0 0 362 12 1111 883 2 878 872 865 861 867 0 0 0 0 0 0 0
 0 0 0 81 2 12 556 1151 1 0 2 0 0 1152 1153 80 2 1151 11 1154 9000 2 2 2 2 3 6 0
 0 0 FFTFFFFFFFFFFFFF2 3 83 2 1152 1 118 84 255 19 1153 SE 222.0.2.3 Type8679 22
 1154 MONIKER/BODY_ID_ATTRIB80 3 11 1155 1156 9000 0 0 0 0 3 6 0 0 0 FFTFFFFFFFF
FFFFF3 3 1 84 38 13 {d4267450-6018-446d-b17b-c14d137ffeb2}84 2 14 SE82 1 15 0 79
 25 1156 MONIKER/GUID_TABLE_ATTRIB1 0 
